<?xml version="1.0" standalone="no"?>
<!DOCTYPE svg PUBLIC "-//W3C//DTD SVG 20010904//EN"
 "http://www.w3.org/TR/2001/REC-SVG-20010904/DTD/svg10.dtd">
<svg version="1.0" xmlns="http://www.w3.org/2000/svg"
 width="5274.000000pt" height="2844.000000pt" viewBox="0 0 5274.000000 2844.000000"
 preserveAspectRatio="xMidYMid meet">

<g transform="translate(0.000000,2844.000000) scale(0.100000,-0.100000)"
fill="#000000" stroke="none">
<path d="M3775 28042 c-14 -7 -29 -21 -35 -32 -6 -10 -10 -92 -10 -190 l0
-172 29 -29 29 -29 172 0 172 0 29 29 29 29 0 177 c0 173 0 176 -25 200 -13
14 -28 25 -32 25 -4 0 -81 1 -171 3 -117 1 -170 -2 -187 -11z m325 -219 l0
-138 -68 2 c-37 1 -100 2 -139 2 l-73 1 0 83 c0 45 3 106 6 135 l7 52 133 0
134 0 0 -137z"/>
<path d="M4595 28043 c-169 -57 -212 -274 -79 -392 74 -65 173 -77 262 -32
135 70 163 263 52 369 -63 61 -156 82 -235 55z m142 -103 c62 -38 83 -107 54
-177 -27 -65 -121 -94 -188 -59 -122 63 -75 255 62 256 22 0 54 -9 72 -20z"/>
<path d="M6033 28047 c-52 -10 -129 -76 -154 -132 -53 -117 7 -257 134 -310
140 -59 310 59 310 215 0 158 -130 259 -290 227z m131 -106 c86 -57 89 -172 5
-232 -61 -43 -155 -22 -194 44 -23 39 -24 108 -1 142 40 61 132 84 190 46z"/>
<path d="M50475 28038 c-42 -24 -44 -37 -45 -219 0 -200 4 -213 72 -228 56
-13 271 -14 317 -1 67 18 71 30 71 233 0 240 13 227 -222 227 -111 0 -180 -5
-193 -12z m262 -103 c88 -58 79 -187 -18 -238 -91 -48 -208 33 -195 136 12
101 128 157 213 102z"/>
<path d="M51177 28039 c-36 -21 -47 -71 -47 -219 0 -153 11 -198 52 -222 17
-9 70 -13 191 -13 l169 0 29 33 29 32 0 171 0 171 -29 29 -29 29 -174 0 c-104
0 -180 -5 -191 -11z m272 -85 l61 -7 0 -133 0 -134 -140 0 -140 0 0 140 0 140
79 0 c43 0 106 -3 140 -6z"/>
<path d="M5340 27940 l0 -70 -70 0 -70 0 0 -45 0 -45 70 0 70 0 0 -75 0 -75
45 0 45 0 0 75 0 75 76 0 75 0 -3 43 -3 42 -72 3 -73 3 0 69 0 70 -45 0 -45 0
0 -70z"/>
<path d="M6780 27940 l0 -69 -72 -3 -73 -3 -3 -42 -3 -43 75 0 75 0 3 -72 3
-73 40 0 40 0 5 70 5 70 73 3 73 3 -3 42 -3 42 -72 3 -73 3 0 69 0 70 -45 0
-45 0 0 -70z"/>
<path d="M3900 27336 c-159 -42 -223 -243 -119 -370 16 -19 52 -46 81 -60 86
-43 175 -31 249 33 54 46 79 100 79 175 0 108 -62 191 -164 221 -58 18 -66 18
-126 1z m157 -128 c85 -85 29 -229 -91 -230 -60 -1 -109 31 -131 84 -20 52
-13 96 22 139 34 40 58 50 116 45 40 -3 55 -10 84 -38z"/>
<path d="M5908 27335 c-15 -9 -32 -24 -38 -35 -6 -10 -10 -92 -10 -189 0 -165
1 -171 24 -198 l24 -28 167 -3 c190 -4 215 2 240 55 14 29 16 61 13 194 -3
158 -3 159 -31 186 l-27 28 -168 2 c-134 2 -172 0 -194 -12z m256 -104 c65
-43 85 -125 46 -188 -25 -42 -68 -63 -126 -63 -41 0 -51 5 -85 39 -36 35 -39
43 -39 93 0 33 6 62 16 77 41 58 132 79 188 42z"/>
<path d="M6655 27341 c-11 -5 -29 -19 -40 -31 -18 -20 -20 -39 -23 -184 -4
-177 4 -212 54 -235 34 -15 325 -15 359 1 48 22 55 52 55 227 l0 161 -29 32
-29 33 -164 2 c-89 1 -172 -1 -183 -6z m315 -225 c0 -74 -3 -137 -7 -139 -5
-2 -69 -2 -143 1 l-135 4 3 134 3 134 140 0 139 0 0 -134z"/>
<path d="M50457 27312 l-27 -28 0 -178 c0 -240 -14 -226 230 -226 244 0 230
-14 230 229 0 180 0 180 -25 206 -26 25 -27 25 -204 25 l-177 0 -27 -28z m343
-202 l0 -141 -137 3 -138 3 -3 124 c-1 69 0 131 2 138 4 10 39 13 141 13 l135
0 0 -140z"/>
<path d="M4620 27230 l0 -70 -70 0 -70 0 0 -45 0 -45 70 0 69 0 3 -72 3 -73
45 0 45 0 3 73 3 72 69 0 70 0 0 45 0 45 -70 0 -70 0 0 70 0 70 -50 0 -50 0 0
-70z"/>
<path d="M51318 27228 c-2 -49 -7 -73 -15 -74 -7 -1 -38 -2 -68 -3 l-55 -1 0
-45 0 -45 70 0 70 0 0 -71 0 -70 48 3 47 3 3 68 3 67 69 0 70 0 0 45 c0 25 -4
45 -10 46 -5 0 -36 1 -67 1 l-58 0 -5 72 -5 71 -47 3 -47 3 -3 -73z"/>
<path d="M33815 25364 c-11 -3 -33 -10 -50 -17 -45 -17 -656 -395 -688 -425
-39 -37 -74 -115 -87 -192 -8 -45 -10 -386 -8 -1100 l3 -1035 28 -89 c54 -175
131 -302 257 -426 70 -70 112 -100 232 -169 81 -47 150 -92 154 -100 3 -9 19
-68 35 -131 38 -151 124 -324 218 -440 81 -100 209 -207 261 -217 39 -7 24
-14 280 137 l174 103 41 -23 c22 -12 173 -100 335 -194 162 -94 324 -181 360
-193 71 -25 134 -29 193 -12 20 5 151 80 290 166 138 86 284 176 323 200 89
54 135 103 165 179 l24 59 0 1070 c0 1015 -1 1074 -19 1139 -41 153 -114 292
-215 412 -75 90 -135 135 -317 240 -329 190 -622 359 -1379 796 -214 123 -408
232 -430 240 -43 17 -148 29 -180 22z m164 -159 c51 -24 53 -27 35 -39 -28
-20 -402 -254 -424 -266 -16 -8 -37 -1 -103 33 l-83 44 205 127 c198 122 206
126 260 126 39 0 73 -8 110 -25z m586 -337 c215 -123 601 -345 859 -494 403
-231 480 -278 540 -336 39 -36 69 -69 66 -71 -3 -3 -113 -69 -244 -148 l-239
-142 -46 49 c-79 84 -126 116 -491 326 -195 113 -517 299 -715 413 -198 115
-407 235 -465 268 -58 33 -111 65 -117 71 -10 9 40 45 214 154 125 78 232 141
238 138 5 -2 186 -104 400 -228z m-1106 -71 c64 -36 256 -145 426 -244 171
-99 535 -309 810 -468 613 -353 623 -359 681 -415 105 -100 198 -258 234 -397
20 -78 20 -99 18 -1139 -3 -1039 -3 -1060 -23 -1093 -11 -19 -33 -43 -48 -55
-40 -29 -126 -28 -187 3 -25 13 -282 160 -572 327 -560 323 -570 328 -626 288
-52 -36 -61 -107 -33 -289 10 -71 17 -132 15 -134 -2 -2 -39 32 -82 75 -132
134 -221 302 -263 498 -32 143 -46 160 -229 266 -69 39 -141 84 -160 98 -126
96 -242 277 -284 443 -14 58 -16 177 -16 1117 0 1141 -2 1091 53 1150 32 35
55 42 116 38 42 -4 77 -18 170 -69z m2691 -1019 c38 -81 69 -173 59 -182 -10
-10 -462 -276 -469 -276 -4 0 -12 19 -19 43 -7 23 -31 80 -53 126 -22 46 -36
87 -31 91 4 4 87 53 183 110 96 56 200 118 230 136 30 18 56 34 58 34 2 0 21
-37 42 -82z m84 -459 c10 -17 14 -34 10 -39 -26 -25 -427 -260 -435 -255 -5 4
-16 19 -24 34 l-14 28 212 131 c117 71 217 130 222 131 6 1 19 -13 29 -30z
m-3 -1751 c7 -13 4 -21 -13 -32 -90 -57 -421 -256 -423 -254 -8 10 -36 70 -33
73 2 1 86 53 188 115 102 62 199 121 215 131 32 20 38 18 66 -33z"/>
<path d="M27605 23034 c-89 -19 -217 -81 -275 -132 -52 -46 -95 -119 -105
-177 -7 -42 -49 -205 -146 -570 -103 -386 -115 -432 -240 -900 -67 -253 -159
-602 -205 -775 -46 -173 -96 -362 -111 -419 -24 -90 -32 -107 -58 -123 -16
-11 -203 -119 -414 -241 -293 -170 -391 -231 -415 -261 -31 -38 -31 -38 -29
-152 2 -79 7 -122 18 -143 31 -60 13 -49 1065 -654 173 -99 317 -182 320 -184
2 -2 -16 -24 -41 -49 -43 -43 -47 -45 -73 -32 -26 11 -34 9 -92 -22 -35 -19
-64 -40 -64 -47 0 -12 47 -47 75 -56 5 -2 -6 -22 -25 -45 l-35 -41 -30 19
c-16 10 -48 27 -70 39 l-39 21 -56 -31 c-91 -51 -91 -52 -21 -93 34 -20 69
-36 78 -36 9 0 37 12 62 27 l46 26 -20 -24 c-11 -13 -39 -45 -62 -71 l-43 -47
2 -567 3 -566 155 -90 c85 -50 301 -175 480 -278 179 -103 368 -212 420 -242
52 -30 196 -114 320 -185 124 -71 469 -270 768 -443 l542 -313 0 -753 0 -752
403 -233 c221 -127 497 -287 612 -354 116 -67 242 -139 280 -160 l70 -38 250
153 c392 241 581 357 700 430 232 142 374 229 399 245 30 20 26 26 55 -90 12
-46 16 -81 11 -83 -5 -2 -20 -12 -32 -22 l-22 -18 46 -28 c42 -25 48 -34 63
-88 10 -33 19 -65 22 -72 2 -6 -6 -14 -19 -18 -31 -8 -118 -64 -118 -75 0 -5
29 -26 65 -46 61 -34 66 -35 93 -21 l28 14 29 -81 c115 -329 304 -714 492
-1001 393 -602 893 -1051 1513 -1361 315 -158 592 -235 839 -235 89 0 217 17
263 35 15 6 15 -2 -7 -82 -13 -48 -28 -106 -34 -129 -10 -36 -14 -41 -35 -37
-17 4 -45 -7 -87 -33 l-62 -37 28 -23 c16 -12 46 -30 67 -40 21 -10 37 -22 35
-28 -3 -6 -10 -37 -17 -68 -13 -55 -16 -59 -67 -88 -29 -17 -53 -35 -53 -40 0
-6 16 -18 35 -27 33 -16 35 -19 29 -52 -4 -20 -10 -43 -14 -51 -5 -8 -137 -89
-295 -180 -582 -335 -543 -311 -574 -360 -18 -30 -21 -51 -21 -138 0 -120 12
-156 69 -203 20 -17 169 -107 331 -200 162 -94 356 -205 430 -249 246 -142
1084 -626 1134 -654 106 -59 280 -72 378 -29 26 12 237 131 470 266 233 134
659 380 948 547 289 166 539 316 557 333 40 38 55 97 50 202 -4 90 -20 128
-69 171 -18 16 -209 130 -425 254 l-391 225 -42 155 c-71 257 -129 484 -126
487 3 3 76 -38 696 -397 179 -103 487 -281 685 -395 198 -114 366 -212 373
-217 9 -8 12 -169 12 -742 0 -402 3 -741 6 -753 7 -24 -14 -12 817 -492 296
-171 542 -311 546 -311 5 0 480 290 1057 643 l1049 644 3 304 3 304 377 230
377 231 3 636 2 636 -377 218 -378 219 -3 1272 -2 1272 22 14 c81 49 80 48 67
63 -7 9 -30 24 -51 35 l-38 19 0 73 0 73 52 29 c28 17 53 35 55 41 2 7 -21 26
-52 44 l-55 31 0 87 0 87 63 36 c34 19 298 172 587 339 289 167 581 335 649
374 167 96 175 107 179 251 3 98 1 118 -17 153 -28 54 -43 65 -351 242 -146
84 -321 185 -389 225 l-125 72 -27 99 c-15 55 -66 248 -114 429 -48 182 -104
393 -125 470 -20 77 -49 185 -64 240 -14 55 -48 183 -75 285 -28 102 -59 219
-70 260 -196 741 -245 926 -257 983 -33 158 -160 264 -379 317 -66 16 -244 21
-320 9 -225 -35 -392 -154 -425 -302 -15 -68 -47 -193 -244 -932 -90 -341
-201 -759 -247 -930 -45 -170 -115 -434 -155 -587 -41 -152 -74 -279 -74 -281
0 -3 -44 -32 -97 -65 -54 -32 -354 -216 -668 -409 -536 -328 -635 -387 -635
-377 0 2 -20 68 -44 146 -97 315 -166 544 -166 551 0 4 11 7 25 7 90 0 289 58
410 120 159 81 207 122 487 420 195 207 253 280 308 390 94 188 124 334 124
595 -1 261 -30 426 -128 710 -239 697 -812 1435 -1524 1963 -887 656 -1864
881 -2467 569 -97 -50 -215 -138 -275 -204 -24 -26 -105 -113 -181 -193 -75
-80 -153 -163 -174 -185 -20 -22 -62 -77 -92 -123 -30 -46 -60 -81 -66 -78
-34 14 -211 67 -269 81 -103 24 -171 30 -318 30 -146 -1 -231 -16 -350 -65
-84 -34 54 49 -1345 -805 -313 -191 -585 -357 -602 -368 l-33 -19 0 1384 -1
1383 -166 95 c-92 52 -210 120 -262 151 -351 205 -850 489 -858 489 -6 0 -76
-40 -154 -88 -79 -49 -297 -182 -484 -297 -371 -227 -1000 -613 -1245 -763
-85 -52 -161 -97 -170 -99 -14 -4 -269 -282 -420 -459 -25 -29 -47 -53 -50
-53 -6 -1 -20 52 -105 374 -24 94 -51 195 -60 225 -38 134 -423 1601 -434
1651 -12 59 -51 128 -92 166 -45 41 -144 94 -224 120 -103 33 -318 42 -430 17z
m332 -110 c186 -38 303 -130 303 -239 0 -72 -57 -136 -165 -187 -193 -90 -493
-71 -641 41 -68 51 -94 93 -94 151 0 170 312 293 597 234z m-492 -524 c98 -47
169 -62 311 -67 205 -8 358 35 480 134 l52 41 16 -61 c9 -34 43 -163 76 -287
33 -123 60 -243 60 -265 0 -46 -37 -131 -68 -159 -27 -23 -20 -41 -78 224 -25
118 -50 219 -54 223 -5 6 -95 -9 -108 -18 -2 -1 82 -380 112 -508 6 -24 -71
-62 -193 -94 -74 -20 -127 -26 -231 -29 -150 -3 -244 9 -361 50 -41 14 -78 27
-83 28 -5 2 -15 -21 -22 -50 -14 -61 -17 -57 86 -91 210 -70 516 -66 720 9 47
17 92 33 101 36 13 5 20 -14 40 -101 13 -59 29 -109 35 -112 16 -6 94 16 94
26 0 5 -12 63 -26 130 l-26 121 58 63 c34 37 62 59 65 53 4 -6 33 -108 65
-226 44 -159 59 -231 58 -276 -3 -202 -235 -383 -580 -450 -112 -22 -376 -25
-484 -5 -95 17 -218 55 -295 92 -32 15 -61 26 -63 24 -5 -5 -21 -77 -22 -97 0
-11 24 -26 77 -48 343 -143 812 -130 1138 32 92 46 201 133 249 198 l44 59 27
-102 c15 -56 39 -142 53 -192 19 -65 26 -115 26 -180 1 -83 -2 -96 -33 -160
-67 -136 -221 -255 -432 -334 -377 -142 -877 -118 -1216 59 l-73 37 -10 -36
c-20 -71 -16 -78 60 -116 91 -46 217 -88 350 -117 92 -20 134 -22 345 -23 215
0 252 2 350 24 110 23 233 62 319 100 25 11 46 18 46 15 0 -2 -77 -91 -172
-197 -94 -105 -253 -284 -352 -396 l-181 -203 -110 7 c-529 33 -954 257 -1056
556 -33 100 -29 159 27 377 27 106 51 192 54 192 3 0 19 -23 35 -51 17 -28 61
-81 99 -117 l70 -65 14 62 14 62 -51 54 c-87 96 -129 216 -110 318 4 25 26
113 48 194 22 82 45 167 51 191 l11 43 38 -48 c43 -55 126 -133 140 -133 5 0
15 24 21 54 l11 55 -41 42 c-82 85 -118 184 -101 276 8 40 103 410 116 450 2
7 36 -20 74 -58 39 -39 76 -69 83 -67 6 2 17 27 23 56 l12 51 -42 41 c-23 23
-52 62 -65 87 -32 65 -25 119 59 431 39 145 71 266 71 269 0 2 21 -14 47 -37
26 -22 74 -54 108 -70z m4295 -457 c141 -82 385 -222 543 -313 157 -91 286
-167 286 -170 0 -4 -1068 -661 -1776 -1093 l-144 -87 -357 206 c-196 113 -444
256 -549 317 -106 61 -191 112 -190 113 4 3 344 212 632 389 160 98 351 215
425 261 664 407 856 524 865 524 6 0 125 -66 265 -147z m-2119 -1219 c101 -58
299 -173 439 -254 140 -81 314 -181 385 -222 l130 -75 5 -2279 c3 -1254 9
-2284 13 -2291 4 -7 42 -32 85 -56 42 -24 181 -103 307 -176 127 -73 258 -149
293 -169 l62 -36 0 -518 c0 -285 -2 -518 -5 -518 -3 0 -87 48 -188 106 -100
58 -253 146 -339 196 l-157 90 -36 -22 -35 -22 -2 -708 -3 -709 -195 113
c-107 62 -298 172 -425 245 -126 73 -301 174 -387 225 l-158 91 0 752 0 752
-92 54 c-51 30 -185 107 -298 172 -310 179 -424 244 -810 467 -646 373 -1002
579 -1242 717 l-237 136 -1 500 0 501 48 55 c26 31 135 154 242 274 259 290
585 655 860 965 124 139 306 344 405 455 99 111 209 234 245 275 64 73 197
222 650 729 129 145 239 270 243 277 4 8 9 14 11 14 2 0 86 -48 187 -106z
m7734 -49 c664 -94 1385 -486 1999 -1085 370 -361 649 -736 845 -1135 289
-584 355 -1115 189 -1513 -173 -417 -628 -635 -1193 -572 -579 65 -1216 367
-1808 858 -125 103 -418 392 -535 527 -421 486 -712 1038 -813 1545 -20 98
-24 146 -24 330 0 231 7 279 61 432 115 325 395 547 769 612 106 19 384 19
510 1z m-2083 -820 c98 -15 247 -53 319 -82 36 -14 40 -19 34 -42 -18 -76 -34
-90 -235 -211 -107 -64 -438 -265 -735 -445 -297 -180 -611 -370 -697 -423
l-158 -95 -97 40 c-204 84 -365 126 -543 143 -63 6 -115 12 -116 13 -2 2 339
211 1456 892 193 118 274 162 335 181 143 45 273 54 437 29z m-8822 -70 c0 -3
-11 -48 -25 -101 -60 -232 -12 -410 159 -591 162 -171 442 -318 714 -374 34
-7 62 -17 62 -22 0 -5 -41 -54 -92 -110 -50 -56 -93 -104 -94 -106 -3 -4 -20
6 -299 166 -104 61 -368 212 -585 338 -555 320 -559 322 -566 352 -5 17 -1 30
12 43 11 9 116 73 234 140 118 68 271 156 340 197 118 69 140 80 140 68z m120
-182 c135 -254 519 -461 950 -513 52 -6 112 -14 133 -18 l37 -7 -23 -27 c-96
-110 -212 -238 -216 -238 -18 0 -225 52 -276 68 -102 33 -240 97 -322 148 -95
59 -239 199 -281 274 -35 64 -62 159 -62 223 0 40 19 147 26 147 2 0 17 -26
34 -57z m8992 -295 c-8 -376 78 -707 299 -1152 38 -77 66 -142 62 -146 -23
-20 -805 -461 -813 -458 -5 2 -62 61 -127 133 -261 286 -576 536 -926 736
-117 66 -119 68 -95 82 12 8 151 93 308 187 157 95 357 217 445 270 88 54 277
168 420 255 143 86 296 179 340 206 44 27 82 49 85 49 3 0 4 -73 2 -162z m418
43 c-5 -9 -81 -89 -167 -179 l-158 -163 -40 34 -39 35 125 133 c69 74 145 155
169 182 l44 47 37 -36 c29 -28 36 -41 29 -53z m-10110 -241 l0 -60 -40 0 -40
0 0 60 0 60 40 0 40 0 0 -60z m260 -141 l0 -60 -42 3 -43 3 -3 58 -3 57 46 0
45 0 0 -61z m16173 -15 c114 -29 216 -96 253 -166 18 -35 18 -91 0 -127 -18
-33 -83 -94 -127 -116 -172 -90 -440 -89 -619 0 -53 27 -117 87 -131 122 -17
44 -11 107 14 140 105 142 376 208 610 147z m-6115 -363 c-23 -25 -98 -105
-166 -178 l-125 -132 -39 32 c-21 17 -37 34 -36 39 2 4 77 87 167 183 l165
176 37 -37 38 -37 -41 -46z m-2938 8 c230 -39 540 -167 835 -345 1003 -607
1655 -1647 1944 -3101 60 -300 95 -560 136 -993 19 -208 30 -662 27 -1110 l-2
-225 -78 -35 c-56 -25 -93 -50 -138 -95 -67 -67 -76 -86 -118 -262 -25 -102
-93 -361 -372 -1408 -52 -198 -99 -363 -102 -366 -4 -4 -29 -14 -57 -22 -278
-88 -616 -26 -1050 193 -366 184 -638 381 -936 679 -242 242 -416 463 -591
754 -543 904 -819 2121 -818 3617 1 986 109 1705 325 2156 76 159 126 236 219
333 207 214 446 286 776 230z m9441 -329 c85 -318 91 -377 48 -445 -64 -99
-187 -178 -349 -226 -61 -17 -107 -22 -240 -25 -181 -4 -231 3 -364 47 -49 16
-90 28 -91 27 -4 -6 -23 -103 -21 -106 12 -11 164 -55 238 -68 130 -23 379
-15 498 16 158 40 316 132 390 225 l28 36 16 -53 c78 -274 118 -445 112 -487
-18 -134 -120 -248 -301 -337 -154 -75 -275 -103 -475 -111 -237 -9 -426 26
-592 107 l-57 28 -12 -54 c-7 -33 -9 -58 -3 -63 18 -16 161 -70 239 -90 143
-35 236 -44 424 -38 192 6 282 22 432 76 160 59 309 164 377 266 l29 44 21
-77 c80 -293 93 -358 90 -423 -12 -230 -275 -442 -653 -526 l-114 -25 -409
236 c-225 130 -415 236 -421 236 -7 0 -38 -16 -69 -37 -31 -20 -97 -60 -145
-90 l-88 -53 -24 27 c-41 48 -84 137 -93 196 -11 72 -5 108 57 340 28 103 51
190 51 193 0 4 20 -21 44 -53 40 -55 132 -141 140 -132 2 2 9 28 15 57 l11 54
-46 51 c-79 88 -112 183 -95 269 16 83 113 443 121 451 4 5 19 -5 31 -23 26
-35 119 -113 126 -106 3 3 10 28 17 58 l12 53 -44 43 c-52 51 -81 112 -82 171
0 33 101 443 146 593 5 15 13 12 57 -21 130 -97 252 -134 447 -134 106 0 152
5 213 21 92 25 198 79 247 125 19 18 36 33 37 33 0 -1 34 -125 74 -276z
m-11353 -349 l30 -50 -76 -47 c-42 -26 -104 -64 -137 -84 -149 -94 -327 -200
-334 -200 -9 0 -59 71 -63 89 -3 10 516 338 538 340 6 1 25 -21 42 -48z m4732
-124 c36 -56 105 -155 153 -220 49 -65 87 -119 86 -121 -2 -1 -96 -56 -209
-121 -113 -65 -268 -155 -345 -200 -242 -140 -259 -149 -263 -137 -6 19 -196
304 -250 374 -35 47 -47 70 -39 75 52 35 784 452 792 452 6 0 39 -46 75 -102z
m453 -584 c201 -218 465 -457 680 -612 48 -35 86 -65 85 -66 -2 -1 -284 -166
-628 -365 -344 -199 -631 -367 -637 -372 -9 -7 -14 -6 -17 3 -3 8 -17 55 -32
104 -70 233 -176 498 -301 754 -57 118 -100 217 -96 222 4 4 163 97 353 207
190 110 368 213 395 230 28 17 55 31 61 31 6 1 68 -61 137 -136z m-4627 65
c-3 -18 -8 -51 -12 -73 -3 -22 -8 -43 -10 -47 -2 -3 -48 -33 -102 -66 -571
-351 -938 -575 -947 -579 -12 -4 -65 74 -65 96 0 5 26 25 58 44 31 19 127 77
212 129 585 359 742 455 795 489 33 21 64 38 69 38 4 1 6 -14 2 -31z m6166
-663 c-21 -22 -84 -88 -140 -148 -56 -59 -102 -111 -102 -115 0 -7 236 -123
322 -158 27 -10 48 -24 48 -30 0 -10 -28 -85 -34 -92 -5 -5 -267 117 -379 177
-94 49 -264 145 -337 190 -12 8 -11 14 5 46 11 20 25 40 30 45 6 5 40 -10 80
-34 39 -23 90 -54 115 -68 l45 -26 154 164 154 165 39 -38 38 -37 -38 -41z
m750 -287 l177 -42 27 -86 c14 -47 43 -141 64 -210 21 -69 61 -199 89 -290 27
-91 79 -261 116 -378 36 -118 65 -221 65 -229 0 -14 -158 -200 -171 -202 -3
-1 -36 99 -74 222 -100 331 -305 1000 -310 1014 -3 10 -15 9 -51 -2 -25 -7
-48 -16 -51 -19 -5 -4 89 -317 308 -1029 l89 -289 -57 -64 c-31 -35 -58 -63
-59 -61 -3 3 -88 278 -134 432 -18 61 -69 229 -250 820 l-100 330 64 63 c35
34 68 62 72 62 5 0 89 -19 186 -42z m2290 -71 c16 -21 28 -39 27 -41 -38 -25
-142 -86 -145 -83 -3 3 39 171 52 206 3 11 9 6 20 -15 8 -16 29 -46 46 -67z
m2151 -97 c59 -226 62 -249 42 -337 -27 -118 -109 -238 -220 -320 -73 -55
-223 -143 -242 -143 -10 0 -13 43 -15 182 l-3 182 -144 82 c-78 45 -147 86
-153 92 -6 6 4 12 29 17 100 18 282 94 382 159 90 58 188 151 231 219 19 31
38 53 41 49 3 -4 26 -86 52 -182z m-1233 -125 c256 -148 498 -287 537 -309 40
-23 72 -43 72 -46 0 -3 -104 -68 -232 -146 -128 -78 -392 -239 -587 -359 -195
-120 -404 -248 -465 -285 -60 -37 -228 -140 -373 -229 l-263 -161 -432 249
c-431 248 -660 381 -665 385 -1 2 46 32 105 68 60 36 491 301 958 587 468 287
857 520 865 518 8 -2 224 -125 480 -272z m-10217 -141 l-2 -376 -188 -115
c-103 -64 -193 -117 -199 -120 -7 -2 -148 75 -315 171 -167 97 -308 178 -314
180 -5 2 -8 6 -5 8 5 5 197 124 625 385 99 61 227 140 285 176 58 36 107 66
110 66 3 1 4 -168 3 -375z m6566 -244 c34 -113 73 -239 86 -280 13 -41 63
-203 110 -360 48 -157 109 -357 136 -444 l49 -159 -43 -46 c-23 -26 -71 -80
-107 -121 -36 -40 -104 -118 -152 -172 l-88 -97 5 137 c13 380 14 493 5 797
-5 182 -14 386 -20 455 -21 243 -41 445 -46 475 -13 66 6 11 65 -185z m5331
43 c124 -72 270 -156 325 -188 129 -75 152 -91 160 -116 9 -29 -5 -41 -119
-107 -55 -32 -352 -203 -659 -381 -307 -177 -565 -325 -573 -328 -12 -4 -14
15 -14 118 l0 124 73 29 c299 120 515 322 593 556 26 79 24 231 -4 330 -23 79
-27 104 -14 97 4 -3 108 -63 232 -134z m-5674 18 c-3 -5 -56 -38 -118 -73
-1022 -585 -1373 -786 -1421 -815 -32 -19 -63 -33 -70 -30 -13 5 -63 95 -56
101 2 2 243 140 534 306 292 167 654 375 805 462 l274 158 29 -50 c16 -27 26
-54 23 -59z m5369 -125 c8 -66 -23 -187 -66 -264 -44 -75 -144 -179 -232 -240
-69 -47 -207 -122 -254 -136 l-23 -7 0 145 0 145 86 41 c185 86 358 231 434
365 33 58 34 59 41 31 4 -15 11 -51 14 -80z m725 -426 l0 -60 -40 0 -40 0 0
60 0 60 40 0 40 0 0 -60z m-4260 -320 c179 -103 426 -246 550 -318 l225 -130
3 -2284 2 -2284 353 -204 c193 -112 364 -211 379 -219 l28 -16 0 -517 c0 -285
-2 -518 -5 -518 -3 0 -148 83 -323 184 -174 100 -327 188 -340 195 -19 10 -28
9 -57 -9 l-35 -22 -2 -708 -3 -709 -125 72 c-69 40 -330 191 -580 335 l-455
263 3 742 c2 586 0 746 -10 759 -7 9 -242 149 -523 311 -280 161 -645 372
-810 467 -165 95 -370 213 -455 262 -85 50 -156 91 -158 93 -3 2 -61 218 -125
465 -20 74 -81 304 -136 510 -55 206 -114 429 -132 495 -17 66 -39 151 -49
189 l-19 70 32 36 c134 148 681 763 717 805 25 29 207 234 405 455 198 222
396 445 440 495 43 49 158 178 255 286 96 108 267 299 380 426 183 205 207
229 225 220 11 -5 166 -94 345 -197z m-1770 150 c18 -28 31 -52 29 -53 -4 -3
-167 -103 -571 -350 l-107 -66 -31 51 c-17 28 -28 54 -23 59 11 11 657 408
664 409 4 0 21 -23 39 -50z m-6187 -627 c3 -10 8 -39 12 -64 l6 -47 -148 -91
-147 -91 -29 50 c-15 27 -29 52 -30 54 -2 6 312 203 325 205 4 1 9 -7 11 -16z
m4720 -1637 c187 -51 300 -161 269 -264 -26 -85 -138 -165 -278 -198 -144 -34
-338 -16 -462 43 -70 33 -147 108 -157 152 -27 123 99 233 315 275 82 16 237
12 313 -8z m4771 -237 c34 -61 39 -53 -99 -136 -55 -33 -171 -104 -258 -157
-87 -53 -159 -96 -161 -96 -2 0 -17 23 -34 50 l-32 51 52 32 c271 169 494 306
498 306 3 1 18 -22 34 -50z m-5423 -196 c24 -29 124 -89 185 -111 247 -88 557
-51 734 89 34 27 52 36 55 27 3 -7 27 -98 55 -203 27 -104 57 -215 65 -245 41
-148 39 -205 -10 -266 l-23 -29 -7 40 c-13 69 -19 74 -67 63 -24 -6 -47 -14
-52 -19 -5 -4 -2 -35 8 -73 25 -99 24 -102 -41 -134 -132 -66 -255 -92 -433
-92 -129 1 -236 17 -325 50 -104 38 -96 41 -110 -41 -6 -35 -5 -37 33 -52 126
-50 200 -62 407 -62 189 0 205 2 299 28 54 16 125 41 159 58 33 16 61 28 62
26 2 -1 19 -76 39 -166 20 -91 38 -166 40 -168 5 -5 81 8 94 16 11 6 2 51 -67
351 -7 33 -5 40 38 88 l46 53 63 -238 c72 -276 75 -310 32 -401 -74 -157 -307
-293 -580 -337 -119 -19 -316 -19 -440 -1 -106 17 -262 64 -328 101 -30 17
-44 20 -47 12 -11 -32 -26 -99 -23 -102 14 -12 87 -43 158 -67 269 -91 635
-92 906 -2 130 43 248 111 333 190 42 40 83 84 90 98 8 14 17 26 20 26 5 0 98
-348 116 -433 8 -41 -13 -143 -42 -201 -53 -104 -193 -226 -337 -291 -396
-181 -918 -174 -1298 16 -43 22 -80 39 -82 39 -8 0 -26 -102 -20 -112 9 -14
134 -70 228 -102 391 -131 906 -102 1246 69 151 76 290 194 340 288 14 26 27
47 31 47 9 0 101 -352 106 -410 20 -214 -146 -426 -440 -565 -117 -56 -220
-89 -377 -123 -116 -24 -142 -26 -365 -26 -220 0 -250 3 -366 27 -495 104
-819 363 -819 653 0 46 32 187 87 387 l16 58 39 -60 c37 -57 155 -177 165
-167 3 2 10 28 17 58 l12 53 -50 55 c-64 71 -107 163 -113 243 -5 63 -2 77 78
372 12 44 24 93 28 110 l7 29 22 -35 c22 -36 118 -135 146 -151 12 -7 17 -2
22 19 3 15 10 42 14 59 7 29 4 36 -35 74 -109 107 -125 196 -72 395 19 72 47
177 62 235 l27 105 74 -72 c40 -40 77 -73 82 -73 4 0 13 25 20 56 l12 57 -50
54 c-34 37 -55 72 -67 110 l-18 56 54 206 c30 113 65 250 79 304 14 53 29 97
32 97 4 0 14 -8 21 -17z m6647 -83 l31 -50 -22 -15 c-12 -8 -411 -253 -887
-544 l-864 -531 -33 52 c-30 47 -31 52 -15 63 9 7 188 117 397 245 209 128
448 274 530 325 83 51 281 172 440 270 160 97 310 190 335 206 25 16 48 29 51
29 3 0 20 -23 37 -50z m342 -1283 c107 -62 248 -144 313 -181 l118 -69 -28
-17 c-15 -9 -338 -207 -718 -440 -379 -233 -799 -490 -933 -572 -134 -82 -247
-148 -252 -146 -21 8 -619 354 -620 358 0 3 192 123 428 267 235 144 666 409
957 587 292 179 532 326 535 326 3 0 93 -51 200 -113z m-7876 -1419 c-14 -51
-27 -127 -30 -168 -18 -256 180 -515 521 -680 177 -87 338 -135 552 -166 157
-23 484 -23 637 0 479 71 851 282 1000 565 71 136 84 276 41 441 -13 52 -23
96 -21 97 6 6 681 -388 705 -412 37 -36 23 -64 -51 -106 -35 -19 -180 -103
-323 -186 -343 -198 -1200 -693 -1392 -803 -83 -49 -168 -93 -188 -100 -62
-20 -175 -8 -242 26 -49 25 -369 209 -963 554 -69 39 -204 117 -300 173 -232
133 -589 340 -617 357 -12 8 -27 25 -34 37 -11 21 -10 27 12 47 13 12 105 69
204 126 99 57 252 146 340 197 88 51 163 93 167 93 4 0 -5 -42 -18 -92z m260
-254 c450 -449 1489 -505 2071 -111 83 56 203 181 247 256 l37 63 10 -38 c19
-67 13 -162 -14 -239 -100 -282 -447 -498 -930 -580 -125 -21 -379 -26 -540
-12 -504 45 -953 307 -1041 606 -22 76 -20 215 3 254 3 5 24 -22 46 -60 22
-37 72 -100 111 -139z m3106 -324 l0 -60 -40 0 -40 0 0 60 0 60 40 0 40 0 0
-60z m-3930 -10 l0 -60 -40 0 -40 0 0 60 0 60 40 0 40 0 0 -60z m8058 -9 c22
-37 27 -52 19 -59 -7 -5 -124 -78 -262 -162 -137 -84 -337 -206 -442 -272
-106 -65 -197 -118 -201 -118 -9 0 -59 70 -64 89 -3 9 895 570 913 571 3 0 20
-22 37 -49z m-7798 -131 l0 -60 -40 0 -40 0 0 60 0 60 40 0 40 0 0 -60z m1700
-930 l0 -60 -40 0 -40 0 0 60 0 60 40 0 40 0 0 -60z"/>
<path d="M27665 22889 c-110 -18 -199 -67 -233 -128 -26 -46 -27 -68 -6 -121
21 -52 80 -95 169 -123 56 -18 94 -22 190 -22 169 0 277 35 343 110 32 35 36
51 33 110 -7 124 -262 213 -496 174z m245 -115 c79 -18 135 -51 135 -79 0 -45
-139 -95 -266 -95 l-62 0 7 53 c4 28 9 71 12 95 l6 42 50 0 c27 0 80 -7 118
-16z"/>
<path d="M29300 19188 c-57 -110 -139 -245 -208 -342 -68 -93 -121 -157 -801
-951 -486 -568 -522 -612 -517 -640 4 -16 10 -33 14 -36 4 -4 95 -58 202 -120
299 -172 409 -235 898 -517 249 -144 457 -262 463 -262 5 0 21 7 34 16 l25 16
0 607 c0 333 5 761 10 951 22 759 42 1216 56 1267 5 18 -4 26 -59 57 -35 20
-66 36 -69 36 -3 0 -25 -37 -48 -82z m-8 -1770 c-1 -365 -3 -720 -5 -790 l-2
-127 -485 280 c-267 154 -561 324 -654 378 -92 53 -169 101 -169 106 0 8 1297
813 1313 814 3 1 4 -297 2 -661z"/>
<path d="M37195 20216 c-347 -58 -585 -268 -676 -596 -21 -76 -24 -105 -24
-275 0 -158 4 -207 22 -290 136 -613 596 -1258 1226 -1718 492 -359 1036 -548
1465 -507 367 34 631 228 737 540 123 361 24 850 -271 1342 -439 731 -1233
1333 -1956 1483 -154 32 -400 42 -523 21z m1035 -267 c0 -6 -75 -89 -167 -185
l-166 -175 -38 37 -38 37 132 139 c73 76 147 156 166 178 l33 40 39 -31 c22
-17 39 -35 39 -40z m-1050 -199 c650 -68 1406 -553 1896 -1216 175 -236 314
-501 392 -744 87 -273 98 -553 30 -747 -11 -29 -20 -35 -87 -57 -121 -39 -187
-49 -331 -48 -168 1 -334 32 -535 99 -141 47 -426 182 -519 245 -48 32 -50 36
-106 183 -175 463 -379 837 -651 1195 -184 243 -443 512 -643 668 l-29 22 6
88 c7 94 41 232 60 244 27 18 179 59 248 67 104 12 160 12 269 1z m-454 -682
c228 -213 418 -437 592 -700 84 -127 142 -223 142 -235 0 -5 -57 -42 -126 -82
l-127 -73 -23 28 c-122 146 -265 357 -347 514 -116 218 -165 356 -222 618 -3
12 -2 22 3 22 5 0 53 -42 108 -92z m3014 -593 c41 -42 49 -30 -148 -234 l-148
-155 -37 30 c-21 16 -36 34 -35 40 3 12 319 353 329 353 3 1 20 -15 39 -34z
m-2133 -615 c59 -117 119 -254 181 -410 7 -18 -96 62 -228 176 -120 103 -268
255 -255 260 6 2 55 31 110 64 55 32 105 58 110 57 6 -2 42 -68 82 -147z"/>
<path d="M42012 18929 c-242 -35 -352 -203 -205 -315 73 -55 143 -76 278 -81
184 -8 294 24 368 106 31 35 37 48 37 87 0 59 -20 96 -73 132 -53 37 -122 61
-211 72 -83 11 -109 11 -194 -1z m236 -120 c47 -10 117 -42 127 -59 20 -32
-42 -78 -135 -99 -66 -15 -190 -14 -190 2 2 53 22 162 32 169 14 9 94 2 166
-13z"/>
<path d="M33657 17260 c-258 -66 -411 -378 -481 -980 -42 -364 -50 -550 -50
-1175 0 -548 8 -818 35 -1080 5 -55 12 -122 15 -150 48 -498 152 -922 294
-1205 166 -329 414 -577 682 -680 274 -106 482 -21 616 251 108 220 163 493
209 1034 22 268 26 1318 5 1590 -22 288 -42 507 -52 575 -5 36 -11 83 -14 105
-25 206 -97 529 -159 710 -42 122 -76 203 -132 315 -159 318 -439 583 -704
669 -74 24 -209 35 -264 21z m407 -1624 c14 -25 26 -47 26 -49 0 -3 -93 -63
-207 -133 -115 -70 -265 -162 -335 -206 -70 -43 -129 -78 -131 -78 -5 0 -68
102 -65 105 2 1 66 40 143 88 77 47 228 139 335 205 107 66 198 118 202 116 3
-2 18 -24 32 -48z m801 -1168 c3 -84 5 -281 3 -437 l-3 -285 -125 -74 c-69
-41 -228 -136 -355 -212 -734 -437 -876 -520 -885 -515 -22 14 -105 338 -140
545 -11 69 -24 146 -29 173 l-8 47 131 79 c72 43 300 178 506 301 206 123 490
292 630 376 140 84 258 153 261 154 4 0 10 -69 14 -152z m-14 -1143 c-59 -730
-158 -1085 -337 -1203 -96 -64 -208 -63 -351 3 -221 102 -422 307 -560 570
-47 90 -53 109 -42 120 8 7 226 139 484 293 259 153 547 325 640 380 l170 102
3 -63 c2 -34 -1 -125 -7 -202z"/>
<path d="M42375 18271 c-16 -4 -29 -11 -29 -17 1 -5 10 -69 19 -142 l18 -133
46 6 c71 10 69 8 60 67 -4 29 -13 92 -19 141 -13 96 -14 96 -95 78z"/>
<path d="M39364 13418 c-79 -159 -205 -351 -323 -493 -36 -43 -324 -380 -638
-748 -389 -453 -573 -676 -573 -691 0 -12 6 -30 13 -39 6 -9 84 -57 172 -108
88 -50 243 -140 345 -199 102 -59 378 -219 614 -355 l430 -248 35 19 36 19 2
725 c1 751 7 1105 23 1515 19 456 24 543 36 586 3 12 -13 27 -60 53 -35 20
-67 36 -70 36 -3 0 -22 -33 -42 -72z m-12 -1903 c-1 -516 -6 -785 -12 -785 -6
0 -75 37 -153 83 -79 45 -373 215 -654 377 l-511 295 32 21 c17 11 137 85 266
164 129 79 312 191 405 248 94 57 215 132 270 165 55 34 156 96 225 139 69 42
127 77 130 78 3 0 4 -353 2 -785z"/>
<path d="M36336 12699 c-168 -28 -269 -103 -269 -200 0 -72 56 -129 169 -171
51 -20 78 -23 209 -23 133 0 156 3 208 24 158 63 209 171 126 266 -76 86 -274
133 -443 104z m266 -129 c36 -11 75 -31 88 -45 23 -24 23 -25 5 -45 -28 -31
-122 -61 -211 -67 -45 -3 -88 -3 -96 -1 -11 5 -12 21 -4 92 l9 86 73 0 c43 0
97 -8 136 -20z"/>
<path d="M7355 20769 c-186 -25 -376 -103 -497 -203 -250 -207 -384 -546 -433
-1092 -40 -449 0 -919 106 -1243 175 -536 576 -805 1122 -753 274 26 469 112
628 278 200 210 312 509 360 959 19 178 16 667 -5 835 -56 460 -186 767 -414
981 -123 116 -275 192 -457 229 -72 15 -328 21 -410 9z m324 -578 c182 -94
257 -303 291 -809 13 -205 12 -350 -5 -572 -16 -217 -27 -292 -60 -417 -44
-167 -117 -277 -220 -331 -45 -24 -61 -27 -155 -27 -91 0 -111 3 -150 23 -150
78 -217 227 -266 587 -28 204 -26 773 4 986 50 354 133 513 301 576 57 21 205
12 260 -16z"/>
<path d="M5163 20718 c-13 -16 -45 -63 -554 -813 -227 -335 -511 -754 -631
-930 l-218 -320 0 -237 0 -238 685 0 685 0 0 -330 0 -330 335 0 335 0 0 330 0
330 195 0 195 0 -2 268 -3 267 -135 0 c-74 0 -161 1 -192 3 l-58 2 0 1005 0
1005 -314 0 c-239 0 -316 -3 -323 -12z m-14 -918 c-5 -80 -12 -356 -15 -615
l-7 -470 -369 1 c-202 0 -371 3 -373 6 -3 3 131 212 298 464 313 473 400 613
443 710 14 31 26 55 28 53 2 -2 0 -69 -5 -149z"/>
<path d="M10040 20355 c-140 -206 -309 -455 -375 -553 -66 -97 -268 -394 -448
-659 l-327 -482 0 -241 0 -240 685 0 685 0 0 -330 0 -330 335 0 335 0 0 330 0
330 190 0 190 0 -2 268 -3 267 -182 0 c-100 1 -184 3 -187 6 -3 3 -6 455 -8
1004 l-3 1000 -315 3 -316 2 -254 -375z m230 -601 c-5 -98 -10 -371 -10 -605
l0 -426 -262 -5 c-145 -2 -315 -2 -380 1 l-116 6 322 487 c181 273 350 539
385 608 35 67 65 120 67 117 2 -2 0 -84 -6 -183z"/>
<path d="M25590 18897 c-30 -18 -55 -37 -54 -43 1 -14 105 -74 129 -74 25 0
129 61 128 75 -1 14 -104 74 -128 75 -11 0 -45 -15 -75 -33z"/>
<path d="M25854 18760 c-83 -48 -83 -52 -13 -94 33 -20 68 -36 77 -36 21 1
124 62 129 77 4 10 -115 83 -134 83 -4 0 -31 -14 -59 -30z"/>
<path d="M26078 18614 c-32 -19 -58 -39 -58 -44 0 -4 30 -25 67 -46 l67 -37
54 29 c29 16 60 36 68 46 14 15 10 19 -49 52 -35 20 -70 36 -78 35 -8 0 -40
-16 -71 -35z"/>
<path d="M25590 18606 c-30 -18 -55 -37 -54 -42 1 -14 106 -74 130 -74 28 0
135 61 131 75 -6 16 -110 75 -132 75 -11 -1 -45 -16 -75 -34z"/>
<path d="M25854 18482 c-80 -44 -87 -49 -80 -60 10 -16 111 -72 131 -72 26 0
126 63 123 78 -2 8 -30 29 -63 48 l-61 34 -50 -28z"/>
<path d="M26344 18482 c-80 -44 -87 -49 -80 -60 9 -16 111 -72 129 -72 9 0 44
16 78 36 70 41 70 42 -21 93 l-56 31 -50 -28z"/>
<path d="M26073 18334 c-35 -19 -63 -39 -63 -43 0 -11 16 -23 78 -57 l52 -29
65 35 c41 22 64 41 63 50 -3 12 -109 80 -127 80 -3 0 -34 -16 -68 -36z"/>
<path d="M26560 18335 c-30 -19 -55 -40 -55 -46 0 -15 102 -79 125 -79 20 0
122 62 127 77 4 12 -108 83 -130 83 -7 0 -37 -16 -67 -35z"/>
<path d="M26303 18187 c-29 -17 -53 -36 -53 -43 0 -16 103 -74 131 -74 25 0
129 60 129 75 0 14 -113 75 -136 74 -11 0 -43 -15 -71 -32z"/>
<path d="M23235 17877 c-42 -14 -653 -385 -694 -421 -33 -30 -65 -83 -85 -142
-15 -46 -16 -142 -14 -1140 l3 -1089 24 -70 c52 -156 141 -303 247 -409 69
-69 101 -92 257 -181 65 -37 125 -78 133 -91 9 -12 22 -56 31 -96 39 -191 137
-384 268 -527 22 -24 73 -71 113 -103 66 -53 78 -58 121 -58 31 0 57 6 72 18
37 28 356 212 368 212 6 0 145 -78 308 -172 360 -208 411 -235 486 -250 104
-20 130 -9 484 208 340 209 392 250 428 340 19 48 20 76 23 1104 3 1171 5
1131 -63 1298 -53 131 -118 227 -224 332 -90 89 -112 104 -326 226 -245 140
-762 438 -1394 804 -146 84 -292 166 -327 182 -74 35 -177 45 -239 25z m201
-149 c24 -12 44 -24 44 -27 0 -4 -103 -70 -229 -149 l-229 -142 -69 40 c-39
22 -75 40 -82 40 -6 0 -11 3 -11 8 1 8 383 244 414 254 34 11 113 -1 162 -24z
m547 -317 c558 -321 870 -501 1130 -650 165 -94 259 -154 303 -194 35 -32 64
-64 64 -70 0 -7 -53 -43 -118 -82 -64 -38 -172 -101 -238 -141 l-122 -72 -53
55 c-80 81 -115 104 -469 308 -179 104 -451 261 -605 350 -154 89 -380 220
-502 290 -123 71 -221 130 -219 132 14 14 444 282 454 282 7 1 175 -93 375
-208z m-1158 -44 c28 -13 111 -59 185 -102 144 -84 363 -210 1214 -700 484
-279 546 -317 611 -380 109 -105 190 -244 232 -396 17 -59 18 -139 18 -1114
l0 -1050 -25 -49 c-35 -69 -65 -89 -134 -88 -70 0 -77 5 -711 372 -417 242
-476 273 -522 278 -48 4 -55 2 -83 -26 -29 -30 -30 -32 -29 -129 0 -54 8 -140
18 -190 10 -51 15 -93 11 -93 -4 0 -40 35 -82 78 -137 141 -216 287 -263 488
-40 166 -40 166 -310 322 -38 22 -92 59 -118 83 -108 95 -208 262 -247 414
-19 76 -20 109 -20 1122 0 919 2 1048 15 1081 18 42 51 80 80 92 38 16 109 10
160 -13z m2778 -1064 c19 -43 42 -101 51 -130 l14 -52 -227 -135 c-125 -74
-232 -136 -239 -138 -7 -2 -22 24 -36 64 -13 38 -38 93 -56 124 -17 31 -28 60
-23 64 13 12 467 280 474 280 3 0 22 -35 42 -77z m95 -494 c-3 -8 -422 -269
-433 -269 -2 0 -12 15 -23 34 l-20 34 221 135 222 135 18 -29 c10 -16 17 -34
15 -40z m-25 -1701 c15 -26 16 -34 5 -43 -19 -18 -416 -255 -426 -255 -10 0
-32 45 -32 63 1 10 414 267 430 267 3 0 13 -14 23 -32z"/>
<path d="M4694 16389 c-109 -10 -241 -43 -341 -83 -239 -98 -453 -318 -552
-568 -40 -100 -78 -250 -92 -363 -12 -102 -15 -412 -5 -495 29 -214 96 -402
198 -553 113 -166 328 -328 527 -396 214 -73 463 -96 777 -71 209 17 385 60
552 135 l62 28 0 263 0 264 -57 -26 c-251 -112 -489 -165 -748 -166 -234 0
-353 39 -468 156 -89 90 -146 220 -163 374 l-7 62 792 0 791 0 0 205 c0 236
-11 358 -46 494 -25 100 -91 249 -145 327 -49 71 -157 181 -225 230 -209 149
-517 216 -850 183z m368 -516 c84 -40 156 -106 197 -182 32 -61 61 -174 61
-241 l0 -38 -379 -3 c-209 -2 -418 -2 -464 -1 l-83 4 8 61 c12 91 26 135 65
210 42 79 92 134 159 173 75 44 126 54 254 51 105 -3 121 -6 182 -34z"/>
<path d="M7755 16391 c-231 -37 -445 -181 -581 -390 -64 -99 -60 -107 -144
257 l-22 92 -259 0 -259 0 2 -1227 3 -1228 337 -3 337 -3 4 698 c3 616 5 704
20 753 50 165 145 280 289 349 119 57 216 74 391 69 78 -3 149 -7 157 -9 15
-4 24 71 50 441 6 85 13 162 16 171 3 12 -4 18 -26 22 -53 11 -264 16 -315 8z"/>
<path d="M9785 16390 c-151 -24 -301 -100 -424 -215 -63 -58 -166 -185 -176
-215 -3 -11 -14 -20 -23 -20 -16 0 -50 123 -109 388 l-5 22 -259 0 -259 0 2
-1227 3 -1228 335 0 335 0 5 700 c6 773 3 732 72 870 67 132 229 246 400 280
84 16 299 20 360 6 43 -10 44 -9 53 129 6 96 15 208 20 260 2 19 7 80 10 136
l7 101 -32 7 c-59 11 -254 15 -315 6z"/>
<path d="M11452 16389 c-300 -29 -530 -134 -710 -324 -177 -187 -270 -405
-307 -722 -46 -396 29 -758 216 -1034 83 -124 251 -266 404 -342 64 -32 221
-83 305 -99 100 -19 425 -16 532 5 238 47 423 141 572 290 231 231 340 540
339 962 0 273 -42 472 -138 665 -147 292 -387 486 -703 566 -155 39 -329 51
-510 33z m296 -554 c126 -30 221 -104 277 -215 59 -120 85 -268 85 -494 0
-381 -82 -592 -263 -681 -119 -58 -308 -64 -442 -14 -77 29 -160 112 -203 202
-82 174 -112 452 -76 708 49 355 191 505 479 508 44 0 108 -6 143 -14z"/>
<path d="M14602 16389 c-205 -31 -397 -154 -539 -343 -42 -56 -81 -102 -88
-104 -11 -3 -55 159 -96 351 l-12 57 -259 0 -258 0 0 -1228 0 -1228 338 0 337
1 5 705 c5 695 6 706 27 771 42 122 136 238 247 303 24 14 79 38 122 53 76 26
87 27 276 28 l197 0 5 45 c10 84 16 155 26 295 5 77 13 172 16 211 l7 71 -33
7 c-60 12 -254 15 -318 5z"/>
<path d="M28010 15634 c-30 -18 -55 -39 -55 -46 0 -6 30 -28 66 -47 l66 -35
59 35 c32 19 59 41 59 49 0 15 -102 79 -125 79 -8 0 -40 -16 -70 -35z"/>
<path d="M28248 15497 c-32 -18 -58 -37 -58 -44 0 -6 29 -28 65 -48 l66 -36
62 34 c34 18 63 40 65 48 3 15 -104 79 -129 79 -8 -1 -40 -15 -71 -33z"/>
<path d="M27993 15349 c-29 -17 -53 -36 -53 -43 0 -7 29 -28 65 -47 l65 -34
65 35 c36 19 65 40 65 47 0 16 -102 73 -131 73 -13 0 -48 -14 -76 -31z"/>
<path d="M28495 15350 c-27 -16 -50 -35 -50 -42 0 -14 103 -78 127 -78 23 0
128 63 128 77 0 16 -102 73 -131 72 -13 0 -46 -13 -74 -29z"/>
<path d="M28740 15215 c-30 -19 -55 -39 -55 -46 0 -14 102 -78 125 -78 20 0
122 61 127 76 4 12 -106 83 -128 83 -8 0 -39 -16 -69 -35z"/>
<path d="M28251 15207 c-30 -18 -56 -37 -58 -44 -5 -14 98 -73 128 -73 30 0
129 56 129 73 0 13 -109 77 -131 77 -8 0 -38 -15 -68 -33z"/>
<path d="M28978 15077 c-32 -17 -58 -37 -58 -44 0 -11 76 -62 113 -76 22 -8
150 59 144 76 -5 15 -108 77 -127 77 -8 0 -41 -15 -72 -33z"/>
<path d="M28483 15067 c-29 -17 -53 -36 -53 -42 0 -14 106 -75 130 -75 24 0
130 61 130 75 0 15 -108 75 -133 74 -12 0 -46 -15 -74 -32z"/>
<path d="M26965 14994 c-216 -23 -469 -145 -545 -264 -76 -118 -122 -307 -123
-505 -1 -125 1 -150 26 -235 28 -98 74 -218 89 -235 18 -20 5 -35 -69 -78 -78
-45 -111 -73 -132 -114 -7 -14 -11 -108 -11 -278 0 -288 2 -297 70 -359 21
-19 65 -49 99 -68 33 -18 61 -36 61 -39 0 -3 -54 -178 -121 -390 -244 -776
-281 -896 -309 -984 -15 -49 -43 -135 -60 -190 l-32 -99 21 -16 c11 -8 30 -22
43 -31 l23 -16 -26 -79 c-14 -44 -61 -190 -105 -326 l-78 -248 -44 -12 -43
-13 -39 -120 c-45 -143 -128 -407 -200 -635 -28 -91 -55 -176 -60 -190 -21
-59 -270 -858 -270 -866 0 -4 12 -18 27 -30 l27 -21 -65 -204 -65 -204 -76
-40 c-59 -30 -77 -45 -81 -65 -3 -14 -33 -112 -67 -218 -34 -106 -60 -195 -58
-196 1 -1 24 -15 50 -29 26 -15 45 -33 43 -40 -2 -6 -22 -68 -43 -137 -22 -69
-67 -210 -101 -315 -33 -104 -94 -296 -135 -425 -41 -129 -74 -235 -73 -236 1
-1 112 -67 247 -146 135 -80 298 -177 363 -216 l117 -70 141 81 c78 45 147 91
154 102 7 11 70 200 140 420 70 220 129 402 131 404 1 1 468 -268 1036 -600
568 -332 1436 -838 1928 -1125 492 -287 896 -527 898 -532 2 -6 -42 -152 -97
-324 -216 -678 -239 -754 -243 -775 -3 -20 41 -48 359 -237 l362 -214 148 87
148 87 192 599 c105 330 217 681 248 780 91 287 148 463 228 715 42 129 107
336 147 460 39 124 77 243 85 265 7 22 41 128 75 235 34 107 98 308 142 445
44 138 97 304 118 370 21 66 69 215 106 330 37 116 69 220 72 233 2 13 10 21
17 18 10 -3 1086 -620 1355 -776 l55 -32 230 -456 230 -457 165 -97 c91 -53
240 -141 332 -195 93 -54 171 -106 174 -116 7 -23 23 -18 116 37 40 24 110 64
156 90 45 27 82 52 82 56 0 8 -494 988 -1085 2155 -428 845 -945 1872 -945
1877 0 3 29 24 64 47 103 66 106 76 106 375 0 271 -1 278 -64 344 -17 19 -59
49 -93 69 -35 19 -65 38 -68 42 -2 5 18 53 45 107 77 154 103 254 103 399 0
102 -4 134 -27 209 -91 302 -311 573 -530 655 -152 57 -359 67 -518 27 -180
-46 -362 -148 -417 -235 -40 -61 -85 -184 -107 -292 -27 -128 -25 -330 4 -439
19 -68 64 -192 98 -266 3 -7 -32 -34 -81 -64 -52 -32 -95 -66 -110 -88 -24
-35 -25 -44 -25 -170 0 -113 -2 -133 -14 -129 -13 5 -398 225 -996 570 -124
71 -470 270 -770 442 -300 172 -677 389 -838 482 l-293 169 -137 268 c-94 185
-133 271 -124 274 23 7 95 66 116 95 20 27 21 43 24 296 l3 267 -33 50 c-30
45 -56 64 -187 142 -12 7 -7 22 26 83 57 103 100 233 114 340 25 193 -34 399
-176 620 -86 132 -237 271 -351 319 -106 46 -304 76 -419 64z m270 -134 c86
-22 150 -51 195 -88 l33 -28 -114 -71 -114 -70 -60 56 c-33 31 -86 73 -117 94
-63 42 -175 97 -197 97 -38 0 7 14 81 24 101 15 198 10 293 -14z m-367 -133
c270 -112 518 -429 619 -792 24 -85 28 -119 28 -230 0 -112 -3 -138 -23 -191
-46 -122 -115 -174 -227 -174 l-67 0 41 46 c69 78 85 136 84 294 0 115 -4 148
-26 221 -106 351 -373 642 -632 687 -56 9 -96 6 -167 -13 -34 -9 -34 -6 -4 53
28 55 68 95 116 117 53 24 178 15 258 -18z m730 -119 c57 -74 118 -181 148
-261 23 -61 25 -70 11 -90 -16 -25 -178 -187 -187 -187 -3 0 -20 37 -38 83
-35 90 -112 225 -173 306 -21 28 -39 55 -39 59 0 7 219 142 231 142 4 0 25
-24 47 -52z m-901 -143 c111 -33 260 -162 358 -310 181 -271 216 -594 79 -715
-154 -135 -485 83 -645 425 -56 119 -79 218 -79 335 0 103 13 159 51 211 45
64 134 84 236 54z m17 -1059 c129 -92 264 -146 436 -172 109 -17 181 -13 251
14 40 16 179 124 234 183 l49 52 65 -34 c73 -38 131 -91 131 -118 0 -33 -5
-36 -417 -273 -141 -81 -225 -94 -359 -53 -62 18 -724 402 -761 441 -55 57
-47 74 71 142 l70 41 84 -90 c47 -50 112 -110 146 -133z m-219 -191 c477 -279
550 -318 618 -330 l37 -7 0 -159 0 -158 -47 16 c-27 9 -118 57 -203 106 -85
49 -244 141 -352 204 -109 63 -207 126 -218 140 -18 23 -20 40 -20 160 l0 135
48 -27 c26 -15 88 -51 137 -80z m1276 -497 c11 -20 24 -11 -195 -137 -151 -88
-234 -121 -298 -121 -26 0 -28 3 -28 38 l0 38 60 12 c59 11 88 25 320 160 113
66 110 66 141 10z m-1162 1 c39 -22 73 -44 76 -48 4 -8 -193 -86 -200 -79 -3
3 46 168 51 168 1 0 34 -18 73 -41z m313 -178 c99 -59 178 -86 273 -96 67 -6
81 -13 305 -142 129 -74 239 -138 243 -142 4 -4 -97 -45 -225 -90 -128 -46
-350 -125 -493 -176 -462 -166 -856 -305 -861 -305 -3 0 -3 4 1 9 3 5 18 52
34 103 16 51 66 210 111 353 45 143 91 290 102 326 l20 66 187 71 c102 38 193
71 203 71 9 1 54 -21 100 -48z m900 -131 l146 -85 -15 -26 -15 -26 -192 110
c-105 60 -202 116 -215 124 l-23 15 28 18 c33 20 7 32 286 -130z m4190 -314
c40 -8 97 -24 127 -35 69 -28 146 -80 134 -92 -5 -5 -56 -38 -113 -73 l-103
-63 -86 74 c-59 51 -119 90 -193 127 l-106 53 51 10 c78 15 206 15 289 -1z
m-3788 -215 c230 -132 334 -196 324 -202 -14 -8 -111 -44 -1158 -434 -305
-113 -620 -231 -700 -261 -80 -31 -152 -56 -160 -56 -8 -1 -121 61 -251 137
l-236 138 38 118 c20 65 40 122 43 128 4 6 21 15 39 20 18 5 89 30 160 55 215
78 378 136 477 170 52 19 151 54 220 79 69 25 267 95 440 157 173 61 338 120
365 130 28 10 53 18 56 17 3 -1 157 -89 343 -196z m3407 93 c287 -84 576 -434
680 -825 33 -121 33 -329 1 -410 -25 -62 -80 -132 -121 -153 -33 -17 -123 -30
-151 -21 -20 6 -19 9 16 47 240 266 -16 946 -436 1158 -96 49 -216 63 -293 36
-37 -13 -37 -13 -31 8 44 144 175 207 335 160z m797 -156 c54 -72 122 -198
148 -272 13 -35 12 -42 -2 -65 -22 -34 -171 -181 -183 -181 -5 0 -15 17 -22
38 -22 67 -98 209 -165 308 -53 79 -63 99 -52 110 14 13 210 133 218 134 3 0
29 -33 58 -72z m-851 -153 c241 -119 456 -474 457 -755 1 -136 -32 -215 -108
-261 -37 -23 -131 -25 -189 -5 -160 57 -349 259 -437 464 -97 229 -99 452 -4
547 66 66 161 69 281 10z m-2466 -291 c225 -130 409 -238 407 -239 -2 -2 -138
-51 -303 -110 -165 -59 -354 -127 -420 -150 -66 -24 -293 -105 -505 -180 -212
-75 -448 -160 -525 -187 -77 -27 -165 -59 -196 -69 l-56 -20 -109 26 c-116 27
-80 8 -686 363 l-68 39 188 71 c103 39 322 121 487 182 485 180 741 276 1060
396 165 62 303 113 308 113 4 1 192 -105 418 -235z m867 -500 c386 -222 358
-205 340 -215 -8 -4 -93 -37 -189 -73 -96 -35 -422 -157 -725 -269 l-550 -206
-275 63 c-387 89 -756 175 -808 188 l-44 11 89 33 c49 18 379 136 734 262 355
127 746 266 870 311 124 44 231 78 238 76 7 -3 151 -84 320 -181z m-3796 118
c46 -27 171 -100 278 -162 107 -62 197 -114 198 -116 4 -2 -52 -182 -150 -482
l-39 -122 -57 32 c-32 18 -159 91 -284 163 l-226 129 13 41 c37 119 180 565
181 565 2 0 40 -22 86 -48z m5252 -275 c151 -145 330 -229 545 -257 100 -13
184 -7 241 16 47 20 132 85 216 166 l71 69 71 -41 c70 -40 122 -89 122 -114 0
-24 -56 -63 -235 -166 -297 -171 -297 -171 -378 -177 -123 -9 -159 5 -528 218
-387 222 -417 241 -425 274 -10 39 0 51 88 103 l83 50 34 -42 c19 -22 62 -67
95 -99z m-691 -286 c257 -147 269 -155 291 -200 26 -50 59 -84 120 -125 l38
-26 -28 -11 c-16 -6 -130 -46 -254 -90 -124 -44 -307 -110 -407 -145 l-182
-65 -153 35 c-855 196 -1076 248 -1092 254 -21 9 -25 8 434 177 146 55 418
156 605 227 187 70 345 126 350 125 6 -1 131 -71 278 -156z m-3715 64 l82 -47
-36 -40 c-59 -65 -67 -96 -100 -393 -9 -80 -23 -167 -28 -172 -3 -3 -189 99
-203 111 -2 2 6 29 17 62 10 32 53 166 95 297 42 131 79 236 83 234 4 -3 44
-26 90 -52z m4296 -59 c100 -57 254 -147 344 -199 89 -52 188 -102 220 -112
31 -9 63 -18 70 -21 9 -2 12 -43 12 -159 l0 -156 -22 7 c-55 16 -107 44 -420
224 -190 109 -347 206 -365 226 l-33 34 0 130 c0 71 3 130 6 130 4 0 88 -47
188 -104z m-3856 -122 c108 -25 301 -70 427 -99 414 -96 1186 -275 1380 -320
187 -43 862 -200 981 -228 75 -18 95 -28 128 -67 45 -54 48 -88 25 -260 -11
-85 -22 -168 -25 -185 -2 -16 -16 -115 -29 -220 -14 -104 -37 -271 -50 -370
-13 -99 -36 -268 -50 -375 -14 -107 -28 -206 -30 -220 -2 -14 -14 -99 -26
-190 -24 -189 -35 -222 -81 -250 -51 -31 -6 -39 -573 99 -115 28 -480 116
-810 196 -1914 464 -1752 423 -1790 461 -41 41 -58 98 -50 167 4 29 15 120 25
203 11 83 22 176 25 205 3 30 10 83 15 119 9 57 18 129 35 282 3 24 10 77 15
118 6 41 20 149 31 240 36 296 68 554 74 605 11 85 54 134 118 135 21 0 126
-21 235 -46z m-1572 -101 l116 -66 -88 -34 c-219 -83 -227 -85 -222 -66 12 43
73 233 75 233 2 0 55 -30 119 -67z m514 -289 c140 -80 315 -180 387 -222 115
-66 132 -79 127 -97 -4 -11 -8 -22 -10 -24 -7 -8 -1506 -541 -1521 -541 -9 0
141 495 230 759 l32 94 235 88 c129 49 242 88 250 89 9 0 130 -66 270 -146z
m5134 -46 c223 -129 291 -166 343 -184 l32 -12 -18 -57 c-13 -40 -26 -62 -42
-70 -13 -7 -134 -54 -269 -103 -135 -50 -437 -163 -672 -250 -395 -147 -428
-158 -428 -138 0 12 9 84 20 161 41 283 36 360 -27 436 -14 16 -23 32 -20 35
9 9 832 302 851 303 11 1 114 -54 230 -121z m1035 86 c12 -20 21 -38 19 -39
-2 -1 -83 -48 -181 -105 -182 -105 -242 -130 -309 -130 -38 0 -38 0 -38 39 l0
38 49 6 c63 8 85 18 276 131 88 52 161 95 162 95 0 1 11 -15 22 -35z m361
-1529 c238 -473 441 -875 451 -892 10 -18 15 -33 11 -33 -4 1 -108 58 -232
129 l-225 128 -73 139 c-40 76 -206 404 -369 727 l-296 589 64 202 64 203 86
-166 c47 -91 280 -553 519 -1026z m-6040 1002 c0 -39 -82 -663 -88 -669 -4 -4
-110 -45 -237 -92 -126 -46 -356 -131 -510 -189 -154 -57 -290 -108 -303 -112
-18 -5 -71 21 -260 131 -130 75 -238 138 -239 138 -1 1 16 58 38 127 l39 126
143 51 c78 28 396 142 707 252 311 111 594 212 630 225 77 28 80 29 80 12z
m4908 -109 c-16 -51 -56 -176 -88 -278 -32 -102 -75 -237 -96 -300 -20 -63
-41 -131 -47 -152 l-11 -36 -298 -106 -298 -107 -268 157 c-147 86 -268 157
-269 158 -1 1 6 57 15 124 l17 123 210 79 c116 43 415 155 665 248 250 93 462
172 470 175 8 3 18 6 21 6 4 1 -7 -41 -23 -91z m647 -854 c163 -322 295 -587
293 -589 -1 -2 -183 100 -403 226 -220 126 -404 230 -409 232 -4 1 22 97 59
212 36 116 87 276 113 358 25 81 47 147 48 147 1 0 136 -264 299 -586z m-5664
54 c-20 -147 -10 -210 46 -290 46 -67 99 -93 274 -134 87 -21 159 -41 159 -44
0 -5 -57 -26 -388 -144 -118 -42 -220 -76 -227 -76 -12 0 -465 259 -704 403
l-84 50 69 25 c38 14 247 92 464 173 314 118 396 145 398 133 2 -9 -1 -52 -7
-96z m3824 -121 c132 -78 180 -111 179 -124 -1 -10 -20 -76 -44 -148 -23 -71
-61 -191 -85 -265 -30 -94 -47 -134 -56 -132 -8 2 -74 38 -146 79 l-133 75 5
37 c10 66 44 324 62 459 10 85 20 131 27 129 6 -3 92 -52 191 -110z m-5218 30
c60 -35 185 -108 278 -162 94 -54 172 -99 173 -101 2 -1 -24 -88 -58 -193 -61
-190 -61 -191 -84 -179 -170 93 -536 316 -536 326 0 14 112 372 117 372 2 0
51 -29 110 -63z m6120 -24 c-3 -5 -28 -81 -56 -171 -29 -89 -55 -161 -59 -159
-118 63 -311 182 -305 187 10 10 393 149 411 149 7 1 11 -2 9 -6z m-341 -331
c188 -109 266 -150 281 -146 23 6 19 -9 -131 -468 l-41 -127 -180 105 c-99 57
-226 130 -282 161 -87 49 -102 61 -97 78 7 23 126 401 156 493 11 34 23 60 26
58 4 -2 124 -71 268 -154z m1426 -394 l740 -423 65 -129 c35 -70 63 -130 61
-131 -3 -4 -68 33 -938 533 -245 141 -506 290 -580 332 -74 43 -136 82 -138
88 -4 12 36 152 44 152 3 0 338 -190 746 -422z m-6142 127 c162 -94 651 -379
1085 -632 435 -253 1121 -653 1525 -888 404 -235 777 -452 828 -482 50 -30 92
-58 92 -63 0 -5 -4 -19 -9 -32 -6 -13 -31 -90 -57 -173 -26 -82 -50 -153 -53
-157 -4 -4 -47 16 -96 46 -50 29 -247 145 -440 257 -403 234 -2346 1365 -2480
1444 -116 68 -407 238 -658 383 -109 63 -196 120 -194 126 2 6 30 91 61 189
56 173 57 177 79 165 12 -6 155 -89 317 -183z m1280 133 c113 -27 304 -73 425
-103 121 -29 262 -63 314 -75 66 -16 90 -25 79 -31 -24 -13 -1041 -392 -1055
-392 -12 0 -712 405 -713 413 0 3 62 27 138 53 75 27 229 82 342 122 150 54
213 73 235 68 17 -3 122 -27 235 -55z m-2258 -289 c821 -479 1481 -863 2023
-1179 286 -166 561 -326 610 -355 171 -101 1581 -921 1907 -1111 202 -116 327
-195 327 -204 0 -27 -75 -255 -82 -253 -13 2 -5331 3105 -5345 3118 -11 10 -7
33 23 131 38 121 43 134 50 134 3 0 222 -127 487 -281z m3473 -3 c83 -20 233
-56 335 -81 517 -126 611 -149 680 -164 56 -13 69 -19 55 -25 -11 -4 -90 -32
-175 -63 -563 -200 -1212 -431 -1303 -464 -60 -21 -115 -39 -123 -39 -8 0
-184 99 -392 220 -207 121 -381 222 -387 224 -5 2 -8 5 -5 8 14 13 1137 426
1150 423 8 -2 83 -20 165 -39z m1468 -46 c42 -24 77 -46 77 -50 0 -5 -258
-100 -272 -100 -4 0 4 16 17 36 25 37 39 79 50 147 6 37 7 38 28 25 12 -8 57
-34 100 -58z m-5165 -265 c149 -87 272 -163 272 -169 0 -6 -22 -81 -49 -166
-178 -560 -264 -826 -271 -834 -9 -9 -560 311 -560 325 0 5 66 214 146 466 81
252 151 474 156 493 12 42 17 51 26 47 4 -2 130 -75 280 -162z m5643 -7 c136
-79 249 -147 249 -153 0 -5 -12 -49 -26 -96 l-26 -86 -112 -41 c-61 -22 -275
-102 -476 -177 -201 -75 -399 -149 -440 -164 -41 -15 -241 -89 -444 -165
l-369 -138 -32 19 c-17 10 -178 104 -357 208 -179 105 -325 191 -324 192 1 1
58 22 126 46 69 25 197 70 285 102 452 161 372 132 1185 423 261 94 483 171
493 171 11 1 131 -63 268 -141z m2727 -114 c46 -92 82 -167 80 -169 -10 -8
-50 -26 -53 -23 -8 9 -166 330 -163 333 8 6 44 24 48 25 3 0 43 -75 88 -166z
m-126 -378 l116 -66 59 34 c32 19 61 31 64 28 4 -4 111 -213 239 -465 l232
-459 -38 21 c-22 11 -129 74 -239 139 l-200 118 -183 363 c-101 200 -180 361
-175 358 4 -2 61 -34 125 -71z m-2452 8 c0 -4 -14 -50 -31 -103 -60 -187 -221
-696 -228 -720 -6 -22 -40 -36 -296 -128 -160 -57 -296 -103 -304 -103 -15 0
-780 441 -781 450 0 3 33 17 73 32 39 15 205 76 367 136 766 285 982 366 1075
402 100 39 125 46 125 34z m-373 -1171 l-52 -162 -155 91 c-85 49 -158 93
-162 96 -4 4 88 41 205 82 117 42 213 71 214 65 2 -5 -21 -83 -50 -172z m-342
-123 c110 -64 227 -132 260 -150 33 -18 61 -34 62 -35 2 -1 -117 -378 -121
-383 -2 -1 -533 303 -564 323 -1 1 18 67 43 146 26 79 53 165 61 191 15 45 17
47 37 36 12 -6 112 -64 222 -128z m236 -690 c14 -8 17 -15 11 -28 -5 -9 -31
-82 -57 -162 -27 -80 -51 -149 -55 -153 -4 -4 -18 -3 -32 4 l-26 11 57 169
c34 104 61 169 69 169 7 0 22 -5 33 -10z m-531 -315 c113 -65 217 -126 232
-137 22 -15 32 -17 49 -8 11 7 23 9 26 7 4 -5 -33 -129 -152 -497 -24 -74 -73
-229 -110 -343 -55 -173 -69 -208 -83 -202 -15 5 -432 250 -514 302 -35 21
-37 25 -27 50 6 16 28 82 49 148 138 434 250 784 260 810 l10 26 28 -19 c15
-10 119 -72 232 -137z"/>
<path d="M26705 14190 c-38 -22 -74 -41 -78 -42 -8 -3 40 -98 50 -98 4 0 149
76 161 85 4 4 -50 95 -56 95 -4 0 -38 -18 -77 -40z"/>
<path d="M26795 13995 c-88 -52 -164 -96 -169 -98 -9 -3 40 -97 50 -97 7 0
317 180 328 190 6 6 -39 102 -47 100 -1 -1 -74 -43 -162 -95z"/>
<path d="M26829 13753 l-96 -55 25 -47 c14 -25 26 -47 27 -49 2 -2 196 106
204 114 7 7 -44 94 -54 93 -5 0 -53 -26 -106 -56z"/>
<path d="M31585 11451 c-6 -4 -37 -23 -70 -41 -33 -17 -63 -34 -67 -36 -9 -6
31 -84 46 -90 15 -6 146 64 153 82 5 13 -35 94 -47 94 -3 0 -10 -4 -15 -9z"/>
<path d="M31611 11220 c-85 -49 -158 -93 -162 -97 -5 -5 3 -28 17 -51 19 -32
30 -42 42 -37 24 9 312 177 317 185 5 8 -37 83 -50 86 -5 2 -79 -37 -164 -86z"/>
<path d="M31653 10982 l-102 -58 25 -44 c14 -25 27 -46 29 -48 4 -4 205 109
205 116 0 6 -50 92 -53 92 -1 0 -48 -26 -104 -58z"/>
<path d="M27271 10144 c-28 -36 -26 -76 5 -113 53 -63 143 -22 130 58 -12 76
-93 109 -135 55z"/>
<path d="M27422 9553 c-26 -222 -27 -237 -7 -294 33 -92 129 -152 245 -153
122 -1 178 59 196 207 4 35 20 158 38 294 l5 32 -71 16 c-39 9 -73 14 -75 11
-3 -2 -16 -88 -29 -190 -13 -102 -29 -195 -36 -206 -26 -42 -92 -33 -124 16
-17 25 -17 35 5 217 12 106 21 195 21 199 0 8 -49 22 -111 33 l-35 6 -22 -188z"/>
<path d="M27995 9578 c-8 -49 -65 -500 -65 -520 0 -16 13 -22 101 -43 26 -6
26 -6 38 82 7 48 18 135 24 193 l12 105 13 -45 c8 -25 38 -121 67 -215 l54
-170 93 -22 c51 -11 94 -20 95 -20 1 2 43 313 63 475 7 51 10 95 8 97 -3 3
-128 34 -128 31 0 0 -9 -68 -20 -150 -11 -81 -20 -167 -21 -190 -1 -54 -4 -46
-79 191 -57 181 -63 193 -88 199 -15 3 -52 12 -83 20 -76 19 -77 19 -84 -18z"/>
<path d="M30113 9495 c-51 -36 -33 -132 27 -154 58 -20 100 14 100 82 0 68
-73 110 -127 72z"/>
<path d="M28606 9448 c-5 -20 -19 -127 -32 -243 -3 -22 -9 -67 -14 -100 -5
-33 -12 -94 -16 -136 l-6 -75 95 -22 c53 -12 127 -22 164 -22 59 0 76 4 114
28 104 66 149 264 90 397 -21 46 -85 108 -134 129 -28 11 -127 38 -234 61 -17
4 -24 0 -27 -17z m200 -163 c48 -20 68 -70 61 -152 -8 -106 -55 -159 -131
-146 l-38 6 7 46 c3 25 8 60 11 76 19 139 24 171 24 178 0 11 27 8 66 -8z"/>
<path d="M29109 9058 c-20 -156 -35 -285 -33 -287 2 -2 72 -21 156 -41 173
-41 163 -44 169 45 l4 50 -80 20 -80 21 2 43 c1 24 4 46 7 49 5 5 65 -6 132
-24 19 -5 22 0 28 43 4 26 9 55 12 64 4 13 -10 20 -68 34 -40 10 -77 21 -81
25 -5 4 -5 23 -2 42 l7 35 80 -19 c45 -10 82 -17 84 -15 2 2 8 31 12 65 l9 61
-149 36 c-82 19 -154 35 -161 35 -8 0 -23 -88 -48 -282z"/>
<path d="M29546 9203 c-17 -123 -66 -500 -66 -514 0 -12 18 -21 65 -33 35 -9
68 -16 73 -16 5 0 15 45 22 101 17 133 29 130 84 -21 l42 -115 77 -20 c42 -10
79 -16 83 -12 4 3 -16 60 -45 126 -28 66 -54 126 -57 135 -4 9 5 20 24 30 65
33 97 133 68 210 -29 76 -84 110 -242 146 -49 11 -96 23 -105 26 -13 3 -18 -6
-23 -43z m211 -145 c17 -14 17 -59 0 -82 -9 -12 -23 -17 -47 -14 l-35 3 3 50
c4 73 6 77 39 64 15 -5 33 -15 40 -21z"/>
<path d="M27352 8974 c-33 -23 -52 -67 -52 -119 0 -94 55 -142 153 -136 12 1
17 10 17 31 0 27 -3 30 -33 30 -58 0 -84 53 -55 115 12 27 36 32 70 14 18 -9
24 -8 35 7 21 29 16 41 -27 58 -51 20 -79 20 -108 0z"/>
<path d="M27560 8927 c-47 -37 -66 -125 -40 -191 19 -52 118 -84 171 -56 51
28 68 153 27 205 -37 48 -123 70 -158 42z m102 -82 c14 -31 1 -93 -24 -109
-13 -8 -22 -6 -37 8 -23 21 -27 59 -11 100 13 36 56 36 72 1z"/>
<path d="M27790 8883 c0 -5 -5 -38 -10 -75 -25 -171 -25 -167 5 -178 34 -13
35 -12 41 36 15 117 14 117 43 24 26 -84 27 -84 69 -97 33 -9 44 -9 47 0 2 7
10 65 18 129 14 125 14 128 -32 128 -15 0 -20 -13 -28 -72 l-9 -73 -26 80
c-19 58 -32 83 -49 92 -27 14 -69 17 -69 6z"/>
<path d="M28060 8800 c-34 -34 -26 -78 22 -127 23 -23 38 -46 34 -50 -6 -6
-20 -2 -78 22 -15 6 -18 2 -18 -28 0 -31 4 -36 40 -51 22 -9 51 -16 64 -16 33
0 65 29 72 67 5 28 0 38 -41 82 -34 36 -43 51 -31 51 10 0 26 -5 37 -11 15 -7
24 -7 35 2 24 20 16 44 -21 62 -47 23 -91 21 -115 -3z"/>
<path d="M28226 8765 c-8 -32 -1 -45 24 -45 10 0 21 -3 23 -7 4 -7 -2 -65 -17
-165 -4 -24 0 -29 27 -36 41 -12 47 -8 47 30 0 17 5 59 11 93 10 57 12 61 37
60 22 0 28 5 30 26 3 25 -1 27 -82 48 -47 11 -87 21 -90 21 -2 0 -7 -11 -10
-25z"/>
<path d="M28437 8723 c-3 -10 -11 -67 -18 -126 -13 -118 -11 -127 39 -127 19
0 22 5 22 34 0 53 17 52 35 -3 14 -44 20 -50 55 -59 22 -5 40 -6 40 -2 0 4
-11 32 -24 62 l-24 54 25 28 c19 23 23 36 19 59 -9 43 -30 63 -84 77 -26 7
-55 14 -64 16 -10 3 -18 -2 -21 -13z m96 -77 c5 -14 -10 -36 -25 -36 -4 0 -8
11 -8 25 0 27 24 35 33 11z"/>
<path d="M28655 8681 c-8 -14 -18 -189 -11 -215 13 -54 114 -85 163 -51 25 18
38 60 48 154 7 68 1 81 -41 81 -19 0 -22 -9 -32 -81 -14 -94 -24 -114 -54 -98
-19 10 -20 17 -13 82 12 129 13 120 -23 128 -18 3 -34 3 -37 0z"/>
<path d="M28933 8598 c-30 -15 -53 -67 -53 -123 0 -86 47 -135 130 -135 38 0
40 2 40 30 0 26 -4 30 -28 30 -61 0 -87 48 -62 114 7 20 17 26 38 26 15 0 34
-6 41 -12 10 -11 16 -8 31 12 22 29 18 38 -26 56 -39 16 -80 17 -111 2z"/>
<path d="M29094 8554 c-7 -28 7 -44 38 -44 13 0 16 -7 12 -32 -25 -172 -24
-178 23 -178 24 0 29 11 38 85 13 104 13 105 46 98 27 -5 29 -3 29 25 0 28 -4
32 -42 42 -24 6 -59 15 -78 21 -52 13 -59 12 -66 -17z"/>
<path d="M27076 8519 c-20 -16 -26 -29 -26 -58 0 -56 31 -91 80 -91 47 0 70
27 70 81 0 29 -7 43 -31 63 -37 31 -58 33 -93 5z"/>
<path d="M29306 8503 c-11 -60 -29 -223 -24 -228 2 -3 18 -8 35 -11 l31 -6 7
63 c4 35 9 71 10 79 1 8 6 38 10 66 6 48 5 52 -17 58 -39 10 -46 7 -52 -21z"/>
<path d="M29453 8479 c-32 -17 -53 -69 -53 -134 0 -51 3 -60 33 -90 60 -60
151 -56 184 9 22 42 22 126 0 159 -35 53 -115 80 -164 56z m95 -71 c28 -28 3
-128 -33 -128 -29 0 -47 32 -42 72 8 61 44 87 75 56z"/>
<path d="M29671 8333 c-7 -60 -15 -117 -18 -129 -4 -17 1 -22 28 -28 18 -3 33
-5 35 -4 1 2 5 35 9 73 4 39 9 72 10 74 2 1 16 -36 30 -83 26 -85 26 -86 67
-96 22 -6 42 -9 45 -6 3 3 13 58 23 123 15 106 15 119 1 131 -32 26 -49 15
-56 -35 -13 -103 -16 -104 -43 -16 -24 79 -27 83 -61 93 -20 5 -41 10 -47 10
-7 0 -16 -43 -23 -107z"/>
<path d="M29885 7835 c-61 -60 8 -176 88 -146 55 21 64 95 18 142 -36 36 -73
37 -106 4z"/>
<path d="M44235 14965 c-33 -19 -60 -40 -60 -47 0 -14 103 -78 127 -78 28 0
128 64 125 80 -2 12 -110 79 -127 79 -3 0 -32 -15 -65 -34z"/>
<path d="M28740 14939 c-91 -49 -91 -52 -21 -93 34 -20 70 -36 79 -36 20 0
124 61 129 76 3 8 -114 84 -128 84 -2 0 -29 -14 -59 -31z"/>
<path d="M43978 14817 c-32 -18 -58 -37 -58 -44 0 -6 29 -28 65 -48 l66 -36
64 36 c36 20 65 41 65 48 0 15 -105 77 -128 77 -9 -1 -43 -15 -74 -33z"/>
<path d="M28978 14787 c-32 -17 -58 -37 -58 -44 0 -17 99 -73 129 -73 30 0
133 59 128 73 -5 15 -108 77 -127 77 -8 0 -41 -15 -72 -33z"/>
<path d="M43735 14676 c-33 -18 -60 -39 -60 -46 0 -21 113 -83 138 -76 36 9
119 66 115 78 -4 10 -115 78 -128 78 -3 0 -32 -15 -65 -34z"/>
<path d="M44213 14678 c-29 -16 -53 -36 -53 -43 0 -13 109 -75 133 -75 22 0
127 62 127 75 0 16 -105 75 -132 74 -12 0 -47 -14 -75 -31z"/>
<path d="M43967 14537 c-33 -19 -56 -38 -55 -46 3 -15 104 -80 125 -81 21 0
134 71 130 83 -5 15 -107 76 -127 76 -8 0 -41 -14 -73 -32z"/>
<path d="M43473 14527 c-29 -18 -53 -37 -53 -44 0 -14 103 -73 130 -73 27 0
130 59 130 74 0 15 -111 76 -136 75 -11 0 -43 -15 -71 -32z"/>
<path d="M43722 14394 c-34 -20 -62 -41 -62 -47 0 -14 104 -77 127 -77 22 0
133 63 133 75 0 10 -87 66 -121 78 -9 3 -44 -10 -77 -29z"/>
<path d="M43230 14385 c-30 -19 -55 -40 -55 -46 0 -15 103 -79 125 -79 24 1
125 65 125 80 0 13 -110 80 -130 80 -5 0 -35 -16 -65 -35z"/>
<path d="M43468 14247 c-79 -44 -78 -52 19 -102 l53 -27 65 37 c37 20 64 42
62 48 -4 14 -113 77 -131 77 -6 0 -37 -15 -68 -33z"/>
<path d="M42973 14237 c-29 -17 -53 -37 -53 -43 0 -16 104 -74 131 -74 25 0
129 60 129 75 0 14 -112 75 -136 75 -11 -1 -43 -15 -71 -33z"/>
<path d="M43217 14101 c-76 -44 -76 -45 -7 -85 33 -20 69 -36 78 -36 20 0 124
61 129 75 4 14 -103 75 -130 75 -12 0 -44 -13 -70 -29z"/>
<path d="M44815 14026 c-50 -16 -658 -387 -703 -430 -43 -41 -79 -116 -92
-196 -8 -45 -10 -383 -8 -1095 4 -1028 4 -1030 26 -1110 48 -172 177 -379 302
-484 29 -24 113 -80 189 -123 75 -44 143 -89 153 -101 9 -11 19 -37 22 -57 11
-68 57 -213 91 -287 70 -151 196 -309 319 -400 49 -36 65 -43 106 -43 30 0 56
7 71 18 13 10 99 62 192 116 113 67 173 96 185 91 9 -3 159 -88 332 -188 173
-99 341 -192 373 -205 76 -31 149 -37 208 -19 53 16 657 385 707 431 42 39 76
104 91 176 9 41 11 324 9 1100 -3 1044 -3 1045 -25 1123 -50 175 -155 350
-278 465 -74 69 -53 56 -990 597 -115 67 -392 227 -615 356 -223 128 -434 244
-470 256 -72 25 -135 28 -195 9z m161 -134 c101 -42 110 -31 -145 -190 l-230
-143 -80 43 c-44 24 -81 45 -81 48 0 5 311 198 384 238 48 26 95 27 152 4z
m364 -205 c80 -46 316 -182 525 -302 209 -120 529 -304 710 -408 182 -104 354
-207 384 -230 50 -39 109 -103 100 -111 -2 -2 -56 -34 -119 -71 -63 -37 -170
-101 -237 -141 l-123 -73 -47 51 c-70 74 -131 114 -523 340 -195 113 -533 308
-750 433 -217 125 -426 246 -463 267 -38 22 -66 43 -62 46 13 14 441 280 450
281 6 1 75 -36 155 -82z m-913 -183 c53 -27 1542 -885 1816 -1047 199 -117
304 -243 386 -462 l26 -70 3 -1069 c2 -960 1 -1074 -14 -1118 -17 -53 -59 -92
-109 -102 -73 -15 -52 -26 -1060 556 -187 108 -226 119 -278 78 -49 -38 -53
-109 -21 -319 8 -52 13 -95 11 -97 -9 -9 -154 150 -203 222 -67 100 -108 198
-140 332 -13 57 -31 116 -38 130 -24 46 -77 87 -211 162 -102 58 -146 90 -206
149 -134 135 -219 306 -239 483 -12 105 -13 1951 -1 2035 12 78 33 122 74 151
45 32 123 27 204 -14z m2767 -1081 c20 -47 38 -102 41 -122 l6 -36 -226 -133
c-124 -73 -231 -135 -239 -138 -9 -3 -15 6 -20 27 -3 17 -26 75 -51 127 -25
52 -45 96 -45 98 0 1 66 42 148 90 81 48 187 111 236 140 65 39 93 50 102 43
7 -6 29 -49 48 -96z m72 -434 c8 -17 12 -35 7 -39 -25 -23 -427 -258 -435
-254 -4 3 -15 18 -23 34 l-15 28 98 60 c53 33 149 91 212 130 63 39 121 71
127 71 7 1 20 -13 29 -30z m-5 -1750 c10 -20 26 -9 -231 -164 -105 -64 -198
-114 -205 -111 -7 2 -17 18 -23 34 l-10 30 216 131 c234 141 221 137 253 80z"/>
<path d="M42963 13957 c-74 -43 -72 -52 24 -102 l52 -27 65 37 c37 20 66 41
66 45 0 13 -118 80 -138 79 -9 0 -41 -15 -69 -32z"/>
<path d="M29154 13518 c-69 -37 -96 -59 -85 -71 5 -7 34 -25 64 -41 62 -33 78
-32 152 15 l49 32 -24 19 c-14 11 -46 31 -71 44 l-46 23 -39 -21z"/>
<path d="M23860 13407 c-30 -18 -55 -37 -54 -43 1 -14 105 -74 129 -74 25 0
129 61 128 75 0 14 -104 75 -128 75 -11 0 -45 -15 -75 -33z"/>
<path d="M23373 13399 c-29 -17 -53 -36 -53 -43 0 -7 29 -28 65 -47 l65 -34
65 34 c36 19 65 40 65 47 0 16 -104 74 -132 74 -13 0 -47 -14 -75 -31z"/>
<path d="M31832 13384 c-35 -20 -61 -41 -59 -47 2 -6 32 -27 67 -46 l63 -35
64 34 c36 20 63 41 63 50 0 14 -105 80 -126 80 -5 0 -37 -16 -72 -36z"/>
<path d="M29363 13364 c-35 -19 -63 -39 -63 -43 0 -11 16 -23 78 -57 l52 -29
66 35 c41 21 64 40 62 49 -3 15 -104 81 -123 81 -5 0 -38 -16 -72 -36z"/>
<path d="M23620 13267 c-30 -18 -55 -39 -55 -47 0 -8 27 -30 59 -49 l59 -35
66 35 c36 20 67 41 68 46 4 11 -110 83 -130 83 -7 0 -37 -15 -67 -33z"/>
<path d="M24120 13267 c-30 -18 -56 -40 -58 -48 -1 -8 23 -27 61 -48 l64 -34
63 34 c35 19 65 40 67 46 4 11 -113 83 -133 83 -5 0 -34 -15 -64 -33z"/>
<path d="M31580 13238 c-29 -18 -55 -38 -57 -43 -6 -19 119 -79 147 -72 37 10
122 66 115 77 -10 16 -112 70 -132 70 -10 0 -43 -15 -73 -32z"/>
<path d="M29600 13227 c-30 -18 -55 -39 -55 -46 0 -7 28 -28 61 -47 l61 -34
64 33 c35 18 65 39 66 47 3 15 -102 80 -129 80 -7 0 -38 -15 -68 -33z"/>
<path d="M29108 13217 c-32 -17 -58 -37 -58 -42 0 -15 107 -75 133 -75 26 0
130 60 130 75 0 14 -104 74 -128 74 -11 0 -46 -14 -77 -32z"/>
<path d="M24351 13127 c-30 -18 -56 -37 -58 -43 -4 -13 103 -74 130 -74 23 0
121 52 131 69 7 12 -107 81 -132 81 -9 -1 -41 -15 -71 -33z"/>
<path d="M23363 13119 c-29 -17 -53 -36 -53 -42 0 -15 102 -77 127 -77 21 0
125 60 130 75 4 14 -103 75 -130 75 -12 0 -46 -14 -74 -31z"/>
<path d="M23863 13119 c-29 -17 -53 -37 -53 -44 0 -15 101 -75 127 -75 20 0
118 54 128 70 8 13 -98 80 -127 80 -13 0 -47 -14 -75 -31z"/>
<path d="M31330 13095 c-30 -18 -55 -39 -55 -46 0 -7 29 -29 65 -48 l66 -35
59 35 c33 20 60 42 60 50 0 16 -101 79 -125 78 -8 0 -40 -16 -70 -34z"/>
<path d="M31813 13098 c-29 -16 -53 -34 -53 -39 0 -11 87 -67 117 -75 26 -7
143 53 143 73 0 18 -100 73 -130 72 -14 0 -49 -14 -77 -31z"/>
<path d="M29354 13084 c-32 -18 -59 -39 -59 -46 0 -14 103 -78 127 -78 23 0
128 62 128 76 0 7 -20 24 -44 38 -81 47 -86 47 -152 10z"/>
<path d="M29842 13077 c-28 -17 -51 -36 -49 -42 5 -14 109 -75 130 -75 26 0
127 60 127 75 0 18 -101 75 -131 75 -13 -1 -48 -15 -77 -33z"/>
<path d="M24105 12985 c-33 -19 -60 -40 -60 -47 0 -6 30 -28 66 -47 l65 -35
68 38 c54 30 65 40 56 51 -13 15 -115 75 -127 75 -5 0 -35 -16 -68 -35z"/>
<path d="M24583 12987 c-29 -17 -53 -36 -53 -42 0 -12 111 -75 133 -75 23 0
127 62 127 76 0 17 -102 74 -131 74 -13 -1 -48 -15 -76 -33z"/>
<path d="M23618 12977 c-79 -44 -78 -52 19 -102 l52 -27 65 37 c37 20 66 41
66 45 0 11 -114 80 -131 80 -8 0 -40 -15 -71 -33z"/>
<path d="M31568 12957 c-32 -17 -58 -37 -58 -44 0 -6 29 -28 65 -48 l66 -36
64 36 c36 20 65 41 65 48 0 14 -109 77 -131 77 -8 0 -40 -15 -71 -33z"/>
<path d="M30090 12945 c-30 -18 -55 -39 -55 -46 0 -14 102 -79 125 -79 24 0
125 65 125 81 0 13 -109 79 -130 78 -5 0 -35 -16 -65 -34z"/>
<path d="M31073 12947 c-29 -18 -51 -36 -50 -42 5 -15 108 -75 129 -75 26 0
128 60 128 75 0 17 -103 75 -132 74 -13 0 -47 -15 -75 -32z"/>
<path d="M29600 12936 c-30 -18 -55 -38 -55 -45 0 -7 29 -29 66 -49 l65 -36
62 38 c34 21 62 43 62 49 0 14 -110 77 -131 77 -8 -1 -39 -16 -69 -34z"/>
<path d="M24340 12847 c-30 -18 -55 -39 -55 -47 0 -7 29 -28 64 -47 l63 -33
62 33 c33 19 62 40 64 48 2 14 -104 79 -130 79 -7 0 -38 -15 -68 -33z"/>
<path d="M24841 12847 c-30 -18 -56 -38 -58 -44 -6 -16 95 -73 127 -73 32 0
133 57 127 73 -5 15 -107 77 -127 77 -8 0 -39 -15 -69 -33z"/>
<path d="M23850 12838 c-29 -18 -53 -37 -53 -43 0 -14 103 -75 126 -75 27 0
127 59 127 75 0 15 -101 75 -128 75 -10 0 -42 -15 -72 -32z"/>
<path d="M31325 12816 c-33 -18 -61 -39 -63 -47 -1 -8 24 -28 63 -49 l65 -35
56 30 c73 39 84 53 59 72 -18 13 -111 63 -117 63 -2 0 -30 -15 -63 -34z"/>
<path d="M30327 12807 c-33 -18 -56 -38 -55 -46 2 -8 31 -30 65 -48 l63 -35
66 37 c36 20 63 42 61 48 -5 15 -108 77 -127 77 -8 -1 -41 -15 -73 -33z"/>
<path d="M30830 12806 c-30 -18 -55 -39 -55 -46 0 -8 29 -30 66 -49 l65 -35
62 38 c34 21 62 43 62 49 0 13 -111 77 -132 77 -7 -1 -38 -16 -68 -34z"/>
<path d="M29833 12797 c-29 -18 -53 -37 -53 -44 0 -14 103 -73 130 -73 27 0
130 59 130 73 0 17 -107 77 -133 76 -12 0 -46 -15 -74 -32z"/>
<path d="M24093 12704 c-35 -19 -63 -39 -63 -44 0 -10 63 -52 106 -72 23 -11
34 -8 90 22 35 19 64 40 64 47 0 10 -116 83 -131 83 -2 0 -32 -16 -66 -36z"/>
<path d="M24593 12704 c-35 -20 -63 -40 -63 -45 0 -11 87 -67 117 -75 28 -8
145 55 141 75 -3 12 -113 81 -128 81 -3 -1 -33 -17 -67 -36z"/>
<path d="M25073 12707 c-29 -17 -53 -37 -53 -43 0 -14 102 -74 126 -74 25 0
135 62 131 74 -5 17 -108 76 -132 76 -11 -1 -44 -15 -72 -33z"/>
<path d="M31068 12667 c-32 -17 -58 -37 -58 -44 0 -15 101 -73 129 -73 29 0
133 60 128 74 -5 15 -107 76 -127 76 -8 0 -41 -15 -72 -33z"/>
<path d="M30073 12660 c-29 -17 -53 -36 -53 -44 0 -20 117 -79 143 -72 28 8
117 64 117 74 0 13 -107 72 -132 72 -12 0 -47 -14 -75 -30z"/>
<path d="M30573 12658 c-29 -16 -53 -35 -53 -42 0 -7 29 -28 65 -47 l65 -34
65 34 c36 18 65 39 65 46 0 17 -103 75 -132 74 -13 0 -47 -14 -75 -31z"/>
<path d="M24831 12567 c-30 -18 -56 -38 -58 -44 -2 -6 24 -28 58 -49 l63 -38
65 35 c35 19 66 39 68 46 4 12 -106 83 -128 83 -8 -1 -38 -15 -68 -33z"/>
<path d="M24341 12557 c-30 -18 -56 -37 -58 -42 -4 -14 100 -75 127 -75 29 0
130 58 130 74 0 14 -104 76 -128 76 -10 0 -41 -15 -71 -33z"/>
<path d="M30820 12525 c-30 -18 -55 -39 -55 -46 0 -15 102 -79 125 -79 20 1
122 62 127 77 4 11 -114 84 -133 82 -5 0 -34 -16 -64 -34z"/>
<path d="M30330 12517 c-30 -18 -55 -39 -55 -47 0 -7 28 -29 63 -47 l62 -35
63 35 c34 18 62 40 62 47 0 15 -101 80 -125 80 -8 0 -40 -15 -70 -33z"/>
<path d="M24582 12423 c-34 -19 -62 -40 -62 -47 0 -7 29 -28 65 -47 l65 -34
65 34 c36 19 65 40 65 46 0 10 -86 65 -120 77 -9 3 -44 -10 -78 -29z"/>
<path d="M25060 12426 c-30 -18 -55 -37 -54 -42 1 -14 105 -74 129 -74 25 0
129 61 128 75 -1 14 -104 74 -128 74 -11 0 -45 -15 -75 -33z"/>
<path d="M33473 10924 c-35 -19 -63 -39 -63 -43 0 -11 16 -23 78 -57 l52 -29
65 35 c39 21 64 41 63 49 -3 12 -112 81 -128 81 -3 0 -33 -16 -67 -36z"/>
<path d="M33708 10787 c-32 -17 -58 -37 -58 -44 0 -7 28 -29 63 -49 l62 -37
65 35 c36 20 65 42 65 49 0 15 -102 79 -125 79 -8 0 -41 -15 -72 -33z"/>
<path d="M33940 10646 c-30 -18 -55 -37 -54 -42 2 -14 107 -74 131 -74 27 0
134 62 130 75 -5 16 -109 75 -132 75 -11 -1 -45 -16 -75 -34z"/>
<path d="M33453 10639 c-29 -17 -53 -36 -53 -43 0 -13 104 -76 127 -76 22 0
133 64 133 77 0 16 -102 73 -131 73 -13 0 -48 -14 -76 -31z"/>
<path d="M33693 10504 c-35 -20 -63 -40 -63 -44 0 -5 30 -26 67 -46 l67 -38
65 35 c35 19 66 40 68 46 4 11 -113 83 -133 83 -5 -1 -37 -17 -71 -36z"/>
<path d="M34200 10506 c-30 -18 -56 -39 -58 -47 -2 -14 104 -79 130 -79 22 0
129 71 125 83 -4 12 -116 77 -132 76 -5 0 -35 -15 -65 -33z"/>
<path d="M34923 10374 c-35 -20 -63 -39 -63 -44 0 -10 118 -80 135 -80 17 0
135 68 135 78 0 9 -122 82 -136 82 -5 -1 -37 -17 -71 -36z"/>
<path d="M34432 10364 c-58 -33 -62 -37 -48 -52 8 -10 39 -30 69 -46 l54 -29
66 38 c37 20 67 41 67 45 0 11 -116 80 -133 80 -7 0 -40 -16 -75 -36z"/>
<path d="M33943 10357 c-29 -17 -53 -37 -53 -43 0 -16 101 -74 128 -74 27 0
133 61 129 75 -5 16 -109 75 -132 74 -11 0 -44 -15 -72 -32z"/>
<path d="M34705 10248 c-83 -47 -97 -59 -84 -74 7 -9 38 -28 69 -44 l56 -28
53 29 c65 35 82 49 76 60 -10 15 -112 69 -131 69 -11 0 -28 -6 -39 -12z"/>
<path d="M34172 10214 c-62 -40 -61 -44 21 -88 62 -33 78 -31 150 14 56 36 54
43 -20 85 -60 33 -87 31 -151 -11z"/>
<path d="M34423 10084 c-35 -19 -63 -39 -63 -44 0 -10 115 -80 131 -80 15 0
139 70 139 79 0 8 -122 81 -136 81 -5 0 -37 -16 -71 -36z"/>
<path d="M34934 10090 c-83 -48 -83 -52 -13 -94 33 -20 67 -36 74 -36 19 0
135 69 135 80 0 9 -122 80 -137 80 -4 0 -31 -14 -59 -30z"/>
<path d="M34670 9937 c-30 -18 -55 -37 -54 -43 1 -15 106 -74 132 -74 28 0
135 67 127 80 -10 15 -111 70 -131 70 -11 0 -44 -15 -74 -33z"/>
<path d="M38078 9844 c-32 -19 -58 -39 -58 -43 0 -12 16 -23 78 -57 l54 -28
64 34 c39 21 63 41 62 49 -3 17 -106 80 -128 80 -8 0 -41 -16 -72 -35z"/>
<path d="M38318 9707 c-32 -17 -58 -37 -58 -44 0 -17 99 -73 129 -73 30 0 133
59 128 73 -5 15 -108 77 -127 77 -8 0 -41 -15 -72 -33z"/>
<path d="M38563 9558 c-29 -16 -53 -35 -53 -42 0 -13 110 -76 133 -76 23 0
127 62 127 76 0 17 -102 74 -131 73 -13 0 -48 -14 -76 -31z"/>
<path d="M45438 9537 c-32 -17 -58 -37 -58 -43 0 -15 109 -78 132 -76 24 1
128 64 128 77 0 12 -112 75 -132 75 -7 0 -39 -15 -70 -33z"/>
<path d="M44942 9527 c-29 -17 -51 -36 -49 -42 5 -14 108 -75 128 -75 25 0
129 62 129 76 0 17 -102 74 -131 73 -13 0 -48 -15 -77 -32z"/>
<path d="M38810 9425 c-30 -19 -55 -40 -55 -46 0 -15 103 -79 125 -79 24 1
125 65 125 80 0 13 -110 80 -130 80 -5 0 -35 -16 -65 -35z"/>
<path d="M45190 9395 c-30 -19 -55 -39 -55 -46 0 -14 101 -78 124 -79 21 0
132 71 128 83 -4 12 -116 77 -132 77 -5 0 -35 -16 -65 -35z"/>
<path d="M45695 9396 c-33 -18 -60 -39 -60 -46 0 -15 102 -80 125 -80 24 1
125 65 125 80 0 11 -108 80 -125 80 -3 0 -32 -15 -65 -34z"/>
<path d="M39037 9283 c-52 -32 -56 -37 -43 -52 8 -9 40 -29 70 -44 l55 -28 66
36 c36 21 64 42 62 48 -5 17 -109 76 -132 76 -11 0 -46 -17 -78 -36z"/>
<path d="M45917 9253 c-52 -32 -56 -37 -43 -52 8 -9 39 -29 70 -44 l55 -28 55
31 c74 42 84 55 54 73 -64 39 -101 57 -116 56 -9 0 -43 -17 -75 -36z"/>
<path d="M44933 9247 c-29 -17 -53 -36 -53 -42 0 -14 106 -75 130 -75 24 0
130 61 130 75 0 15 -108 75 -133 74 -12 0 -46 -15 -74 -32z"/>
<path d="M45433 9247 c-29 -17 -53 -36 -53 -42 0 -14 103 -75 128 -75 26 0
132 61 132 76 0 14 -112 74 -136 73 -11 0 -43 -15 -71 -32z"/>
<path d="M38799 9145 c-78 -41 -79 -48 -9 -89 34 -20 69 -36 78 -36 20 0 124
61 129 75 4 14 -103 75 -130 75 -12 -1 -43 -12 -68 -25z"/>
<path d="M45687 9121 c-86 -49 -87 -53 -17 -94 34 -21 68 -37 75 -37 19 0 135
69 135 80 0 9 -123 81 -137 79 -4 -1 -30 -13 -56 -28z"/>
<path d="M46157 9117 c-31 -17 -56 -36 -54 -42 5 -14 109 -75 130 -75 26 0
127 60 127 75 0 15 -102 75 -127 75 -10 0 -44 -15 -76 -33z"/>
<path d="M45190 9106 c-30 -18 -55 -38 -55 -46 0 -19 116 -81 139 -74 37 12
117 66 113 77 -5 15 -108 76 -127 76 -8 0 -40 -15 -70 -33z"/>
<path d="M39048 8997 c-32 -17 -58 -37 -58 -44 0 -6 28 -28 62 -49 l62 -38 65
36 c37 20 66 42 66 49 0 14 -102 78 -125 78 -8 0 -41 -14 -72 -32z"/>
<path d="M45908 8974 c-32 -19 -58 -39 -58 -44 0 -4 30 -25 67 -46 l66 -37 44
24 c24 13 56 33 70 45 l27 21 -66 36 c-36 21 -71 37 -79 36 -8 0 -40 -16 -71
-35z"/>
<path d="M46413 8974 c-35 -19 -63 -39 -63 -44 0 -5 30 -26 66 -46 l66 -37 64
34 c35 19 64 41 64 49 0 13 -106 80 -127 80 -4 0 -36 -16 -70 -36z"/>
<path d="M45423 8967 c-29 -17 -53 -37 -53 -43 0 -16 101 -74 128 -74 26 0
133 62 129 75 -5 16 -110 75 -132 74 -11 0 -44 -15 -72 -32z"/>
<path d="M45684 8843 c-57 -30 -85 -53 -79 -63 9 -14 114 -70 131 -70 9 0 44
16 77 37 l60 36 -24 20 c-13 10 -45 30 -70 43 l-46 23 -49 -26z"/>
<path d="M46167 8833 c-37 -20 -66 -41 -64 -47 5 -15 108 -75 130 -76 28 0
128 63 125 79 -2 8 -30 29 -63 47 l-60 33 -68 -36z"/>
<path d="M46643 8837 c-29 -18 -53 -37 -53 -44 0 -15 104 -73 131 -73 28 0
129 58 129 73 0 17 -107 77 -133 76 -12 0 -46 -15 -74 -32z"/>
<path d="M38634 8813 c-57 -30 -85 -53 -79 -63 8 -13 114 -70 130 -70 17 0
122 57 130 70 6 10 -32 38 -91 68 l-41 21 -49 -26z"/>
<path d="M34167 8763 c-53 -32 -57 -36 -43 -51 8 -10 39 -30 69 -46 l54 -28
66 38 c37 21 67 41 67 45 0 13 -117 79 -136 78 -11 0 -45 -16 -77 -36z"/>
<path d="M46400 8695 c-30 -18 -55 -39 -55 -46 0 -14 102 -78 125 -78 20 0
122 61 127 76 4 12 -107 83 -128 82 -8 0 -39 -16 -69 -34z"/>
<path d="M45930 8698 c-19 -11 -45 -27 -58 -35 -19 -11 -21 -17 -12 -28 19
-23 101 -65 127 -65 21 0 133 62 133 74 0 10 -121 76 -138 76 -9 0 -33 -10
-52 -22z"/>
<path d="M38361 8657 c-30 -18 -56 -37 -58 -42 -4 -14 104 -77 132 -77 20 0
135 65 135 76 0 10 -122 76 -138 76 -9 -1 -41 -15 -71 -33z"/>
<path d="M34418 8618 c-27 -17 -48 -36 -48 -42 0 -15 102 -76 127 -76 21 0
125 60 130 75 5 16 -105 75 -135 74 -15 0 -48 -14 -74 -31z"/>
<path d="M46637 8557 c-34 -19 -56 -38 -55 -46 2 -8 31 -30 65 -48 l62 -34 66
36 c36 21 64 42 62 48 -5 15 -108 77 -127 77 -8 0 -41 -15 -73 -33z"/>
<path d="M46143 8547 c-29 -17 -53 -36 -53 -42 0 -12 111 -75 133 -75 23 0
127 62 127 76 0 17 -104 74 -132 73 -13 0 -47 -15 -75 -32z"/>
<path d="M38114 8514 c-32 -18 -59 -39 -59 -46 0 -14 103 -78 127 -78 24 0
139 71 132 81 -7 11 -113 73 -130 75 -6 1 -37 -13 -70 -32z"/>
<path d="M38593 8517 c-29 -17 -53 -36 -53 -42 0 -14 107 -75 131 -75 27 0
129 59 129 75 0 17 -103 75 -132 74 -13 0 -47 -15 -75 -32z"/>
<path d="M34665 8485 c-33 -19 -60 -40 -60 -46 0 -6 29 -27 66 -47 l65 -36 67
38 c37 20 67 41 67 46 0 9 -122 80 -137 80 -4 0 -35 -16 -68 -35z"/>
<path d="M34167 8473 c-45 -28 -55 -38 -46 -49 20 -24 97 -64 123 -64 33 0
138 58 133 73 -5 17 -109 76 -132 76 -11 0 -46 -17 -78 -36z"/>
<path d="M38348 8374 c-32 -20 -58 -40 -58 -44 0 -11 116 -80 133 -80 22 1
122 66 122 80 0 15 -101 79 -125 79 -8 0 -41 -16 -72 -35z"/>
<path d="M37861 8367 c-30 -18 -56 -37 -58 -43 -5 -15 100 -74 129 -74 30 0
128 57 128 73 0 15 -104 77 -128 77 -10 0 -41 -15 -71 -33z"/>
<path d="M34410 8337 c-30 -18 -55 -37 -54 -43 1 -14 105 -74 129 -74 25 0
129 61 128 75 0 14 -104 75 -128 75 -11 0 -45 -15 -75 -33z"/>
<path d="M34903 8340 c-28 -16 -54 -34 -58 -40 -8 -13 98 -80 127 -80 26 0
131 60 131 75 0 14 -104 74 -128 75 -11 0 -43 -14 -72 -30z"/>
<path d="M3670 7805 l0 -535 1200 0 1200 0 0 535 0 535 -1200 0 -1200 0 0
-535z m787 122 c13 -13 19 -12 52 6 28 15 46 18 74 13 58 -11 69 -37 71 -163
l1 -108 -37 -3 -38 -3 0 95 c0 95 -11 126 -43 126 -39 -1 -57 -44 -57 -139 l0
-81 -35 0 -35 0 0 94 c0 73 -4 98 -16 110 -19 20 -35 20 -59 2 -16 -11 -20
-30 -23 -110 l-4 -96 -34 0 -34 0 0 135 0 135 30 0 c20 0 30 -5 30 -15 0 -8 5
-15 10 -15 6 0 10 5 10 10 0 30 109 36 137 7z m446 9 c82 -34 102 -169 35
-236 -26 -27 -36 -30 -89 -30 -50 0 -63 4 -89 28 -51 45 -61 141 -21 201 30
46 103 63 164 37z m313 -8 c-3 -13 -6 -29 -6 -35 0 -7 -11 -13 -24 -13 -13 0
-34 -9 -47 -19 -21 -17 -24 -29 -28 -105 l-3 -86 -34 0 -34 0 0 135 0 135 29
0 c21 0 30 -6 35 -22 5 -20 7 -21 18 -7 18 23 49 38 77 39 19 0 22 -4 17 -22z
m224 4 c41 -20 60 -53 60 -104 l0 -38 -85 0 c-78 0 -85 -2 -85 -20 0 -43 76
-62 143 -35 14 6 17 2 17 -23 0 -36 -12 -42 -91 -42 -74 0 -116 20 -135 65
-42 102 19 215 116 215 14 0 41 -8 60 -18z"/>
<path d="M4810 7870 c-24 -24 -27 -96 -7 -124 17 -24 67 -24 84 0 18 24 16 95
-3 122 -19 27 -48 28 -74 2z"/>
<path d="M5342 7878 c-26 -26 -13 -38 38 -38 34 0 50 4 50 13 0 21 -22 37 -50
37 -14 0 -31 -5 -38 -12z"/>
<path d="M37613 8224 c-35 -19 -63 -39 -63 -45 0 -11 87 -67 117 -75 25 -7
143 53 143 72 0 11 -84 68 -117 78 -11 3 -43 -9 -80 -30z"/>
<path d="M38093 8228 c-29 -16 -53 -35 -53 -42 0 -15 105 -76 130 -76 25 0
130 61 130 76 0 16 -104 74 -132 73 -13 0 -47 -14 -75 -31z"/>
<path d="M34655 8205 c-33 -19 -60 -40 -60 -47 0 -14 103 -78 127 -78 24 0
128 62 128 77 0 10 -117 84 -131 83 -2 0 -31 -16 -64 -35z"/>
<path d="M35145 8205 c-33 -19 -60 -40 -60 -47 0 -15 102 -78 126 -78 28 0
129 64 126 79 -2 12 -111 81 -127 81 -3 -1 -32 -16 -65 -35z"/>
<path d="M42915 8209 c-65 -34 -85 -49 -85 -62 0 -7 29 -29 65 -48 l65 -34 52
29 c62 34 78 46 78 56 0 7 -121 80 -132 80 -2 0 -21 -9 -43 -21z"/>
<path d="M37851 8087 c-30 -18 -56 -38 -58 -44 -2 -6 24 -28 59 -49 l63 -37
65 35 c36 19 65 40 65 48 0 15 -101 79 -125 79 -8 0 -39 -14 -69 -32z"/>
<path d="M37357 8077 c-32 -18 -56 -38 -55 -46 2 -7 32 -28 67 -47 l64 -34 61
33 c34 19 62 40 63 48 3 15 -98 79 -125 79 -9 0 -43 -15 -75 -33z"/>
<path d="M35380 8066 c-30 -18 -55 -39 -55 -46 0 -15 101 -79 125 -79 20 0
122 61 127 76 4 12 -106 83 -128 83 -8 -1 -39 -16 -69 -34z"/>
<path d="M34891 8057 c-30 -18 -56 -37 -58 -44 -5 -14 97 -73 127 -73 28 0
130 57 130 73 0 13 -109 77 -131 77 -8 0 -38 -15 -68 -33z"/>
<path d="M42631 8047 c-30 -18 -55 -36 -55 -42 1 -15 105 -75 130 -75 28 0
135 61 131 75 -6 16 -110 75 -132 74 -11 0 -44 -15 -74 -32z"/>
<path d="M37115 7936 c-33 -18 -60 -39 -60 -46 0 -15 102 -80 125 -80 23 0
125 65 125 80 0 11 -108 80 -125 80 -3 0 -32 -15 -65 -34z"/>
<path d="M37593 7938 c-29 -16 -53 -35 -53 -42 0 -14 104 -76 127 -76 22 0
133 63 133 75 0 16 -105 75 -132 74 -12 0 -47 -14 -75 -31z"/>
<path d="M35123 7918 c-29 -16 -53 -35 -53 -42 0 -14 102 -76 125 -76 25 0
135 61 135 74 0 16 -107 76 -133 75 -12 0 -46 -14 -74 -31z"/>
<path d="M35623 7917 c-29 -18 -53 -37 -53 -42 0 -14 107 -75 131 -75 26 0
129 59 129 74 0 16 -107 76 -133 75 -12 0 -46 -15 -74 -32z"/>
<path d="M42383 7903 c-35 -21 -63 -41 -63 -45 0 -9 122 -78 138 -78 16 0 132
70 132 80 0 9 -122 80 -137 80 -4 0 -36 -17 -70 -37z"/>
<path d="M42879 7915 c-76 -39 -78 -49 -22 -85 73 -46 89 -47 151 -14 81 44
82 48 18 89 -64 41 -85 42 -147 10z"/>
<path d="M37348 7797 c-32 -18 -58 -37 -58 -44 0 -6 28 -28 62 -49 l62 -38 65
36 c36 19 67 40 69 46 3 11 -108 82 -129 82 -8 -1 -40 -15 -71 -33z"/>
<path d="M35873 7784 c-35 -19 -63 -41 -63 -47 0 -15 105 -77 129 -77 21 0
123 61 128 77 3 9 -112 83 -128 83 -2 0 -32 -16 -66 -36z"/>
<path d="M36853 7787 c-29 -18 -53 -37 -53 -44 0 -14 103 -73 130 -73 27 0
130 59 130 74 0 15 -111 76 -136 75 -11 0 -43 -15 -71 -32z"/>
<path d="M35380 7775 c-30 -19 -55 -39 -55 -46 0 -14 102 -78 125 -78 20 0
122 61 127 76 4 12 -106 83 -128 83 -8 0 -39 -16 -69 -35z"/>
<path d="M42618 7764 c-32 -19 -58 -39 -58 -44 0 -4 30 -25 67 -46 l67 -37 54
29 c29 16 60 36 68 46 14 15 10 19 -49 52 -35 20 -70 36 -78 35 -8 0 -40 -16
-71 -35z"/>
<path d="M42137 7761 c-75 -44 -76 -46 -21 -81 27 -17 60 -33 72 -37 27 -6
112 30 138 58 15 16 13 19 -23 42 -91 57 -99 58 -166 18z"/>
<path d="M39170 7728 c-29 -18 -53 -37 -53 -43 1 -14 103 -74 127 -75 19 0
121 54 131 70 8 13 -99 80 -127 80 -13 0 -48 -15 -78 -32z"/>
<path d="M37104 7656 c-32 -18 -60 -39 -62 -47 -3 -15 98 -79 125 -79 22 0
133 63 133 75 0 10 -87 66 -121 78 -9 3 -43 -9 -75 -27z"/>
<path d="M36108 7647 c-32 -18 -58 -39 -58 -47 0 -8 29 -30 63 -49 l64 -34 67
37 c37 21 65 43 63 49 -4 12 -116 77 -132 76 -5 0 -36 -14 -67 -32z"/>
<path d="M36611 7647 c-30 -18 -56 -38 -58 -44 -5 -13 77 -69 114 -79 26 -7
146 61 140 79 -4 12 -116 77 -132 76 -5 0 -34 -14 -64 -32z"/>
<path d="M35617 7637 c-34 -19 -56 -38 -55 -46 2 -8 31 -30 65 -48 l62 -34 66
36 c36 21 64 42 62 48 -5 15 -108 77 -127 77 -8 0 -41 -15 -73 -33z"/>
<path d="M42394 7632 c-80 -44 -87 -49 -80 -60 9 -16 111 -72 129 -72 27 0
128 64 125 79 -2 8 -30 29 -63 47 l-61 34 -50 -28z"/>
<path d="M41883 7614 c-35 -20 -63 -40 -63 -45 0 -10 95 -67 126 -75 25 -6
145 62 138 79 -5 12 -116 77 -131 77 -4 -1 -36 -17 -70 -36z"/>
<path d="M39413 7594 c-35 -20 -63 -40 -63 -44 0 -5 27 -25 60 -45 68 -42 77
-41 157 5 32 18 50 35 47 43 -4 11 -120 78 -134 77 -3 -1 -33 -17 -67 -36z"/>
<path d="M36842 7504 c-51 -29 -61 -38 -52 -50 19 -22 101 -64 126 -64 31 0
136 59 131 73 -5 15 -107 76 -127 76 -8 1 -43 -15 -78 -35z"/>
<path d="M35850 7497 c-30 -18 -55 -37 -54 -43 2 -13 106 -74 128 -74 26 0
137 62 133 75 -5 16 -109 75 -132 75 -11 0 -45 -15 -75 -33z"/>
<path d="M36353 7497 c-29 -17 -53 -37 -53 -43 0 -16 104 -74 131 -74 25 0
129 60 129 75 0 14 -112 75 -136 75 -11 -1 -43 -15 -71 -33z"/>
<path d="M42121 7477 c-30 -18 -56 -38 -58 -44 -2 -6 26 -27 62 -48 l66 -37
52 27 c62 33 77 44 77 59 0 13 -110 76 -131 76 -8 -1 -38 -15 -68 -33z"/>
<path d="M41630 7467 c-30 -18 -55 -37 -54 -43 1 -14 105 -74 129 -74 24 0
128 61 128 75 0 14 -104 74 -128 75 -11 0 -45 -15 -75 -33z"/>
<path d="M39650 7456 c-30 -18 -55 -38 -55 -45 0 -7 29 -29 66 -49 l65 -36 63
38 c34 21 60 43 58 49 -5 15 -108 77 -127 77 -8 -1 -40 -16 -70 -34z"/>
<path d="M39161 7447 c-30 -18 -56 -37 -58 -43 -3 -9 70 -56 118 -76 18 -7
142 60 142 77 -1 14 -104 74 -128 75 -11 0 -44 -15 -74 -33z"/>
<path d="M36624 7378 c-65 -34 -84 -48 -84 -62 0 -16 104 -76 129 -76 20 1
123 62 128 75 3 10 -81 65 -118 78 -10 3 -34 -4 -55 -15z"/>
<path d="M36111 7357 c-30 -18 -56 -38 -58 -44 -5 -13 77 -69 113 -79 24 -6
147 62 141 79 -4 12 -116 77 -132 76 -5 0 -34 -14 -64 -32z"/>
<path d="M41378 7324 c-32 -19 -58 -39 -58 -44 0 -10 115 -80 132 -80 24 0
128 66 126 79 -4 17 -106 81 -128 80 -8 0 -41 -16 -72 -35z"/>
<path d="M41865 7330 c-27 -16 -50 -35 -50 -42 0 -15 102 -78 126 -78 25 0
129 62 129 77 0 17 -99 73 -130 72 -14 0 -47 -13 -75 -29z"/>
<path d="M39395 7310 c-27 -16 -50 -35 -50 -42 0 -15 102 -78 126 -78 25 0
129 62 129 76 0 17 -102 74 -131 73 -13 0 -46 -13 -74 -29z"/>
<path d="M39893 7307 c-29 -18 -51 -36 -50 -42 5 -16 109 -75 132 -75 24 0
130 62 129 76 -2 16 -108 74 -134 73 -14 0 -49 -15 -77 -32z"/>
<path d="M41621 7187 c-30 -18 -56 -37 -58 -44 -5 -14 97 -73 127 -73 28 0
130 57 130 73 0 13 -109 77 -131 77 -8 0 -38 -15 -68 -33z"/>
<path d="M41123 7177 c-29 -18 -51 -36 -50 -42 5 -15 108 -75 129 -75 26 0
128 60 128 75 0 17 -103 75 -132 74 -13 0 -47 -15 -75 -32z"/>
<path d="M39650 7165 c-30 -18 -55 -39 -55 -45 0 -7 29 -28 65 -48 l65 -36 60
35 c33 20 61 42 63 50 3 15 -104 80 -129 78 -8 0 -39 -16 -69 -34z"/>
<path d="M40135 7170 c-27 -16 -50 -35 -50 -41 0 -20 113 -82 138 -75 30 7
117 63 117 75 0 16 -99 71 -128 71 -15 0 -49 -14 -77 -30z"/>
<path d="M41373 7044 c-35 -19 -63 -41 -63 -48 0 -6 29 -28 65 -47 l65 -34 65
35 c41 21 65 40 63 49 -3 12 -112 81 -128 81 -3 0 -33 -16 -67 -36z"/>
<path d="M40381 7037 c-30 -18 -56 -37 -58 -44 -2 -6 24 -28 58 -49 l63 -38
65 35 c37 19 66 41 66 49 0 15 -101 79 -125 80 -8 0 -39 -15 -69 -33z"/>
<path d="M40880 7035 c-30 -18 -55 -39 -55 -46 0 -7 29 -29 65 -48 l66 -35 59
35 c33 20 60 41 60 49 0 16 -102 80 -125 79 -8 0 -40 -16 -70 -34z"/>
<path d="M39883 7027 c-29 -18 -53 -37 -53 -44 0 -15 104 -73 131 -73 28 0
129 58 129 73 0 17 -107 77 -133 76 -12 0 -46 -15 -74 -32z"/>
<path d="M41118 6897 c-32 -18 -58 -37 -58 -44 0 -7 29 -28 65 -48 l65 -37 65
37 c36 20 65 41 65 48 0 14 -109 77 -131 77 -8 -1 -40 -15 -71 -33z"/>
<path d="M40123 6889 c-29 -17 -53 -36 -53 -43 0 -14 104 -76 127 -76 24 0
133 62 133 75 0 17 -103 75 -132 75 -13 0 -47 -14 -75 -31z"/>
<path d="M40623 6887 c-29 -17 -53 -36 -53 -42 0 -13 111 -75 135 -75 23 0
125 62 125 76 0 17 -105 74 -132 73 -13 0 -47 -15 -75 -32z"/>
<path d="M40380 6747 c-30 -18 -55 -39 -55 -47 0 -8 29 -30 65 -49 l66 -35 59
35 c33 20 60 41 60 49 0 15 -101 80 -125 80 -8 0 -40 -15 -70 -33z"/>
<path d="M40863 6750 c-29 -17 -53 -35 -53 -40 0 -13 86 -69 117 -76 23 -6
133 51 140 73 5 14 -98 73 -128 73 -13 0 -48 -14 -76 -30z"/>
<path d="M24443 6248 c-29 -16 -53 -35 -53 -42 0 -13 110 -76 133 -76 23 0
127 63 127 77 0 18 -100 73 -130 72 -14 0 -49 -14 -77 -31z"/>
<path d="M25682 6123 c-34 -19 -62 -40 -62 -46 0 -14 105 -77 127 -77 23 0
133 63 133 76 0 7 -20 24 -44 38 -81 47 -85 47 -154 9z"/>
<path d="M24690 6116 c-30 -18 -55 -39 -55 -46 0 -15 101 -79 125 -79 23 0
125 64 125 79 0 13 -110 80 -130 79 -5 0 -35 -15 -65 -33z"/>
<path d="M24916 5972 l-59 -36 24 -19 c13 -10 45 -30 72 -43 l48 -25 65 37
c36 20 63 41 61 47 -6 18 -109 77 -132 76 -11 0 -46 -17 -79 -37z"/>
<path d="M25430 5977 c-30 -18 -55 -39 -55 -47 0 -7 28 -29 63 -47 l62 -35 63
35 c34 18 62 40 62 47 0 15 -101 80 -125 80 -8 0 -40 -15 -70 -33z"/>
<path d="M24433 5968 c-29 -16 -53 -36 -53 -43 0 -16 102 -75 129 -75 25 0
131 61 131 75 0 15 -107 75 -133 74 -12 0 -46 -14 -74 -31z"/>
<path d="M33546 5920 c-86 -50 -86 -52 -13 -94 36 -20 70 -36 76 -36 16 0 131
70 131 80 0 10 -121 80 -136 79 -5 0 -31 -13 -58 -29z"/>
<path d="M24678 5833 c-32 -19 -58 -39 -58 -46 0 -15 104 -77 128 -77 20 1
124 61 129 75 3 11 -96 74 -125 79 -9 2 -43 -12 -74 -31z"/>
<path d="M25663 5838 c-29 -16 -53 -36 -53 -43 0 -17 100 -75 130 -75 26 0
130 60 130 75 0 15 -108 75 -133 74 -12 0 -46 -14 -74 -31z"/>
<path d="M25173 5829 c-29 -17 -53 -36 -53 -42 0 -14 105 -77 127 -77 23 0
133 63 133 76 0 16 -104 74 -132 74 -13 0 -47 -14 -75 -31z"/>
<path d="M34763 5783 c-35 -21 -63 -41 -63 -45 0 -9 122 -78 138 -78 16 0 132
70 132 80 0 9 -122 80 -137 80 -4 0 -36 -17 -70 -37z"/>
<path d="M33768 5774 c-32 -20 -58 -39 -58 -43 0 -4 30 -24 66 -46 l67 -39 54
30 c30 16 61 36 69 46 14 15 10 19 -46 52 -34 20 -69 36 -78 36 -9 0 -43 -17
-74 -36z"/>
<path d="M25420 5697 c-30 -18 -56 -40 -58 -48 -2 -13 103 -79 127 -79 16 0
131 70 131 80 0 9 -120 80 -136 80 -5 0 -34 -15 -64 -33z"/>
<path d="M24928 5687 c-32 -17 -58 -37 -58 -44 0 -17 99 -73 128 -73 29 0 134
59 129 74 -5 14 -108 76 -127 76 -8 0 -41 -15 -72 -33z"/>
<path d="M33539 5642 c-59 -35 -80 -52 -74 -62 8 -13 113 -70 129 -70 15 0
136 67 136 76 0 7 -103 71 -125 77 -12 4 -38 -5 -66 -21z"/>
<path d="M34010 5640 c-25 -16 -49 -31 -55 -33 -26 -10 87 -87 126 -87 27 0
129 59 129 75 0 18 -101 75 -131 74 -13 0 -44 -13 -69 -29z"/>
<path d="M34517 5641 c-76 -44 -76 -45 -14 -85 31 -20 67 -36 79 -36 27 0 132
60 131 75 0 14 -104 75 -128 75 -11 0 -42 -13 -68 -29z"/>
<path d="M33758 5494 c-32 -19 -58 -39 -58 -44 0 -17 122 -82 144 -76 36 10
118 66 113 79 -5 15 -108 77 -127 76 -8 0 -41 -16 -72 -35z"/>
<path d="M34263 5494 c-35 -20 -63 -39 -63 -44 0 -10 117 -80 135 -80 18 0
135 70 135 80 0 9 -123 80 -137 80 -4 -1 -36 -17 -70 -36z"/>
<path d="M34742 5497 c-29 -17 -51 -36 -49 -41 5 -15 109 -76 129 -76 24 0
128 62 128 76 0 17 -102 74 -131 73 -13 0 -48 -15 -77 -32z"/>
<path d="M34500 5357 c-30 -18 -55 -39 -55 -46 0 -7 29 -29 65 -48 l65 -35 60
34 c33 18 61 40 62 48 3 16 -97 80 -125 80 -9 0 -42 -15 -72 -33z"/>
<path d="M34011 5347 c-30 -18 -56 -37 -58 -42 -4 -13 103 -75 129 -75 28 0
128 58 128 75 0 16 -99 75 -126 75 -11 0 -43 -15 -73 -33z"/>
<path d="M29233 3423 c-35 -21 -63 -41 -63 -44 0 -11 115 -79 133 -79 9 0 43
16 77 36 50 29 59 38 49 50 -13 16 -112 74 -125 74 -5 0 -37 -17 -71 -37z"/>
<path d="M30465 3295 c-33 -19 -60 -40 -60 -47 0 -14 103 -77 127 -78 15 0
138 67 138 76 0 7 -104 71 -125 77 -13 4 -41 -6 -80 -28z"/>
<path d="M29470 3286 c-30 -18 -55 -39 -55 -46 0 -8 29 -30 65 -49 l66 -35 59
35 c33 20 61 42 63 50 3 15 -103 79 -129 79 -8 -1 -39 -16 -69 -34z"/>
<path d="M29708 3148 c-32 -17 -58 -37 -58 -44 0 -16 103 -74 131 -74 28 0
129 58 129 73 0 14 -109 77 -131 77 -8 0 -40 -15 -71 -32z"/>
<path d="M30210 3147 c-30 -18 -55 -39 -55 -46 0 -7 29 -28 64 -47 l64 -34 61
34 c34 19 62 40 64 48 3 15 -99 78 -126 78 -10 0 -42 -15 -72 -33z"/>
<path d="M29213 3137 c-29 -17 -53 -36 -53 -42 0 -12 112 -75 133 -75 23 0
127 63 127 76 0 17 -102 74 -131 74 -13 -1 -48 -15 -76 -33z"/>
<path d="M29484 3018 c-67 -37 -88 -54 -80 -66 14 -24 117 -74 139 -68 36 10
119 66 115 78 -4 10 -115 78 -128 78 -3 0 -24 -10 -46 -22z"/>
<path d="M29961 3003 c-34 -19 -61 -38 -61 -42 0 -11 16 -23 78 -57 l52 -29
65 34 c36 19 65 40 65 47 0 14 -82 67 -116 76 -14 4 -44 -7 -83 -29z"/>
<path d="M30443 3007 c-29 -17 -53 -37 -53 -42 0 -14 106 -75 130 -75 25 0
130 61 130 76 0 16 -104 74 -132 74 -13 -1 -47 -15 -75 -33z"/>
<path d="M30200 2867 c-30 -18 -55 -39 -55 -47 0 -14 73 -62 114 -75 25 -8
144 60 138 78 -5 15 -107 76 -127 77 -8 0 -40 -15 -70 -33z"/>
<path d="M29708 2857 c-32 -17 -58 -37 -58 -43 0 -16 104 -74 131 -74 29 0
129 58 129 74 0 14 -108 76 -131 76 -8 0 -40 -15 -71 -33z"/>
<path d="M51310 2851 c-82 -25 -141 -84 -165 -163 -8 -28 -15 -57 -15 -63 0
-35 35 -120 62 -151 48 -55 102 -78 179 -79 56 0 73 4 115 30 170 106 143 353
-47 420 -45 16 -89 18 -129 6z m151 -128 c55 -55 55 -141 1 -196 -25 -24 -41
-31 -84 -34 -64 -5 -106 17 -131 70 -32 66 -12 141 45 177 50 32 129 24 169
-17z"/>
<path d="M3780 2829 c-55 -22 -60 -39 -60 -227 l0 -174 29 -29 29 -29 167 0
c243 0 245 2 245 234 0 155 -12 199 -60 223 -30 15 -312 17 -350 2z m310 -224
l0 -135 -141 0 -142 0 6 83 c4 45 7 106 7 135 l0 52 135 0 135 0 0 -135z"/>
<path d="M4593 2826 c-98 -32 -163 -118 -163 -219 0 -101 43 -170 135 -213 91
-43 183 -27 256 46 78 78 91 193 33 287 -52 84 -169 129 -261 99z m127 -101
c66 -34 92 -104 65 -173 -21 -52 -67 -82 -126 -82 -102 0 -170 102 -125 188
16 30 53 66 76 75 29 11 81 7 110 -8z"/>
<path d="M6016 2825 c-193 -68 -222 -320 -49 -422 41 -24 59 -28 118 -28 47 0
81 6 102 18 187 101 163 372 -39 432 -62 18 -81 18 -132 0z m138 -104 c84 -55
89 -168 10 -230 -33 -26 -113 -28 -154 -5 -82 49 -80 184 3 234 41 25 104 25
141 1z"/>
<path d="M6770 2720 l0 -70 -70 0 -70 0 0 -45 0 -45 70 0 70 0 0 -75 0 -75 45
0 45 0 0 75 0 74 72 3 71 3 0 40 0 40 -71 3 -72 3 0 69 0 70 -45 0 -45 0 0
-70z"/>
<path d="M50484 2140 c-49 -20 -54 -42 -54 -227 0 -167 1 -173 24 -200 l24
-28 180 0 c177 0 181 0 206 24 l26 24 0 182 0 182 -26 24 c-25 23 -31 24 -192
26 -92 1 -177 -2 -188 -7z m316 -225 l0 -135 -140 0 -140 0 0 135 0 135 140 0
140 0 0 -135z"/>
<path d="M3886 2116 c-57 -13 -140 -97 -156 -156 -47 -176 112 -338 285 -290
149 42 215 222 129 352 -50 77 -161 118 -258 94z m139 -106 c115 -71 64 -253
-70 -253 -80 0 -138 59 -138 139 0 104 119 169 208 114z"/>
<path d="M5207 2121 c-6 -2 -22 -13 -34 -24 -22 -20 -23 -26 -23 -201 1 -127
4 -186 13 -197 26 -34 55 -39 222 -39 l167 0 29 29 29 29 0 167 c0 180 -9 219
-53 230 -26 7 -331 12 -350 6z m311 -227 l-3 -136 -103 -5 c-57 -3 -119 -2
-138 1 l-34 7 0 134 0 135 140 0 141 0 -3 -136z"/>
<path d="M6642 2119 c-9 -4 -26 -17 -37 -29 -18 -20 -20 -38 -22 -187 -4 -247
-4 -246 250 -241 224 4 211 -9 215 222 l3 173 -26 31 -26 31 -170 3 c-94 2
-178 0 -187 -3z m308 -226 l0 -138 -73 0 c-39 1 -100 2 -134 3 l-63 2 0 135 0
135 135 0 135 0 0 -137z"/>
<path d="M5880 2100 c-29 -29 -32 -51 -28 -229 l3 -163 28 -24 c27 -23 33 -24
192 -24 90 0 175 4 190 10 47 18 57 63 53 241 -3 151 -4 159 -27 183 l-24 26
-184 0 c-169 0 -185 -2 -203 -20z m266 -86 c71 -34 96 -129 51 -195 -33 -49
-71 -65 -146 -60 -13 0 -41 18 -62 40 -35 35 -39 44 -39 90 0 110 97 172 196
125z"/>
<path d="M51320 2036 l0 -76 -70 0 -70 0 0 -45 0 -45 70 0 70 0 0 -70 0 -70
50 0 50 0 0 70 0 70 70 0 70 0 0 45 0 45 -70 0 -69 0 -3 73 -3 72 -47 3 -48 3
0 -75z"/>
<path d="M4610 2011 l0 -71 -70 0 -70 0 0 -45 0 -45 70 0 69 0 3 -72 3 -73 45
0 45 0 3 73 3 72 69 0 70 0 0 45 0 45 -70 0 -69 0 -3 68 -3 67 -47 3 -48 3 0
-70z"/>
<path d="M50483 1466 c-17 -8 -36 -23 -42 -35 -7 -12 -11 -88 -11 -191 l0
-172 29 -29 29 -29 170 0 c169 0 171 0 201 26 l31 26 0 178 c0 175 -1 180 -24
207 l-24 28 -164 3 c-124 1 -171 -1 -195 -12z m263 -117 c40 -37 57 -77 51
-120 -18 -138 -198 -169 -259 -45 -25 53 -19 101 19 147 34 40 58 50 116 45
33 -2 55 -10 73 -27z"/>
<path d="M3746 1419 c-26 -30 -26 -32 -26 -201 l0 -170 29 -29 29 -29 172 0
c104 0 179 4 192 11 37 20 48 69 48 219 0 150 -11 199 -48 219 -13 7 -89 11
-195 11 l-175 0 -26 -31z m344 -199 l0 -140 -134 0 c-76 0 -137 4 -141 10 -3
5 -3 68 1 140 l7 130 133 0 134 0 0 -140z"/>
<path d="M5990 1435 c-85 -39 -134 -117 -134 -215 0 -133 96 -230 227 -230
183 0 294 200 197 354 -45 70 -98 100 -184 104 -48 1 -82 -3 -106 -13z m159
-93 c98 -53 91 -195 -12 -246 -53 -25 -101 -15 -149 34 -34 33 -38 43 -38 86
0 113 103 177 199 126z"/>
<path d="M5330 1340 l0 -70 -70 0 -70 0 0 -50 0 -50 70 0 70 0 0 -70 0 -70 45
0 45 0 0 70 0 69 73 3 72 3 0 45 0 45 -72 3 -73 3 0 69 0 70 -45 0 -45 0 0
-70z"/>
<path d="M6770 1340 l0 -70 -70 0 -70 0 0 -50 0 -50 70 0 70 0 0 -70 0 -70 45
0 45 0 0 70 0 69 72 3 c72 3 72 3 71 31 -3 73 3 67 -73 67 l-70 0 0 70 0 70
-45 0 -45 0 0 -70z"/>
<path d="M50478 755 c-15 -9 -32 -24 -38 -35 -6 -10 -10 -92 -10 -190 l0 -172
29 -29 29 -29 170 0 c169 0 171 0 201 26 l31 26 0 178 c0 175 -1 180 -24 207
l-24 28 -169 2 c-135 2 -173 0 -195 -12z m322 -220 l0 -135 -140 0 -140 0 0
135 0 135 140 0 140 0 0 -135z"/>
<path d="M3907 739 c-80 -18 -146 -74 -172 -148 -32 -90 -13 -174 55 -241 146
-146 393 -45 393 161 0 148 -134 259 -276 228z m140 -131 c54 -55 57 -127 7
-187 -69 -82 -206 -46 -235 62 -9 33 -7 45 13 85 44 89 146 108 215 40z"/>
<path d="M5210 738 c-59 -22 -60 -25 -60 -225 0 -247 -14 -233 225 -233 l177
0 29 29 29 29 0 166 c0 102 -4 175 -11 190 -21 46 -64 57 -221 55 -79 -1 -154
-5 -168 -11z m308 -232 l3 -139 -92 6 c-51 4 -114 7 -141 7 l-48 0 0 135 0
136 138 -3 137 -3 3 -139z"/>
<path d="M5914 741 c-12 -5 -31 -22 -43 -37 -20 -25 -21 -38 -21 -196 l0 -170
29 -29 29 -29 174 0 c243 0 241 -2 236 249 -3 160 -3 161 -31 188 l-27 28
-163 2 c-89 2 -172 -1 -183 -6z m263 -133 c87 -88 32 -228 -89 -228 -86 0
-138 49 -138 130 0 88 59 144 143 137 40 -3 56 -11 84 -39z"/>
<path d="M6640 732 c-54 -27 -60 -48 -60 -220 0 -162 8 -200 49 -222 11 -6 93
-10 191 -10 l172 0 29 29 29 29 0 169 c0 188 -5 203 -66 229 -52 22 -298 19
-344 -4z m310 -223 l0 -142 -52 7 c-29 3 -90 6 -135 6 l-83 0 0 135 0 135 135
0 135 0 0 -141z"/>
<path d="M51320 650 l0 -70 -71 0 -70 0 3 -47 3 -48 68 -3 67 -3 0 -70 0 -70
48 3 47 3 5 70 5 70 65 0 65 0 3 48 3 47 -70 0 -71 0 0 70 0 70 -50 0 -50 0 0
-70z"/>
<path d="M4610 631 l0 -71 -70 0 -70 0 0 -50 0 -50 70 0 70 0 0 -71 0 -70 48
3 47 3 3 67 3 67 67 3 67 3 0 45 0 45 -70 5 -70 5 0 65 0 65 -47 3 -48 3 0
-70z"/>
</g>
</svg>
