<?xml version="1.0" standalone="no"?>
<!DOCTYPE svg PUBLIC "-//W3C//DTD SVG 20010904//EN"
 "http://www.w3.org/TR/2001/REC-SVG-20010904/DTD/svg10.dtd">
<svg version="1.0" xmlns="http://www.w3.org/2000/svg"
 width="500.000000pt" height="500.000000pt" viewBox="0 0 500.000000 500.000000"
 preserveAspectRatio="xMidYMid meet">

<g transform="translate(0.000000,500.000000) scale(0.100000,-0.100000)"
fill="#000000" stroke="none">
<path d="M2607 2995 c-50 -17 -85 -50 -108 -100 -17 -36 -19 -68 -19 -295 0
-145 5 -271 10 -292 24 -86 88 -127 213 -134 105 -6 167 14 211 69 l31 39 3
276 c2 153 0 292 -3 310 -8 42 -59 100 -110 123 -49 23 -172 25 -228 4z m176
-126 c15 -19 17 -48 17 -284 l0 -264 -27 -21 c-22 -17 -37 -21 -67 -17 -71 10
-71 9 -74 280 -2 133 0 257 3 275 11 60 107 80 148 31z"/>
<path d="M4481 2993 c-86 -43 -127 -122 -119 -235 6 -92 33 -138 167 -280 104
-111 120 -133 131 -178 15 -61 6 -116 -20 -130 -35 -19 -89 -12 -115 15 -21
20 -25 34 -25 79 0 62 3 59 -92 70 l-48 6 0 -64 c0 -164 122 -268 294 -254 68
6 101 28 136 89 21 38 25 57 25 134 0 126 -25 174 -166 320 -60 62 -116 128
-124 148 -42 101 10 185 95 155 38 -13 50 -35 50 -92 l0 -46 54 0 c30 0 62 -3
72 -7 15 -6 16 1 12 76 -4 70 -9 88 -34 124 -42 60 -100 87 -189 87 -45 0 -82
-6 -104 -17z"/>
<path d="M180 2502 l0 -499 148 22 c162 24 202 39 256 92 60 61 66 97 66 423
0 190 -4 298 -12 321 -17 53 -46 87 -91 112 -37 19 -60 22 -204 25 l-163 4 0
-500z m286 350 c30 -20 34 -55 34 -336 0 -281 0 -285 -22 -311 -18 -20 -37
-28 -81 -34 -31 -4 -59 -5 -62 -3 -3 3 -5 160 -5 349 l0 343 63 0 c34 0 67 -4
73 -8z"/>
<path d="M758 2610 c-1 -214 -3 -420 -3 -457 l0 -68 40 3 c22 1 57 5 78 8 l37
6 0 199 c0 151 3 201 13 204 6 2 45 5 85 8 l72 4 0 -200 0 -200 73 8 c39 3 73
7 73 8 1 1 4 197 8 435 l6 432 -80 0 -80 0 0 -179 c0 -205 7 -191 -101 -191
l-69 0 0 185 0 185 -75 0 -75 0 -2 -390z"/>
<path d="M1730 2585 l0 -415 65 0 65 0 1 318 c0 196 4 307 9 292 9 -23 110
-569 110 -590 0 -6 29 -10 64 -10 53 0 66 3 70 18 3 9 18 94 35 187 17 94 40
226 53 295 l23 125 3 -312 2 -313 75 0 75 0 0 410 0 411 -112 -3 -112 -3 -50
-293 c-27 -161 -53 -289 -56 -285 -6 7 -69 379 -86 508 -11 79 -4 75 -125 75
l-109 0 0 -415z"/>
<path d="M3025 2943 c7 -59 132 -738 139 -760 6 -15 196 -29 205 -15 3 6 19
86 35 179 16 92 47 276 71 408 l42 240 -65 3 c-35 2 -66 1 -69 -1 -4 -5 -102
-609 -103 -637 -1 -46 -20 31 -39 165 -12 83 -34 223 -48 313 l-26 162 -75 0
-74 0 7 -57z"/>
<path d="M3600 2570 l0 -430 59 0 c33 0 66 -3 75 -6 14 -6 16 36 16 430 l0
436 -75 0 -75 0 0 -430z"/>
<path d="M3860 2560 c0 -242 3 -440 8 -440 4 0 95 -9 202 -20 107 -11 201 -20
208 -20 8 0 12 19 12 60 0 33 -1 60 -2 61 -2 1 -61 6 -133 13 l-130 11 -3 142
-3 142 106 -6 105 -6 0 60 0 60 -52 7 c-29 3 -77 6 -105 6 l-53 0 0 120 0 120
130 0 130 0 0 65 0 65 -210 0 -210 0 0 -440z"/>
<path d="M1468 2633 l-138 -4 0 -61 0 -61 92 7 c50 3 117 6 150 6 l58 0 0 60
c0 43 -4 59 -12 58 -7 -1 -75 -4 -150 -5z"/>
</g>
</svg>
