<svg version="1.1" id="Layer_1" xmlns="http://www.w3.org/2000/svg" xmlns:xlink="http://www.w3.org/1999/xlink" x="0px" y="0px"
	 width="100%" viewBox="0 0 500 500" enable-background="new 0 0 500 500" xml:space="preserve">
<path fill="#FF1616" opacity="1.000000" stroke="none" 
	d="
M339.000000,501.000000 
	C226.000031,501.000000 113.500053,501.000000 1.000060,501.000000 
	C1.000040,334.333405 1.000040,167.666794 1.000020,1.000150 
	C167.666565,1.000100 334.333130,1.000100 500.999756,1.000050 
	C500.999847,167.666519 500.999847,334.333038 500.999939,500.999786 
	C447.166656,501.000000 393.333344,501.000000 339.000000,501.000000 
M287.146423,304.680939 
	C287.146423,304.680939 286.962463,304.900818 286.031219,304.844604 
	C277.349060,304.917908 268.666901,304.991241 259.606354,304.891357 
	C259.606354,304.891357 259.190338,304.899933 259.043884,304.150391 
	C258.190247,301.645935 257.326111,299.144989 256.484985,296.636322 
	C253.954086,289.087738 253.959320,289.090668 261.062408,286.098480 
	C261.225037,286.029968 261.225708,285.577057 261.295227,285.304565 
	C250.088715,285.304565 238.882217,285.304565 227.956970,285.304565 
	C230.460770,287.359619 233.763062,288.908600 235.169815,291.490356 
	C237.415588,295.611969 238.401321,300.420105 238.995605,304.856110 
	C231.669693,304.889679 224.343796,304.923248 216.768280,304.746704 
	C216.768280,304.746704 216.460144,304.853577 216.212234,304.169281 
	C209.367523,289.835785 197.827011,282.651855 182.120468,282.839752 
	C166.422775,283.027527 155.111115,290.631775 148.130814,304.717529 
	C148.130814,304.717529 147.961594,304.899872 147.032196,304.847595 
	C141.052795,304.859314 135.073395,304.871033 128.966293,304.853394 
	C128.966293,304.853394 128.908066,304.970795 128.792084,304.051514 
	C129.758011,297.704315 125.295860,289.891296 134.022720,285.324677 
	C126.619041,284.907654 119.434174,284.798157 112.261612,285.045441 
	C111.359451,285.076569 110.174385,286.852661 109.714104,288.048706 
	C107.574097,293.609680 105.643059,299.251099 103.283333,304.776276 
	C103.283333,304.776276 102.981308,304.980438 102.054016,304.857910 
	C93.377457,304.893951 84.700897,304.929993 75.740761,304.759521 
	C75.740761,304.759521 75.404411,304.859161 75.178856,304.133698 
	C72.709412,297.707123 70.239975,291.280579 67.989296,285.423340 
	C59.886997,285.423340 52.501530,285.423340 45.116062,285.423340 
	C51.030331,287.560608 51.447624,292.035522 51.071259,297.012604 
	C50.871891,299.649017 50.898952,302.302521 49.956161,304.881500 
	C49.272839,305.578918 48.001060,306.270294 47.993820,306.974670 
	C47.870777,318.943359 47.852158,330.914490 48.031521,342.881744 
	C48.042519,343.615417 49.892506,344.321533 51.004208,345.951721 
	C50.355568,352.225281 54.015732,359.901398 43.706772,363.541626 
	C50.178959,363.541626 55.068359,363.541626 59.957760,363.541626 
	C54.171101,361.946411 53.880070,357.623108 54.014408,353.025391 
	C54.092091,350.366638 54.107105,347.706085 55.067352,345.040802 
	C60.714615,345.006836 66.361877,344.972870 72.308868,345.150696 
	C72.308868,345.150696 72.673286,345.107239 72.855103,345.848358 
	C74.490311,350.160034 76.481339,354.376923 77.662483,358.809601 
	C78.888344,363.410065 81.187912,365.166840 85.982704,363.539398 
	C88.144371,357.509552 90.367554,351.308136 92.834198,345.201324 
	C92.834198,345.201324 93.009735,345.007904 93.942810,345.029877 
	C99.295006,345.012695 104.647209,344.995514 110.213226,345.202332 
	C110.213226,345.202332 110.508781,345.109802 110.514618,346.013123 
	C109.577660,352.040894 113.787064,359.663147 105.155151,363.654968 
	C114.713989,363.654968 124.272827,363.654968 133.831665,363.654968 
	C127.205894,361.260071 128.781357,355.756195 128.708725,350.959320 
	C128.678574,348.968536 128.778458,346.975800 128.906296,345.099213 
	C128.906296,345.099213 129.034668,345.032928 129.966049,345.035889 
	C135.989197,344.971283 142.012360,344.906677 148.456360,344.997925 
	C148.456360,344.997925 148.901413,345.055786 149.056549,345.739624 
	C156.258728,359.373413 167.635483,366.305450 182.987366,366.052002 
	C198.121628,365.802185 209.172485,358.628387 216.462097,344.946533 
	C216.626755,344.897400 216.791397,344.848267 217.881668,344.990265 
	C229.933289,344.937592 241.984924,344.884888 254.466812,344.984375 
	C254.466812,344.984375 254.918228,345.051483 255.048340,345.791382 
	C256.687622,350.321045 258.606720,354.773804 259.878967,359.404297 
	C260.925110,363.211761 262.660339,364.498108 266.783661,364.597504 
	C271.186493,364.703613 271.527374,362.032043 272.440155,359.255859 
	C273.996033,354.523560 275.545654,349.789154 277.542542,344.990540 
	C277.542542,344.990540 277.963898,344.834229 278.893524,344.995605 
	C291.647827,345.010223 304.402100,345.024811 317.320038,345.950073 
	C316.708435,352.311188 320.439606,360.056641 309.779785,363.716492 
	C321.608429,363.716492 331.585510,363.716492 341.562561,363.716492 
	C334.322113,361.495544 335.830902,355.616058 335.748901,350.482849 
	C335.719879,348.667236 335.864136,346.848877 336.875366,345.033936 
	C343.922791,344.993195 350.970184,344.952454 358.331543,345.131744 
	C358.331543,345.131744 358.713562,345.099670 358.727905,346.008667 
	C358.035858,352.278198 361.732086,360.006348 352.892578,363.719177 
	C372.577545,363.719177 392.262512,363.719177 412.709290,363.719177 
	C412.709290,357.634766 412.709290,351.831055 413.263306,345.333496 
	C417.254913,345.216461 421.246552,345.099426 425.484406,345.889160 
	C425.350403,349.718597 424.981903,353.561554 425.201660,357.370605 
	C425.285736,358.828064 426.382385,360.993744 427.582703,361.501831 
	C439.942566,366.734009 452.749939,368.299530 465.520447,363.542786 
	C482.055634,357.383820 485.807251,337.632721 473.251190,324.907074 
	C473.189636,324.594940 473.087219,324.296875 473.193481,323.102203 
	C473.193481,317.188812 473.193481,311.275421 473.193481,305.104492 
	C462.767059,305.104492 452.872253,305.104492 442.553192,304.954712 
	C442.553192,304.954712 442.104309,304.923920 441.888702,304.132996 
	C439.479156,295.912445 441.361237,290.245605 447.572693,287.018890 
	C455.720276,282.786346 465.326355,285.667175 469.748962,293.681580 
	C471.528564,296.906464 473.280640,300.146545 475.045227,303.379700 
	C476.475494,299.864166 476.405914,296.709137 476.965729,293.670074 
	C477.723236,289.557953 475.743164,287.623718 472.316498,286.198547 
	C462.595734,282.155884 452.645844,281.508057 442.605560,284.458191 
	C432.182617,287.520721 426.832031,294.321991 425.871735,304.826111 
	C425.871735,304.826111 425.791565,304.826324 424.885468,304.830902 
	C420.265137,304.763855 415.644775,304.696777 411.001465,303.950470 
	C410.950378,303.500427 410.899261,303.050385 410.613586,301.846954 
	C410.312531,296.276215 410.011475,290.705475 409.724823,285.401489 
	C390.463440,285.401489 371.647003,285.401489 352.830566,285.401489 
	C358.524200,287.325928 359.063965,291.587585 358.769745,296.413605 
	C358.598480,299.223145 358.673065,302.047699 358.284821,304.764709 
	C358.284821,304.764709 357.996002,304.990082 357.065826,304.869904 
	C350.059631,304.896973 343.053467,304.924042 335.838684,304.049927 
	C336.598724,297.408112 332.261200,289.253448 342.749390,285.233612 
	C331.473328,285.233612 321.491974,285.233612 311.510590,285.233612 
	C318.428772,287.123291 317.391937,292.585754 317.351318,297.510956 
	C317.330841,299.990784 317.131439,302.469086 316.077393,304.860474 
	C307.762604,304.883331 299.447815,304.906189 291.096832,304.186035 
	C294.064026,297.346954 293.140717,288.189789 302.445374,285.191071 
	C297.135162,285.191071 291.824921,285.191071 285.975403,285.191071 
	C292.688141,289.061615 292.686371,289.061035 290.244049,296.321075 
	C289.296265,299.138428 288.358459,301.959137 287.146423,304.680939 
M298.758301,224.036301 
	C292.196808,220.990372 289.004517,216.137085 290.064545,208.675278 
	C290.458923,205.899292 290.128387,203.020325 290.128387,200.188309 
	C290.128387,189.577347 290.128357,178.966370 290.128357,168.324524 
	C304.184967,168.324524 317.710968,168.324524 331.428986,168.324524 
	C331.428986,182.203018 331.192261,195.697830 331.528320,209.178360 
	C331.697632,215.969193 330.606628,221.391312 323.156769,223.428818 
	C323.045105,223.459351 323.074707,224.006378 323.005829,224.586914 
	C337.624481,224.586914 352.189331,224.586914 367.700714,224.586914 
	C366.510254,223.546967 366.126770,222.943954 365.618652,222.808594 
	C358.767181,220.983246 357.677582,216.102798 357.730438,209.771942 
	C357.959778,182.286697 358.017120,154.796249 357.701416,127.312714 
	C357.618408,120.085907 358.742950,114.487801 366.519531,112.291351 
	C366.678680,112.246399 366.696716,111.701729 366.847443,111.142059 
	C352.168640,111.142059 337.567322,111.142059 321.999573,111.142059 
	C323.206268,112.210678 323.594238,112.837669 324.106140,112.964500 
	C330.396942,114.523094 331.642914,118.966545 331.498291,124.744934 
	C331.248291,134.734009 331.429077,144.733871 331.429169,154.729202 
	C331.429199,157.813828 331.429169,160.898453 331.429169,163.895294 
	C317.262482,163.895294 303.868835,163.895294 290.128357,163.895294 
	C290.128357,151.416229 290.420258,139.273804 290.016266,127.154602 
	C289.782837,120.152924 290.952179,114.612244 298.451111,112.293182 
	C298.613739,112.242889 298.624695,111.702003 298.751648,111.217010 
	C284.145721,111.217010 269.598236,111.217010 254.450256,111.217010 
	C255.251923,112.170525 255.493362,112.756500 255.852798,112.841095 
	C263.082947,114.542908 264.109863,119.686974 264.064789,126.162781 
	C263.866577,154.648117 263.926758,183.135773 264.025330,211.622131 
	C264.043457,216.854630 262.670319,220.753876 257.154907,222.293259 
	C256.285583,222.535889 255.607712,223.464447 253.940170,224.794800 
	C269.612183,224.794800 284.027710,224.794800 298.758301,224.036301 
M144.119110,201.494385 
	C144.119110,203.493408 143.929764,205.513809 144.152740,207.487640 
	C144.998138,214.971115 143.446976,221.047089 135.313461,223.573502 
	C135.224747,223.601059 135.302414,224.164307 135.302414,224.717560 
	C152.388733,224.717560 169.557892,225.866913 186.516525,224.466644 
	C217.218857,221.931549 235.878006,205.010010 239.397064,176.778336 
	C244.345169,137.081894 221.324417,112.232445 185.726868,110.955017 
	C169.753983,110.381828 153.746902,110.753654 137.755295,110.730797 
	C136.880569,110.729546 136.005402,111.043213 134.829773,111.267700 
	C135.366623,112.020447 135.573227,112.654755 135.915466,112.739197 
	C143.022507,114.492706 144.283035,119.465347 144.217880,126.033005 
	C143.971649,150.852051 144.119034,175.675003 144.119110,201.494385 
z"/>
<path fill="#FFFBFB" opacity="1.000000" stroke="none" 
	d="
M298.600769,224.415558 
	C284.027710,224.794800 269.612183,224.794800 253.940170,224.794800 
	C255.607712,223.464447 256.285583,222.535889 257.154907,222.293259 
	C262.670319,220.753876 264.043457,216.854630 264.025330,211.622131 
	C263.926758,183.135773 263.866577,154.648117 264.064789,126.162781 
	C264.109863,119.686974 263.082947,114.542908 255.852798,112.841095 
	C255.493362,112.756500 255.251923,112.170525 254.450256,111.217010 
	C269.598236,111.217010 284.145721,111.217010 298.751648,111.217010 
	C298.624695,111.702003 298.613739,112.242889 298.451111,112.293182 
	C290.952179,114.612244 289.782837,120.152924 290.016266,127.154602 
	C290.420258,139.273804 290.128357,151.416229 290.128357,163.895294 
	C303.868835,163.895294 317.262482,163.895294 331.429169,163.895294 
	C331.429169,160.898453 331.429199,157.813828 331.429169,154.729202 
	C331.429077,144.733871 331.248291,134.734009 331.498291,124.744934 
	C331.642914,118.966545 330.396942,114.523094 324.106140,112.964500 
	C323.594238,112.837669 323.206268,112.210678 321.999573,111.142059 
	C337.567322,111.142059 352.168640,111.142059 366.847443,111.142059 
	C366.696716,111.701729 366.678680,112.246399 366.519531,112.291351 
	C358.742950,114.487801 357.618408,120.085907 357.701416,127.312714 
	C358.017120,154.796249 357.959778,182.286697 357.730438,209.771942 
	C357.677582,216.102798 358.767181,220.983246 365.618652,222.808594 
	C366.126770,222.943954 366.510254,223.546967 367.700714,224.586914 
	C352.189331,224.586914 337.624481,224.586914 323.005829,224.586914 
	C323.074707,224.006378 323.045105,223.459351 323.156769,223.428818 
	C330.606628,221.391312 331.697632,215.969193 331.528320,209.178360 
	C331.192261,195.697830 331.428986,182.203018 331.428986,168.324524 
	C317.710968,168.324524 304.184967,168.324524 290.128357,168.324524 
	C290.128357,178.966370 290.128387,189.577347 290.128387,200.188309 
	C290.128387,203.020325 290.458923,205.899292 290.064545,208.675278 
	C289.004517,216.137085 292.196808,220.990372 298.600769,224.415558 
z"/>
<path fill="#FFFCFC" opacity="1.000000" stroke="none" 
	d="
M144.119110,200.995438 
	C144.119034,175.675003 143.971649,150.852051 144.217880,126.033005 
	C144.283035,119.465347 143.022507,114.492706 135.915466,112.739197 
	C135.573227,112.654755 135.366623,112.020447 134.829773,111.267700 
	C136.005402,111.043213 136.880569,110.729546 137.755295,110.730797 
	C153.746902,110.753654 169.753983,110.381828 185.726868,110.955017 
	C221.324417,112.232445 244.345169,137.081894 239.397064,176.778336 
	C235.878006,205.010010 217.218857,221.931549 186.516525,224.466644 
	C169.557892,225.866913 152.388733,224.717560 135.302414,224.717560 
	C135.302414,224.164307 135.224747,223.601059 135.313461,223.573502 
	C143.446976,221.047089 144.998138,214.971115 144.152740,207.487640 
	C143.929764,205.513809 144.119110,203.493408 144.119110,200.995438 
M184.685806,114.664978 
	C179.960327,114.456917 175.234833,114.248856 170.492050,114.040031 
	C170.492050,150.256790 170.492050,185.626953 170.492050,221.381088 
	C173.589615,221.381088 176.395752,221.464722 179.195618,221.367538 
	C197.255112,220.740631 206.374664,213.154358 209.991760,195.536652 
	C213.099686,180.398972 212.907181,165.091446 211.439224,149.823593 
	C210.887787,144.088135 209.607513,138.306091 207.790482,132.833862 
	C204.281815,122.267166 196.762238,116.118416 184.685806,114.664978 
z"/>
<path fill="#DEBBBB" opacity="1.000000" stroke="none" 
	d="
M425.238159,344.982361 
	C421.246552,345.099426 417.254913,345.216461 412.796021,345.761017 
	C412.037537,346.283569 411.778473,346.228210 411.248108,345.671936 
	C399.635834,345.227448 388.327026,345.133453 376.890472,345.139130 
	C376.762756,345.238831 376.456177,345.133789 376.595306,344.675781 
	C376.820496,339.780151 376.766266,335.333313 377.056732,330.909088 
	C377.185638,328.945526 378.010956,327.027649 378.630737,325.464661 
	C378.741364,327.462189 378.741364,329.084137 378.741364,330.706085 
	C379.183350,331.003632 379.625336,331.301208 380.067352,331.598755 
	C381.349518,330.251373 382.631683,328.903992 384.085785,327.375885 
	C385.393097,328.520782 385.798492,333.293732 388.577423,329.747162 
	C388.990204,327.431793 389.402954,325.116455 390.007812,323.098602 
	C392.941620,326.539001 395.683380,329.681885 398.484009,332.892273 
	C398.484009,326.317719 398.484009,319.685242 398.484009,313.571320 
	C395.646790,316.391266 392.829956,319.190948 389.907349,321.630554 
	C387.983795,314.834076 383.195679,317.120819 378.894653,317.252014 
	C378.700684,319.022461 378.542603,320.465424 378.039276,321.667542 
	C377.289612,315.893860 376.885193,310.360992 376.638489,304.779663 
	C376.796204,304.731171 377.062866,304.925598 377.527985,304.903503 
	C389.003540,304.797516 400.014008,304.713623 411.024445,304.629730 
	C415.644775,304.696777 420.265137,304.763855 425.390198,305.276215 
	C426.732666,309.762695 427.570404,313.803833 428.466064,318.235352 
	C428.523987,322.671417 428.523987,326.717163 428.523987,331.027252 
	C431.781281,331.027252 434.277588,331.296356 436.658752,330.890137 
	C437.566254,330.735321 438.209534,329.031372 439.335083,328.059967 
	C444.645569,330.472992 449.917572,332.374847 454.443909,335.394470 
	C458.287506,337.958679 461.270599,341.812836 464.473358,345.150360 
	C464.312286,345.204498 464.022827,345.026459 463.551666,345.024719 
	C451.356018,345.021088 439.631531,345.019165 427.672668,344.979919 
	C426.704926,344.955841 425.971527,344.969116 425.238159,344.982361 
M410.451111,317.120667 
	C409.255768,317.981262 407.136719,318.740540 407.029236,319.720490 
	C406.621552,323.437103 406.865112,327.225098 406.865112,330.986420 
	C407.462860,331.222931 408.060608,331.459442 408.658356,331.695953 
	C409.434143,330.592438 410.784760,329.535156 410.877869,328.376801 
	C411.156342,324.911011 410.942749,321.405640 410.451111,317.120667 
z"/>
<path fill="#DFBCBC" opacity="1.000000" stroke="none" 
	d="
M291.133026,304.929077 
	C299.447815,304.906189 307.762604,304.883331 316.684631,304.777649 
	C317.291840,304.694794 317.627533,304.865753 317.437500,305.323364 
	C317.169067,311.934906 316.969147,318.090271 317.044342,324.242279 
	C317.129425,331.199341 317.461548,338.153381 317.539368,345.201538 
	C317.392517,345.294373 317.156403,345.039429 317.156403,345.039429 
	C304.402100,345.024811 291.647827,345.010223 278.432983,344.522888 
	C279.001984,339.651794 280.031525,335.253479 281.209412,330.604218 
	C282.090546,328.916016 282.823303,327.478760 283.699768,325.628052 
	C285.914490,318.497406 287.985535,311.780273 290.322968,305.007935 
	C290.770599,304.944824 290.951813,304.936951 291.133026,304.929077 
M301.132874,329.375458 
	C301.135956,335.843506 301.135956,335.843506 304.815826,335.400757 
	C304.815826,328.318054 304.815826,321.234711 304.815826,314.151367 
	C304.377716,313.904236 303.939606,313.657104 303.501465,313.409943 
	C302.712433,314.593597 301.340881,315.731232 301.243073,316.969482 
	C300.943573,320.759979 301.133392,324.589111 301.132874,329.375458 
z"/>
<path fill="#DEBBBB" opacity="1.000000" stroke="none" 
	d="
M217.017883,304.956848 
	C224.343796,304.923248 231.669693,304.889679 239.734604,304.877441 
	C240.656311,304.930267 240.839020,304.961731 241.023132,305.380859 
	C242.623047,309.854553 244.221573,313.940491 245.819702,318.391632 
	C244.662811,322.638763 243.506302,326.520752 241.955658,331.725708 
	C245.100647,330.486420 247.049911,329.718323 249.141327,329.290527 
	C250.867844,334.697998 252.452194,339.765076 254.036530,344.832184 
	C241.984924,344.884888 229.933289,344.937592 217.422104,344.503815 
	C217.960876,339.742950 218.959229,335.468536 220.395050,331.121582 
	C222.570587,331.049072 224.308624,331.049072 226.046661,331.049072 
	C226.219070,330.391083 226.391479,329.733124 226.563904,329.075134 
	C224.588608,328.342560 222.613327,327.609955 220.692581,326.897614 
	C220.153076,323.649841 219.586060,320.236511 219.027847,316.402405 
	C218.363724,312.306702 217.690796,308.631775 217.017883,304.956848 
z"/>
<path fill="#DEDEDE" opacity="1.000000" stroke="none" 
	d="
M102.981300,304.980438 
	C102.981308,304.980438 103.283333,304.776276 103.860458,304.846893 
	C105.241272,304.920074 106.044968,304.922607 106.840729,305.297791 
	C102.225113,318.782959 97.617424,331.895416 93.009735,345.007904 
	C93.009735,345.007904 92.834198,345.201324 92.203178,345.127350 
	C85.272537,345.071320 78.972908,345.089264 72.673286,345.107239 
	C72.673286,345.107239 72.308868,345.150696 72.143463,344.668152 
	C69.614685,337.726593 67.251305,331.267548 64.953522,324.471558 
	C66.250275,320.305145 65.197281,317.686218 61.054840,316.322937 
	C59.999474,312.327515 58.964870,308.702728 58.402283,305.051819 
	C64.384338,304.970123 69.894371,304.914642 75.404411,304.859161 
	C75.404411,304.859161 75.740761,304.759521 75.926216,305.237213 
	C78.236061,311.485291 80.360451,317.255676 82.590446,323.461151 
	C83.895309,326.279205 80.186661,330.852966 85.981995,331.564270 
	C87.107628,334.843872 88.205994,337.755768 89.304359,340.667633 
	C89.709923,340.602539 90.115486,340.537445 90.521049,340.472321 
	C91.688560,337.319611 92.856071,334.166870 94.173187,330.681549 
	C97.208961,321.892792 100.095131,313.436615 102.981300,304.980438 
z"/>
<path fill="#DCDCDC" opacity="1.000000" stroke="none" 
	d="
M428.408142,317.845001 
	C427.570404,313.803833 426.732666,309.762695 425.843231,305.273926 
	C425.791565,304.826324 425.871735,304.826111 426.351257,304.894867 
	C431.921967,304.950378 437.013153,304.937134 442.104309,304.923920 
	C442.104309,304.923920 442.553192,304.954712 442.820129,305.365631 
	C445.241150,307.940002 447.195282,310.366455 449.602631,312.196838 
	C452.292236,314.241852 455.393097,315.746033 458.086914,317.733765 
	C452.716949,324.637970 460.231110,324.665131 463.598511,327.582794 
	C461.874786,327.674835 460.942322,327.606262 460.067474,327.799042 
	C458.752380,328.088867 457.477631,328.561707 456.185730,328.956726 
	C457.421173,329.697723 458.588867,330.620514 459.916138,331.115234 
	C460.785248,331.439240 462.118195,331.507935 462.833984,331.050446 
	C464.369019,330.069336 466.508698,328.828644 466.763336,327.402008 
	C466.999786,326.077209 465.306793,324.184357 464.085480,322.901245 
	C463.262787,322.036896 461.783386,321.797638 460.597748,321.278717 
	C460.740173,320.868256 460.882599,320.457794 461.025024,320.047333 
	C462.601044,320.305389 464.177032,320.563416 466.115295,320.895020 
	C468.632965,321.983398 470.788422,322.998169 472.943878,324.012939 
	C473.087219,324.296875 473.189636,324.594940 473.163910,325.650391 
	C473.054962,329.709351 473.018188,333.024933 473.014557,336.340576 
	C473.005371,344.775330 473.011292,344.775330 464.634430,345.096222 
	C461.270599,341.812836 458.287506,337.958679 454.443909,335.394470 
	C449.917572,332.374847 444.645569,330.472992 438.941772,328.026367 
	C438.046539,326.237000 437.906372,324.507721 437.764038,322.751495 
	C436.137299,322.417633 434.535370,322.088837 432.855865,321.744110 
	C434.035828,318.807800 439.585876,322.672729 438.686157,316.680847 
	C435.112854,317.085571 431.760498,317.465302 428.408142,317.845001 
z"/>
<path fill="#DFBCBC" opacity="1.000000" stroke="none" 
	d="
M336.047272,304.951111 
	C343.053467,304.924042 350.059631,304.896973 357.546631,305.387817 
	C358.034271,309.535645 358.041046,313.165558 357.606750,316.874542 
	C355.251709,317.054352 353.337708,317.155121 351.355469,317.259460 
	C351.355469,322.076385 351.355469,326.418854 351.355469,330.862061 
	C353.814819,330.992950 355.932220,331.105652 358.050598,331.668762 
	C358.040222,336.383331 358.028931,340.647522 358.017639,344.911713 
	C350.970184,344.952454 343.922791,344.993195 336.284607,345.157867 
	C335.693817,345.281799 335.390991,345.119751 335.571838,344.664551 
	C335.648285,331.091766 335.543884,317.974182 335.606995,304.780365 
	C335.774475,304.704132 336.047272,304.951111 336.047272,304.951111 
z"/>
<path fill="#E1DADA" opacity="1.000000" stroke="none" 
	d="
M358.047852,316.795471 
	C358.041046,313.165558 358.034271,309.535645 358.011719,305.447906 
	C357.996002,304.990082 358.284821,304.764709 358.950317,304.849579 
	C365.237457,304.899017 370.859131,304.863586 376.480774,304.828156 
	C376.885193,310.360992 377.289612,315.893860 378.181885,322.048767 
	C378.619873,323.476898 378.570007,324.282990 378.520142,325.089050 
	C378.010956,327.027649 377.185638,328.945526 377.056732,330.909088 
	C376.766266,335.333313 376.820496,339.780151 376.179077,344.631378 
	C369.987030,345.063202 364.350281,345.081421 358.713562,345.099670 
	C358.713562,345.099670 358.331543,345.131744 358.174591,345.021729 
	C358.028931,340.647522 358.040222,336.383331 358.440796,331.598450 
	C359.809570,330.700897 360.789093,330.324036 361.768616,329.947144 
	C360.518127,328.892639 359.267670,327.838104 357.710754,326.525146 
	C364.313995,324.809875 359.574463,322.792542 357.877655,321.262817 
	C359.141602,320.117493 360.077393,319.269531 361.013184,318.421570 
	C360.024750,317.879547 359.036285,317.337494 358.047852,316.795471 
z"/>
<path fill="#DEDEDE" opacity="1.000000" stroke="none" 
	d="
M219.957565,331.194122 
	C218.959229,335.468536 217.960876,339.742950 216.959290,344.408264 
	C216.791397,344.848267 216.626755,344.897400 215.744766,344.984070 
	C210.049088,345.022736 205.070724,345.023834 200.053146,344.575378 
	C200.334259,336.344025 200.829926,328.564117 200.913925,320.779755 
	C200.970917,315.498138 200.450027,310.210297 200.643509,304.944641 
	C206.219681,304.927216 211.339905,304.890381 216.460144,304.853577 
	C216.460144,304.853577 216.768280,304.746704 216.893082,304.851776 
	C217.690796,308.631775 218.363724,312.306702 218.604980,316.487610 
	C217.457703,317.998962 216.201279,318.965118 216.124954,320.016907 
	C215.866638,323.576447 216.026443,327.166321 216.026443,330.762848 
	C217.688934,330.945251 218.823257,331.069672 219.957565,331.194122 
z"/>
<path fill="#DEDEDE" opacity="1.000000" stroke="none" 
	d="
M148.901413,345.055786 
	C148.901413,345.055786 148.456360,344.997925 148.222778,344.537292 
	C143.630692,331.020782 143.669724,317.961823 147.961594,304.899872 
	C147.961594,304.899872 148.130814,304.717529 148.747101,304.818909 
	C154.502319,304.920258 159.641220,304.920197 164.850540,305.358765 
	C164.611771,309.449158 164.302612,313.100922 163.644669,316.864990 
	C159.468781,318.140900 158.355850,321.087341 158.503845,324.651123 
	C158.649796,328.165710 160.491653,330.494385 163.986816,331.786224 
	C164.277695,336.480103 164.570724,340.761261 164.405396,345.025085 
	C158.931824,345.023773 153.916626,345.039764 148.901413,345.055786 
z"/>
<path fill="#DFDBDB" opacity="1.000000" stroke="none" 
	d="
M110.508781,345.109802 
	C110.508781,345.109802 110.213226,345.202332 110.117020,344.625793 
	C110.042976,339.636414 110.065155,335.223602 110.534714,330.881897 
	C113.950302,330.953003 116.918510,330.953003 119.886711,330.953003 
	C120.109695,330.412109 120.332680,329.871216 120.555656,329.330322 
	C118.536766,328.451141 116.517868,327.571991 113.996841,326.474152 
	C113.996841,323.643585 113.996841,320.379181 113.996841,316.963806 
	C112.429398,317.089935 111.278847,317.182495 110.123642,316.842529 
	C110.483803,312.566711 110.848625,308.723419 111.666878,304.911591 
	C117.716225,304.952332 123.312149,304.961548 128.908066,304.970795 
	C128.908066,304.970795 128.966293,304.853394 128.997818,305.343811 
	C129.031113,318.900482 129.032898,331.966705 129.034668,345.032928 
	C129.034668,345.032928 128.906296,345.099213 128.408325,345.064667 
	C122.109833,345.056702 116.309311,345.083252 110.508781,345.109802 
z"/>
<path fill="#DEDEDE" opacity="1.000000" stroke="none" 
	d="
M254.251678,344.908264 
	C252.452194,339.765076 250.867844,334.697998 249.528168,329.186127 
	C251.464035,329.651733 253.155212,330.562103 254.846390,331.472473 
	C255.164078,331.098083 255.481781,330.723694 255.799484,330.349335 
	C254.465332,325.893250 253.131195,321.437195 251.642349,316.464447 
	C249.388107,317.069244 247.604095,317.547852 245.820084,318.026489 
	C244.221573,313.940491 242.623047,309.854553 241.489014,305.377991 
	C247.699097,304.958221 253.444717,304.929077 259.190338,304.899933 
	C259.190338,304.899933 259.606354,304.891357 259.796692,305.375427 
	C260.456757,307.783508 260.796783,309.750458 261.417603,311.624420 
	C265.120728,322.802155 268.888641,333.958466 272.200775,345.084534 
	C266.150574,345.048553 260.534393,345.050018 254.918228,345.051483 
	C254.918228,345.051483 254.466812,344.984375 254.251678,344.908264 
z"/>
<path fill="#DEBBBB" opacity="1.000000" stroke="none" 
	d="
M129.500366,345.034424 
	C129.032898,331.966705 129.031113,318.900482 129.061676,305.358521 
	C135.073395,304.871033 141.052795,304.859314 147.496887,304.873718 
	C143.669724,317.961823 143.630692,331.020782 148.012344,344.459351 
	C142.012360,344.906677 135.989197,344.971283 129.500366,345.034424 
M141.149902,320.685791 
	C141.010864,318.887054 140.572739,315.187775 138.724945,317.454407 
	C136.726578,319.905731 137.357224,324.654022 137.289352,328.408569 
	C137.273956,329.260651 139.093903,330.159210 140.109711,330.986481 
	C140.177124,331.041412 140.591034,330.670837 141.150055,330.288971 
	C141.150055,327.542511 141.150055,324.584778 141.149902,320.685791 
z"/>
<path fill="#FFF7F7" opacity="1.000000" stroke="none" 
	d="
M164.780136,304.920135 
	C159.641220,304.920197 154.502319,304.920258 148.850128,304.888611 
	C155.111115,290.631775 166.422775,283.027527 182.120468,282.839752 
	C197.827011,282.651855 209.367523,289.835785 216.336182,304.511414 
	C211.339905,304.890381 206.219681,304.927216 200.396240,304.883911 
	C199.535324,304.864624 199.377609,304.925415 199.299225,304.570496 
	C198.967651,302.044983 198.722488,299.886383 198.118164,297.833527 
	C194.890305,286.868561 185.187500,282.062347 175.298462,286.704407 
	C167.608734,290.314087 166.288864,297.547607 165.415695,304.906128 
	C165.214066,304.808502 164.780136,304.920135 164.780136,304.920135 
z"/>
<path fill="#FFF7F7" opacity="1.000000" stroke="none" 
	d="
M464.473358,345.150360 
	C473.011292,344.775330 473.005371,344.775330 473.014557,336.340576 
	C473.018188,333.024933 473.054962,329.709351 473.102356,325.879242 
	C485.807251,337.632721 482.055634,357.383820 465.520447,363.542786 
	C452.749939,368.299530 439.942566,366.734009 427.582703,361.501831 
	C426.382385,360.993744 425.285736,358.828064 425.201660,357.370605 
	C424.981903,353.561554 425.350403,349.718597 425.361267,345.435760 
	C425.971527,344.969116 426.704926,344.955841 427.681824,345.344788 
	C431.076050,352.426849 433.289856,359.913696 441.470947,362.459320 
	C448.284454,364.579407 455.023956,364.640289 460.625916,359.579498 
	C464.930908,355.690338 465.880005,350.577301 464.022827,345.026459 
	C464.022827,345.026459 464.312286,345.204498 464.473358,345.150360 
z"/>
<path fill="#FFF7F7" opacity="1.000000" stroke="none" 
	d="
M148.978973,345.397705 
	C153.916626,345.039764 158.931824,345.023773 164.640320,345.082153 
	C165.333603,345.156525 165.790665,345.004181 165.746918,345.413910 
	C167.328583,356.473236 171.330856,361.817871 178.666489,363.134918 
	C190.591812,365.275970 198.260956,358.482208 199.365067,345.072357 
	C199.606567,345.131805 200.092377,345.024933 200.092377,345.024933 
	C205.070724,345.023834 210.049088,345.022736 215.489700,345.021118 
	C209.172485,358.628387 198.121628,365.802185 182.987366,366.052002 
	C167.635483,366.305450 156.258728,359.373413 148.978973,345.397705 
z"/>
<path fill="#FFFCFC" opacity="1.000000" stroke="none" 
	d="
M376.638489,304.779663 
	C370.859131,304.863586 365.237457,304.899017 359.126434,304.899963 
	C358.673065,302.047699 358.598480,299.223145 358.769745,296.413605 
	C359.063965,291.587585 358.524200,287.325928 352.830566,285.401489 
	C371.647003,285.401489 390.463440,285.401489 409.724823,285.401489 
	C410.011475,290.705475 410.312531,296.276215 410.387695,302.360962 
	C408.287842,299.560394 406.603210,296.117401 404.473022,292.976593 
	C403.064026,290.899078 401.136322,287.830933 399.232056,287.669525 
	C391.894836,287.047577 384.473511,287.417206 377.062866,287.417206 
	C377.062866,293.659088 377.062866,299.292328 377.062866,304.925598 
	C377.062866,304.925598 376.796204,304.731171 376.638489,304.779663 
z"/>
<path fill="#FFFBFB" opacity="1.000000" stroke="none" 
	d="
M358.720734,345.554138 
	C364.350281,345.081421 369.987030,345.063202 376.039978,345.089355 
	C376.456177,345.133789 376.762756,345.238831 376.824310,345.598511 
	C376.885864,351.033783 376.885864,356.109375 376.885864,361.573547 
	C380.649292,361.573547 383.862213,361.112335 386.896393,361.653442 
	C400.008270,363.991669 408.617828,359.572235 411.551544,346.022430 
	C411.778473,346.228210 412.037537,346.283569 412.519012,346.107941 
	C412.709290,351.831055 412.709290,357.634766 412.709290,363.719177 
	C392.262512,363.719177 372.577545,363.719177 352.892578,363.719177 
	C361.732086,360.006348 358.035858,352.278198 358.720734,345.554138 
z"/>
<path fill="#FE1F1F" opacity="1.000000" stroke="none" 
	d="
M377.527985,304.903503 
	C377.062866,299.292328 377.062866,293.659088 377.062866,287.417206 
	C384.473511,287.417206 391.894836,287.047577 399.232056,287.669525 
	C401.136322,287.830933 403.064026,290.899078 404.473022,292.976593 
	C406.603210,296.117401 408.287842,299.560394 410.505005,302.737671 
	C410.899261,303.050385 410.950378,303.500427 411.012939,304.290100 
	C400.014008,304.713623 389.003540,304.797516 377.527985,304.903503 
z"/>
<path fill="#DDBABA" opacity="1.000000" stroke="none" 
	d="
M272.634796,345.121948 
	C268.888641,333.958466 265.120728,322.802155 261.417603,311.624420 
	C260.796783,309.750458 260.456757,307.783508 259.985870,305.462036 
	C268.666901,304.991241 277.349060,304.917908 286.455872,305.252563 
	C285.523956,309.561005 284.167358,313.461548 282.388977,317.265381 
	C280.492371,317.048462 278.769470,316.390869 277.599640,316.931030 
	C275.741058,317.789246 273.549591,319.171478 272.881378,320.874481 
	C272.507751,321.826691 274.802094,323.984711 276.125275,325.380402 
	C276.848297,326.143036 278.052765,326.449280 279.040161,326.961334 
	C278.922852,327.253296 278.805573,327.545288 278.688293,327.837280 
	C276.818909,327.665497 274.949493,327.493713 272.872803,327.302887 
	C271.781982,332.578552 276.162292,330.451447 278.025940,331.845764 
	C276.751007,336.499481 275.489380,340.793823 273.832764,345.251282 
	C273.170166,345.316925 272.902466,345.219452 272.634796,345.121948 
z"/>
<path fill="#FFF5F5" opacity="1.000000" stroke="none" 
	d="
M441.996521,304.528442 
	C437.013153,304.937134 431.921967,304.950378 426.356750,304.934570 
	C426.832031,294.321991 432.182617,287.520721 442.605560,284.458191 
	C452.645844,281.508057 462.595734,282.155884 472.316498,286.198547 
	C475.743164,287.623718 477.723236,289.557953 476.965729,293.670074 
	C476.405914,296.709137 476.475494,299.864166 475.045227,303.379700 
	C473.280640,300.146545 471.528564,296.906464 469.748962,293.681580 
	C465.326355,285.667175 455.720276,282.786346 447.572693,287.018890 
	C441.361237,290.245605 439.479156,295.912445 441.996521,304.528442 
z"/>
<path fill="#FFFBFB" opacity="1.000000" stroke="none" 
	d="
M128.850067,304.511169 
	C123.312149,304.961548 117.716225,304.952332 111.591034,304.548950 
	C109.236389,302.109100 107.817856,302.288422 106.848663,304.925171 
	C106.044968,304.922607 105.241272,304.920074 104.037415,304.890625 
	C105.643059,299.251099 107.574097,293.609680 109.714104,288.048706 
	C110.174385,286.852661 111.359451,285.076569 112.261612,285.045441 
	C119.434174,284.798157 126.619041,284.907654 134.022720,285.324677 
	C125.295860,289.891296 129.758011,297.704315 128.850067,304.511169 
z"/>
<path fill="#FFFBFB" opacity="1.000000" stroke="none" 
	d="
M259.117126,304.525146 
	C253.444717,304.929077 247.699097,304.958221 241.487610,304.990295 
	C240.839020,304.961731 240.656311,304.930267 240.196701,304.918396 
	C238.401321,300.420105 237.415588,295.611969 235.169815,291.490356 
	C233.763062,288.908600 230.460770,287.359619 227.956970,285.304565 
	C238.882217,285.304565 250.088715,285.304565 261.298584,285.304016 
	C261.225708,285.577057 261.225037,286.029968 261.062408,286.098480 
	C253.959320,289.090668 253.954086,289.087738 256.484985,296.636322 
	C257.326111,299.144989 258.190247,301.645935 259.117126,304.525146 
z"/>
<path fill="#DFBCBC" opacity="1.000000" stroke="none" 
	d="
M106.840729,305.297821 
	C107.817856,302.288422 109.236389,302.109100 111.137604,304.517456 
	C110.848625,308.723419 110.483803,312.566711 110.094193,317.288361 
	C110.075371,322.381378 110.081345,326.596069 110.087326,330.810760 
	C110.065155,335.223602 110.042976,339.636414 110.010101,344.513794 
	C104.647209,344.995514 99.295006,345.012695 93.476273,345.018890 
	C97.617424,331.895416 102.225113,318.782959 106.840729,305.297821 
z"/>
<path fill="#FFFBFB" opacity="1.000000" stroke="none" 
	d="
M75.291634,304.496429 
	C69.894371,304.914642 64.384338,304.970123 58.214958,304.887604 
	C57.326210,304.505005 57.141499,304.230377 56.968575,303.627075 
	C56.030033,301.109711 55.124413,298.890930 54.064465,296.294067 
	C53.002464,299.658325 52.186642,302.242706 51.216248,304.776978 
	C51.061676,304.726868 50.823792,304.948303 50.823792,304.948303 
	C50.898952,302.302521 50.871891,299.649017 51.071259,297.012604 
	C51.447624,292.035522 51.030331,287.560608 45.116062,285.423340 
	C52.501530,285.423340 59.886997,285.423340 67.989296,285.423340 
	C70.239975,291.280579 72.709412,297.707123 75.291634,304.496429 
z"/>
<path fill="#FFFDFD" opacity="1.000000" stroke="none" 
	d="
M317.152405,304.821442 
	C317.131439,302.469086 317.330841,299.990784 317.351318,297.510956 
	C317.391937,292.585754 318.428772,287.123291 311.510590,285.233612 
	C321.491974,285.233612 331.473328,285.233612 342.749390,285.233612 
	C332.261200,289.253448 336.598724,297.408112 335.942993,304.500519 
	C336.047272,304.951111 335.774475,304.704132 335.196655,304.819702 
	C328.955078,304.912079 323.291290,304.888916 317.627533,304.865723 
	C317.627533,304.865753 317.291840,304.694794 317.152405,304.821442 
z"/>
<path fill="#FFFDFD" opacity="1.000000" stroke="none" 
	d="
M335.811584,345.156799 
	C335.864136,346.848877 335.719879,348.667236 335.748901,350.482849 
	C335.830902,355.616058 334.322113,361.495544 341.562561,363.716492 
	C331.585510,363.716492 321.608429,363.716492 309.779785,363.716492 
	C320.439606,360.056641 316.708435,352.311188 317.238220,345.494751 
	C317.156403,345.039429 317.392517,345.294373 317.936279,345.164185 
	C324.117035,345.062561 329.753998,345.091156 335.390991,345.119751 
	C335.390991,345.119751 335.693817,345.281799 335.811584,345.156799 
z"/>
<path fill="#FFFDFD" opacity="1.000000" stroke="none" 
	d="
M110.511703,345.561462 
	C116.309311,345.083252 122.109833,345.056702 128.364792,345.007019 
	C128.778458,346.975800 128.678574,348.968536 128.708725,350.959320 
	C128.781357,355.756195 127.205894,361.260071 133.831665,363.654968 
	C124.272827,363.654968 114.713989,363.654968 105.155151,363.654968 
	C113.787064,359.663147 109.577660,352.040894 110.511703,345.561462 
z"/>
<path fill="#D9B8B8" opacity="1.000000" stroke="none" 
	d="
M102.517654,304.919189 
	C100.095131,313.436615 97.208961,321.892792 93.906197,330.676208 
	C93.311829,330.997040 93.134048,330.990570 93.040100,330.551819 
	C91.194626,328.824677 89.265335,327.529785 87.674278,326.461945 
	C88.863571,325.815918 90.494614,324.929932 92.125656,324.043945 
	C90.474762,323.168732 88.823868,322.293549 87.224365,321.445587 
	C92.140648,319.370880 92.355583,319.201202 92.362160,317.349274 
	C89.277191,317.344696 86.196945,317.344696 82.893890,317.344696 
	C82.742096,319.453033 82.613472,321.239563 82.484848,323.026062 
	C80.360451,317.255676 78.236061,311.485291 76.068008,305.340454 
	C84.700897,304.929993 93.377457,304.893951 102.517654,304.919189 
z"/>
<path fill="#DEBBBB" opacity="1.000000" stroke="none" 
	d="
M458.315002,317.485565 
	C455.393097,315.746033 452.292236,314.241852 449.602631,312.196838 
	C447.195282,310.366455 445.241150,307.940002 443.032257,305.440521 
	C452.872253,305.104492 462.767059,305.104492 473.193481,305.104492 
	C473.193481,311.275421 473.193481,317.188812 473.068665,323.557556 
	C470.788422,322.998169 468.632965,321.983398 466.202820,320.579407 
	C465.347076,319.084808 464.890686,317.145935 464.160583,317.036713 
	C462.276581,316.754944 460.271637,317.281769 458.315002,317.485565 
z"/>
<path fill="#FFFBFB" opacity="1.000000" stroke="none" 
	d="
M272.200775,345.084534 
	C272.902466,345.219452 273.170166,345.316925 274.188812,345.222290 
	C275.659149,345.038666 276.378540,345.047180 277.097900,345.055664 
	C275.545654,349.789154 273.996033,354.523560 272.440155,359.255859 
	C271.527374,362.032043 271.186493,364.703613 266.783661,364.597504 
	C262.660339,364.498108 260.925110,363.211761 259.878967,359.404297 
	C258.606720,354.773804 256.687622,350.321045 254.983276,345.421448 
	C260.534393,345.050018 266.150574,345.048553 272.200775,345.084534 
z"/>
<path fill="#FFFBFB" opacity="1.000000" stroke="none" 
	d="
M72.764191,345.477783 
	C78.972908,345.089264 85.272537,345.071320 92.081444,345.080048 
	C90.367554,351.308136 88.144371,357.509552 85.982704,363.539398 
	C81.187912,365.166840 78.888344,363.410065 77.662483,358.809601 
	C76.481339,354.376923 74.490311,350.160034 72.764191,345.477783 
z"/>
<path fill="#DDBABA" opacity="1.000000" stroke="none" 
	d="
M64.887924,324.808533 
	C67.251305,331.267548 69.614685,337.726593 71.993607,344.562256 
	C66.361877,344.972870 60.714615,345.006836 54.502274,345.113708 
	C53.937191,345.186615 53.707153,345.076233 53.799492,344.609314 
	C54.000401,339.644867 54.108971,335.147369 54.600018,330.783203 
	C55.944347,330.877380 57.748779,330.835785 57.748672,330.799347 
	C57.734638,325.896423 62.647091,326.921509 64.887924,324.808533 
z"/>
<path fill="#DFBCBC" opacity="1.000000" stroke="none" 
	d="
M50.886848,345.040466 
	C49.892506,344.321533 48.042519,343.615417 48.031521,342.881744 
	C47.852158,330.914490 47.870777,318.943359 47.993820,306.974670 
	C48.001060,306.270294 49.272839,305.578918 50.389977,304.914917 
	C50.823792,304.948303 51.061676,304.726868 51.103210,305.254181 
	C51.217266,318.882172 51.289787,331.982819 51.237473,345.138733 
	C51.112637,345.193939 50.886848,345.040466 50.886848,345.040466 
z"/>
<path fill="#FFF5F5" opacity="1.000000" stroke="none" 
	d="
M291.114929,304.557556 
	C290.951813,304.936951 290.770599,304.944824 289.881592,304.966187 
	C288.587891,304.912506 288.002014,304.845428 287.416138,304.778320 
	C288.358459,301.959137 289.296265,299.138428 290.244049,296.321075 
	C292.686371,289.061035 292.688141,289.061615 285.975403,285.191071 
	C291.824921,285.191071 297.135162,285.191071 302.445374,285.191071 
	C293.140717,288.189789 294.064026,297.346954 291.114929,304.557556 
z"/>
<path fill="#FFF5F5" opacity="1.000000" stroke="none" 
	d="
M54.043755,345.116455 
	C54.107105,347.706085 54.092091,350.366638 54.014408,353.025391 
	C53.880070,357.623108 54.171101,361.946411 59.957760,363.541626 
	C55.068359,363.541626 50.178959,363.541626 43.706772,363.541626 
	C54.015732,359.901398 50.355568,352.225281 50.945526,345.496094 
	C50.886848,345.040466 51.112637,345.193939 51.528229,345.110382 
	C52.531597,345.043304 53.119377,345.059753 53.707153,345.076233 
	C53.707153,345.076233 53.937191,345.186615 54.043755,345.116455 
z"/>
<path fill="#DFDBDB" opacity="1.000000" stroke="none" 
	d="
M287.281250,304.729614 
	C288.002014,304.845428 288.587891,304.912506 289.615173,305.021362 
	C287.985535,311.780273 285.914490,318.497406 283.516663,325.290161 
	C281.920654,324.287537 280.651489,323.209290 280.158600,322.790558 
	C281.313751,320.426178 282.062286,318.894135 282.810791,317.362061 
	C284.167358,313.461548 285.523956,309.561005 286.921509,305.280640 
	C286.962463,304.900818 287.146423,304.680939 287.281250,304.729614 
z"/>
<path fill="#DEDEDE" opacity="1.000000" stroke="none" 
	d="
M277.320221,345.023132 
	C276.378540,345.047180 275.659149,345.038666 274.583740,345.059174 
	C275.489380,340.793823 276.751007,336.499481 278.263977,331.740723 
	C278.688324,331.289734 278.861420,331.303223 279.137390,331.424866 
	C279.572540,331.611969 279.805969,331.490326 280.209106,331.048248 
	C280.672119,330.903992 280.866577,330.879578 281.061066,330.855133 
	C280.031525,335.253479 279.001984,339.651794 277.968170,344.442200 
	C277.963898,344.834229 277.542542,344.990540 277.320221,345.023132 
z"/>
<path fill="#FF1919" opacity="1.000000" stroke="none" 
	d="
M185.114731,114.729965 
	C196.762238,116.118416 204.281815,122.267166 207.790482,132.833862 
	C209.607513,138.306091 210.887787,144.088135 211.439224,149.823593 
	C212.907181,165.091446 213.099686,180.398972 209.991760,195.536652 
	C206.374664,213.154358 197.255112,220.740631 179.195618,221.367538 
	C176.395752,221.464722 173.589615,221.381088 170.492050,221.381088 
	C170.492050,185.626953 170.492050,150.256790 170.492050,114.040031 
	C175.234833,114.248856 179.960327,114.456917 185.114731,114.729965 
z"/>
<path fill="#FF1B1B" opacity="1.000000" stroke="none" 
	d="
M463.551666,345.024719 
	C465.880005,350.577301 464.930908,355.690338 460.625916,359.579498 
	C455.023956,364.640289 448.284454,364.579407 441.470947,362.459320 
	C433.289856,359.913696 431.076050,352.426849 427.916199,345.382080 
	C439.631531,345.019165 451.356018,345.021088 463.551666,345.024719 
z"/>
<path fill="#FF1616" opacity="1.000000" stroke="none" 
	d="
M411.248108,345.671936 
	C408.617828,359.572235 400.008270,363.991669 386.896393,361.653442 
	C383.862213,361.112335 380.649292,361.573547 376.885864,361.573547 
	C376.885864,356.109375 376.885864,351.033783 376.952026,345.498840 
	C388.327026,345.133453 399.635834,345.227448 411.248108,345.671936 
z"/>
<path fill="#0E0C0C" opacity="1.000000" stroke="none" 
	d="
M378.630737,325.464661 
	C378.570007,324.282990 378.619873,323.476898 378.527130,322.289612 
	C378.542603,320.465424 378.700684,319.022461 378.894653,317.252014 
	C383.195679,317.120819 387.983795,314.834076 389.800201,321.819153 
	C389.798798,322.367859 389.815735,322.801086 389.815735,322.801086 
	C389.402954,325.116455 388.990204,327.431793 388.577423,329.747162 
	C385.798492,333.293732 385.393097,328.520782 384.085785,327.375885 
	C382.631683,328.903992 381.349518,330.251373 380.067352,331.598755 
	C379.625336,331.301208 379.183350,331.003632 378.741364,330.706085 
	C378.741364,329.084137 378.741364,327.462189 378.630737,325.464661 
z"/>
<path fill="#0E0C0C" opacity="1.000000" stroke="none" 
	d="
M428.466064,318.235352 
	C431.760498,317.465302 435.112854,317.085571 438.686157,316.680847 
	C439.585876,322.672729 434.035828,318.807800 432.855865,321.744110 
	C434.535370,322.088837 436.137299,322.417633 437.764038,322.751495 
	C437.906372,324.507721 438.046539,326.237000 438.579956,327.999847 
	C438.209534,329.031372 437.566254,330.735321 436.658752,330.890137 
	C434.277588,331.296356 431.781281,331.027252 428.523987,331.027252 
	C428.523987,326.717163 428.523987,322.671417 428.466064,318.235352 
z"/>
<path fill="#DEDEDE" opacity="1.000000" stroke="none" 
	d="
M390.007812,323.098602 
	C389.815735,322.801086 389.798798,322.367859 389.905945,322.179230 
	C392.829956,319.190948 395.646790,316.391266 398.484009,313.571320 
	C398.484009,319.685242 398.484009,326.317719 398.484009,332.892273 
	C395.683380,329.681885 392.941620,326.539001 390.007812,323.098602 
z"/>
<path fill="#0E0C0C" opacity="1.000000" stroke="none" 
	d="
M410.686188,317.518188 
	C410.942749,321.405640 411.156342,324.911011 410.877869,328.376801 
	C410.784760,329.535156 409.434143,330.592438 408.658356,331.695953 
	C408.060608,331.459442 407.462860,331.222931 406.865112,330.986420 
	C406.865112,327.225098 406.621552,323.437103 407.029236,319.720490 
	C407.136719,318.740540 409.255768,317.981262 410.686188,317.518188 
z"/>
<path fill="#DFD6D6" opacity="1.000000" stroke="none" 
	d="
M335.571838,344.664551 
	C329.753998,345.091156 324.117035,345.062561 318.083130,345.071350 
	C317.461548,338.153381 317.129425,331.199341 317.044342,324.242279 
	C316.969147,318.090271 317.169067,311.934906 317.437500,305.323364 
	C323.291290,304.888916 328.955078,304.912079 335.029175,304.895935 
	C335.543884,317.974182 335.648285,331.091766 335.571838,344.664551 
M324.343781,327.197052 
	C321.841583,328.789978 321.994720,330.165253 324.819061,330.962921 
	C326.056122,331.312317 327.658875,331.576172 328.716980,331.076782 
	C330.464783,330.251831 332.820435,329.005432 333.195892,327.505188 
	C333.515045,326.229858 331.569794,324.194641 330.301941,322.788116 
	C329.548096,321.951843 328.166870,321.681122 327.067688,321.156128 
	C328.476227,320.342987 329.684906,320.542358 330.865723,320.435120 
	C331.530151,320.374786 332.346130,319.949890 332.723022,319.423645 
	C333.005920,319.028656 332.775818,317.679749 332.641113,317.659973 
	C330.570343,317.355530 328.344696,316.685852 326.434570,317.180511 
	C325.041046,317.541443 323.300537,319.376495 323.108612,320.749237 
	C322.927063,322.047516 324.327667,323.838623 325.471924,324.967468 
	C326.443878,325.926331 328.042419,326.250092 329.363708,326.854858 
	C329.232635,327.207672 329.101593,327.560516 328.970520,327.913330 
	C327.694824,327.744904 326.419128,327.576477 324.343781,327.197052 
z"/>
<path fill="#0E0C0C" opacity="1.000000" stroke="none" 
	d="
M279.034515,331.316681 
	C278.861420,331.303223 278.688324,331.289734 278.277222,331.381317 
	C276.162292,330.451447 271.781982,332.578552 272.872803,327.302887 
	C274.949493,327.493713 276.818909,327.665497 278.688293,327.837280 
	C278.805573,327.545288 278.922852,327.253296 279.040161,326.961334 
	C278.052765,326.449280 276.848297,326.143036 276.125275,325.380402 
	C274.802094,323.984711 272.507751,321.826691 272.881378,320.874481 
	C273.549591,319.171478 275.741058,317.789246 277.599640,316.931030 
	C278.769470,316.390869 280.492371,317.048462 282.388977,317.265381 
	C282.062286,318.894135 281.313751,320.426178 280.158600,322.790558 
	C280.651489,323.209290 281.920654,324.287537 283.372925,325.703613 
	C282.823303,327.478760 282.090546,328.916016 281.209412,330.604218 
	C280.866577,330.879578 280.672119,330.903992 279.971375,331.014130 
	C279.465118,331.099854 279.034515,331.316681 279.034515,331.316681 
z"/>
<path fill="#0E0C0C" opacity="1.000000" stroke="none" 
	d="
M301.132874,328.889343 
	C301.133392,324.589111 300.943573,320.759979 301.243073,316.969482 
	C301.340881,315.731232 302.712433,314.593597 303.501465,313.409943 
	C303.939606,313.657104 304.377716,313.904236 304.815826,314.151367 
	C304.815826,321.234711 304.815826,328.318054 304.815826,335.400757 
	C301.135956,335.843506 301.135956,335.843506 301.132874,328.889343 
z"/>
<path fill="#151212" opacity="1.000000" stroke="none" 
	d="
M245.819702,318.391663 
	C247.604095,317.547852 249.388107,317.069244 251.642349,316.464447 
	C253.131195,321.437195 254.465332,325.893250 255.799484,330.349335 
	C255.481781,330.723694 255.164078,331.098083 254.846390,331.472473 
	C253.155212,330.562103 251.464035,329.651733 249.386017,328.845764 
	C247.049911,329.718323 245.100647,330.486420 241.955658,331.725708 
	C243.506302,326.520752 244.662811,322.638763 245.819702,318.391663 
z"/>
<path fill="#0E0C0C" opacity="1.000000" stroke="none" 
	d="
M220.395050,331.121582 
	C218.823257,331.069672 217.688934,330.945251 216.026443,330.762848 
	C216.026443,327.166321 215.866638,323.576447 216.124954,320.016907 
	C216.201279,318.965118 217.457703,317.998962 218.596191,316.908386 
	C219.586060,320.236511 220.153076,323.649841 220.692581,326.897614 
	C222.613327,327.609955 224.588608,328.342560 226.563904,329.075134 
	C226.391479,329.733124 226.219070,330.391083 226.046661,331.049072 
	C224.308624,331.049072 222.570587,331.049072 220.395050,331.121582 
z"/>
<path fill="#151212" opacity="1.000000" stroke="none" 
	d="
M64.953522,324.471558 
	C62.647091,326.921509 57.734638,325.896423 57.748672,330.799347 
	C57.748779,330.835785 55.944347,330.877380 54.657143,330.346741 
	C54.289711,325.636230 54.247627,321.495575 54.624802,317.257874 
	C57.054573,317.005066 59.065090,316.849335 61.075607,316.693604 
	C65.197281,317.686218 66.250275,320.305145 64.953522,324.471558 
z"/>
<path fill="#0E0C0C" opacity="1.000000" stroke="none" 
	d="
M82.590454,323.461151 
	C82.613472,321.239563 82.742096,319.453033 82.893890,317.344696 
	C86.196945,317.344696 89.277191,317.344696 92.362160,317.349274 
	C92.355583,319.201202 92.140648,319.370880 87.224365,321.445587 
	C88.823868,322.293549 90.474762,323.168732 92.125656,324.043945 
	C90.494614,324.929932 88.863571,325.815918 87.674278,326.461945 
	C89.265335,327.529785 91.194626,328.824677 92.603195,330.572876 
	C90.039894,331.083008 87.997307,331.139771 85.954727,331.196533 
	C80.186661,330.852966 83.895309,326.279205 82.590454,323.461151 
z"/>
<path fill="#DDBABA" opacity="1.000000" stroke="none" 
	d="
M61.054840,316.322937 
	C59.065090,316.849335 57.054573,317.005066 54.576126,316.778198 
	C54.076538,313.643860 53.698345,310.833862 54.147091,308.162842 
	C54.403984,306.633759 56.005405,305.330566 57.001488,303.925659 
	C57.141499,304.230377 57.326210,304.505005 57.742943,304.913757 
	C58.964870,308.702728 59.999474,312.327515 61.054840,316.322937 
z"/>
<path fill="#DFBCBC" opacity="1.000000" stroke="none" 
	d="
M85.981995,331.564270 
	C87.997307,331.139771 90.039894,331.083008 92.519379,331.005188 
	C93.134048,330.990570 93.311829,330.997040 93.756592,331.008789 
	C92.856071,334.166870 91.688560,337.319611 90.521049,340.472321 
	C90.115486,340.537445 89.709923,340.602539 89.304359,340.667633 
	C88.205994,337.755768 87.107628,334.843872 85.981995,331.564270 
z"/>
<path fill="#0E0C0C" opacity="1.000000" stroke="none" 
	d="
M458.086914,317.733765 
	C460.271637,317.281769 462.276581,316.754944 464.160583,317.036713 
	C464.890686,317.145935 465.347076,319.084808 465.840576,320.505798 
	C464.177032,320.563416 462.601044,320.305389 461.025024,320.047333 
	C460.882599,320.457794 460.740173,320.868256 460.597748,321.278717 
	C461.783386,321.797638 463.262787,322.036896 464.085480,322.901245 
	C465.306793,324.184357 466.999786,326.077209 466.763336,327.402008 
	C466.508698,328.828644 464.369019,330.069336 462.833984,331.050446 
	C462.118195,331.507935 460.785248,331.439240 459.916138,331.115234 
	C458.588867,330.620514 457.421173,329.697723 456.185730,328.956726 
	C457.477631,328.561707 458.752380,328.088867 460.067474,327.799042 
	C460.942322,327.606262 461.874786,327.674835 463.598511,327.582794 
	C460.231110,324.665131 452.716949,324.637970 458.086914,317.733765 
z"/>
<path fill="#151212" opacity="1.000000" stroke="none" 
	d="
M357.606750,316.874542 
	C359.036285,317.337494 360.024750,317.879547 361.013184,318.421570 
	C360.077393,319.269531 359.141602,320.117493 357.877655,321.262817 
	C359.574463,322.792542 364.313995,324.809875 357.710754,326.525146 
	C359.267670,327.838104 360.518127,328.892639 361.768616,329.947144 
	C360.789093,330.324036 359.809570,330.700897 358.439880,331.148071 
	C355.932220,331.105652 353.814819,330.992950 351.355469,330.862061 
	C351.355469,326.418854 351.355469,322.076385 351.355469,317.259460 
	C353.337708,317.155121 355.251709,317.054352 357.606750,316.874542 
z"/>
<path fill="#DDBABA" opacity="1.000000" stroke="none" 
	d="
M200.053146,344.575378 
	C200.092377,345.024933 199.606567,345.131805 198.886719,345.077271 
	C187.374817,345.016571 176.582733,345.010376 165.790665,345.004211 
	C165.790665,345.004181 165.333603,345.156525 165.098663,345.099487 
	C164.570724,340.761261 164.277695,336.480103 164.389435,331.735077 
	C166.453094,330.607971 168.112015,329.944672 169.770920,329.281403 
	C168.365982,328.765686 166.666412,328.578369 165.631683,327.650024 
	C164.376129,326.523590 163.115921,324.826904 162.963959,323.269043 
	C162.877472,322.382568 164.899887,321.125305 166.156342,320.322571 
	C167.259369,319.617889 168.618393,319.313873 169.864365,318.832916 
	C169.672546,318.276703 169.480728,317.720520 169.288895,317.164337 
	C167.523743,317.027130 165.758591,316.889923 163.993439,316.752686 
	C164.302612,313.100922 164.611771,309.449158 164.850540,305.358765 
	C164.780136,304.920135 165.214066,304.808502 165.913879,304.846893 
	C177.482437,304.918945 188.351166,304.952576 199.219910,304.986237 
	C199.377609,304.925415 199.535324,304.864624 199.940308,304.864502 
	C200.450027,310.210297 200.970917,315.498138 200.913925,320.779755 
	C200.829926,328.564117 200.334259,336.344025 200.053146,344.575378 
M196.413605,330.206818 
	C200.574768,326.391022 198.230835,321.627930 198.034988,316.888062 
	C196.385559,317.720856 195.249420,318.862274 194.862350,320.217621 
	C194.470505,321.589813 195.113235,323.249268 194.754227,324.641418 
	C194.450226,325.820251 193.362869,326.797058 192.622177,327.863281 
	C192.015213,326.862366 190.996582,325.905396 190.884171,324.851715 
	C190.623657,322.409698 190.801300,319.920959 190.801300,316.496979 
	C189.034561,317.279785 186.881836,317.814850 186.894089,318.294708 
	C186.989288,322.029266 186.826523,326.039032 188.223602,329.336731 
	C188.766754,330.618774 193.120544,330.286438 196.413605,330.206818 
z"/>
<path fill="#0E0C0C" opacity="1.000000" stroke="none" 
	d="
M163.644669,316.864990 
	C165.758591,316.889923 167.523743,317.027130 169.288895,317.164337 
	C169.480728,317.720520 169.672546,318.276703 169.864365,318.832916 
	C168.618393,319.313873 167.259369,319.617889 166.156342,320.322571 
	C164.899887,321.125305 162.877472,322.382568 162.963959,323.269043 
	C163.115921,324.826904 164.376129,326.523590 165.631683,327.650024 
	C166.666412,328.578369 168.365982,328.765686 169.770920,329.281403 
	C168.112015,329.944672 166.453094,330.607971 164.391571,331.322388 
	C160.491653,330.494385 158.649796,328.165710 158.503845,324.651123 
	C158.355850,321.087341 159.468781,318.140900 163.644669,316.864990 
z"/>
<path fill="#0E0C0C" opacity="1.000000" stroke="none" 
	d="
M110.534714,330.881897 
	C110.081345,326.596069 110.075371,322.381378 110.098846,317.720886 
	C111.278847,317.182495 112.429398,317.089935 113.996841,316.963806 
	C113.996841,320.379181 113.996841,323.643585 113.996841,326.474152 
	C116.517868,327.571991 118.536766,328.451141 120.555656,329.330322 
	C120.332680,329.871216 120.109695,330.412109 119.886711,330.953003 
	C116.918510,330.953003 113.950302,330.953003 110.534714,330.881897 
z"/>
<path fill="#0E0C0C" opacity="1.000000" stroke="none" 
	d="
M141.149979,321.156433 
	C141.150055,324.584778 141.150055,327.542511 141.150055,330.288971 
	C140.591034,330.670837 140.177124,331.041412 140.109711,330.986481 
	C139.093903,330.159210 137.273956,329.260651 137.289352,328.408569 
	C137.357224,324.654022 136.726578,319.905731 138.724945,317.454407 
	C140.572739,315.187775 141.010864,318.887054 141.149979,321.156433 
z"/>
<path fill="#FF1B1B" opacity="1.000000" stroke="none" 
	d="
M199.299225,304.570496 
	C188.351166,304.952576 177.482437,304.918945 166.115509,304.944519 
	C166.288864,297.547607 167.608734,290.314087 175.298462,286.704407 
	C185.187500,282.062347 194.890305,286.868561 198.118164,297.833527 
	C198.722488,299.886383 198.967651,302.044983 199.299225,304.570496 
z"/>
<path fill="#FF1B1B" opacity="1.000000" stroke="none" 
	d="
M165.746918,345.413940 
	C176.582733,345.010376 187.374817,345.016571 198.645233,345.017822 
	C198.260956,358.482208 190.591812,365.275970 178.666489,363.134918 
	C171.330856,361.817871 167.328583,356.473236 165.746918,345.413940 
z"/>
<path fill="#E1DADA" opacity="1.000000" stroke="none" 
	d="
M56.968575,303.627075 
	C56.005405,305.330566 54.403984,306.633759 54.147091,308.162842 
	C53.698345,310.833862 54.076538,313.643860 54.156868,316.875244 
	C54.247627,321.495575 54.289711,325.636230 54.274666,330.213379 
	C54.108971,335.147369 54.000401,339.644867 53.799492,344.609314 
	C53.119377,345.059753 52.531597,345.043304 51.653065,345.055176 
	C51.289787,331.982819 51.217266,318.882172 51.257782,305.304321 
	C52.186642,302.242706 53.002464,299.658325 54.064465,296.294067 
	C55.124413,298.890930 56.030033,301.109711 56.968575,303.627075 
z"/>
<path fill="#DDBABA" opacity="1.000000" stroke="none" 
	d="
M279.137390,331.424866 
	C279.034515,331.316681 279.465118,331.099854 279.702881,331.133972 
	C279.805969,331.490326 279.572540,331.611969 279.137390,331.424866 
z"/>
<path fill="#0E0C0C" opacity="1.000000" stroke="none" 
	d="
M324.743591,327.302551 
	C326.419128,327.576477 327.694824,327.744904 328.970520,327.913330 
	C329.101593,327.560516 329.232635,327.207672 329.363708,326.854858 
	C328.042419,326.250092 326.443878,325.926331 325.471924,324.967468 
	C324.327667,323.838623 322.927063,322.047516 323.108612,320.749237 
	C323.300537,319.376495 325.041046,317.541443 326.434570,317.180511 
	C328.344696,316.685852 330.570343,317.355530 332.641113,317.659973 
	C332.775818,317.679749 333.005920,319.028656 332.723022,319.423645 
	C332.346130,319.949890 331.530151,320.374786 330.865723,320.435120 
	C329.684906,320.542358 328.476227,320.342987 327.067688,321.156128 
	C328.166870,321.681122 329.548096,321.951843 330.301941,322.788116 
	C331.569794,324.194641 333.515045,326.229858 333.195892,327.505188 
	C332.820435,329.005432 330.464783,330.251831 328.716980,331.076782 
	C327.658875,331.576172 326.056122,331.312317 324.819061,330.962921 
	C321.994720,330.165253 321.841583,328.789978 324.743591,327.302551 
z"/>
<path fill="#0E0C0C" opacity="1.000000" stroke="none" 
	d="
M196.076065,330.448151 
	C193.120544,330.286438 188.766754,330.618774 188.223602,329.336731 
	C186.826523,326.039032 186.989288,322.029266 186.894089,318.294708 
	C186.881836,317.814850 189.034561,317.279785 190.801300,316.496979 
	C190.801300,319.920959 190.623657,322.409698 190.884171,324.851715 
	C190.996582,325.905396 192.015213,326.862366 192.622177,327.863281 
	C193.362869,326.797058 194.450226,325.820251 194.754227,324.641418 
	C195.113235,323.249268 194.470505,321.589813 194.862350,320.217621 
	C195.249420,318.862274 196.385559,317.720856 198.034988,316.888062 
	C198.230835,321.627930 200.574768,326.391022 196.076065,330.448151 
z"/>
</svg>